<?xml version="1.0" standalone="no"?>
<!DOCTYPE svg PUBLIC "-//W3C//DTD SVG 1.1//EN" "http://www.w3.org/Graphics/SVG/1.1/DTD/svg11.dtd" >
<svg xmlns="http://www.w3.org/2000/svg">
<metadata></metadata>
<defs>
<font id="didact_gothicregular" horiz-adv-x="561" >
<font-face units-per-em="1000" ascent="800" descent="-200" />
<missing-glyph horiz-adv-x="223" />
<glyph unicode="&#xd;" horiz-adv-x="333" />
<glyph unicode=" "  horiz-adv-x="223" />
<glyph unicode="&#x09;" horiz-adv-x="223" />
<glyph unicode="&#xa0;" horiz-adv-x="223" />
<glyph unicode="!" horiz-adv-x="233" d="M63 47q0 23 15.5 38.5t38.5 15.5t38.5 -15.5t15.5 -38.5t-16 -39t-38 -16t-38 16t-16 39zM82 166v516h68v-516h-68z" />
<glyph unicode="&#x22;" horiz-adv-x="330" d="M203 424v258h68v-258h-68zM59 424v258h68v-258h-68z" />
<glyph unicode="#" horiz-adv-x="540" d="M151 479l10 164h67l-10 -164h124l10 164h68l-10 -164h91v-69h-96l-11 -176h87v-68h-91l-11 -166h-68l11 166h-124l-11 -166h-67l11 166h-92v68h96l11 176h-87v69h92zM213 410l-11 -176h124l11 176h-124z" />
<glyph unicode="$" horiz-adv-x="474" d="M214 682h41v-99q124 -5 168 -110l-61 -31q-30 74 -107 78v-153q37 -6 63.5 -14t57 -23t46.5 -40.5t16 -59.5q0 -62 -52 -101t-131 -45v-84h-41v83q-62 2 -110 31t-69 79l61 31q13 -33 44 -54t74 -24v160q-26 5 -44.5 10t-43 15.5t-40 23t-26.5 34t-11 47.5q0 62 45 100.5 t120 45.5v100zM214 374v145q-47 -6 -71.5 -28t-24.5 -55q0 -28 25.5 -41.5t70.5 -20.5zM255 298v-151q52 5 83.5 28t31.5 55q0 12 -4 21.5t-15.5 16.5t-18 11t-26 8.5t-24.5 5.5t-27 5z" />
<glyph unicode="%" horiz-adv-x="531" d="M82 424q0 -20 14 -33.5t33 -13.5t33 13.5t14 33.5t-14 33.5t-33 13.5t-33 -13.5t-14 -33.5zM39 424q0 38 26.5 64t63.5 26t63.5 -26t26.5 -64t-26.5 -64t-63.5 -26t-63.5 26t-26.5 64zM355 96q0 -20 13.5 -33.5t33.5 -13.5t33.5 13.5t13.5 33.5t-13.5 33.5t-33.5 13.5 t-33.5 -13.5t-13.5 -33.5zM312 96q0 38 26 64t64 26t64 -26t26 -64t-26 -64t-64 -26t-64 26t-26 64zM49 40l396 472l37 -33l-396 -471z" />
<glyph unicode="&#x26;" horiz-adv-x="536" d="M210 446q73 78 73 130q0 20 -17 34.5t-34 14.5q-18 0 -40 -17.5t-22 -37.5q0 -60 40 -124zM436 123l86 -123h-91l-42 60q-69 -72 -163 -72q-81 0 -138.5 59.5t-57.5 143.5q0 33 20.5 70.5t43.5 63.5t63 66l-25 36q-38 54 -38 145q0 55 42.5 88t95.5 33q52 0 89.5 -30 t37.5 -85q0 -79 -109 -190l136 -194q24 52 41 125l75 -16q-19 -100 -66 -180zM197 335q-45 -46 -68 -78.5t-23 -63.5q0 -56 35 -96t85 -40q65 0 118 68z" />
<glyph unicode="'" horiz-adv-x="186" d="M59 424v258h68v-258h-68z" />
<glyph unicode="(" horiz-adv-x="235" d="M194 629q-26 -15 -50.5 -99.5t-24.5 -189.5t24.5 -188.5t50.5 -98.5v-69q-68 0 -109.5 103.5t-41.5 252.5t41.5 253t109.5 104v-68z" />
<glyph unicode=")" horiz-adv-x="235" d="M41 53q26 15 50.5 99.5t24.5 189.5t-24.5 188.5t-50.5 98.5v68q68 0 109.5 -103t41.5 -252q0 -150 -41.5 -254t-109.5 -104v69z" />
<glyph unicode="*" horiz-adv-x="348" d="M216 591h86v-47h-87l44 -76l-41 -24l-43 75l-44 -75l-41 24l44 76h-88v47h87l-43 75l41 23l44 -75l43 75l41 -23z" />
<glyph unicode="+" horiz-adv-x="443" d="M194 213h-156v55h156v156h55v-156h156v-55h-156v-156h-55v156z" />
<glyph unicode="," horiz-adv-x="205" d="M48 47q0 23 16 38.5t38 15.5t38 -15.5t16 -38.5q0 -34 -9.5 -64t-22.5 -48t-26 -31.5t-22 -19.5l-10 -5l-17 10q38 38 53 103q-22 0 -38 16t-16 39z" />
<glyph unicode="-" horiz-adv-x="333" d="M56 268h221v-55h-221v55z" />
<glyph unicode="." horiz-adv-x="204" d="M48 47q0 23 16 38.5t38 15.5t38 -15.5t16 -38.5t-16 -39t-38 -16t-38 16t-16 39z" />
<glyph unicode="/" horiz-adv-x="377" d="M344 682l-248 -682h-62l248 682h62z" />
<glyph unicode="0" d="M106 341q0 -123 49.5 -209t115.5 -86t115 86t49 209t-49 208.5t-115 85.5t-115.5 -85.5t-49.5 -208.5zM39 341q0 161 70 258.5t162 97.5t162 -97t70 -259q0 -163 -69.5 -260t-161.5 -97t-162.5 98t-70.5 259z" />
<glyph unicode="1" d="M383 0h-74v514l-108 -102l-42 16l150 254h74v-682z" />
<glyph unicode="2" d="M480 68v-68h-410v43q0 70 52.5 138.5t148.5 145.5q68 55 96.5 94t28.5 91q0 117 -130 117q-48 0 -80 -22.5t-69 -73.5l-55 47q48 62 93.5 89.5t110.5 27.5q96 0 151.5 -48t55.5 -137q0 -69 -36.5 -121.5t-131.5 -122.5q-56 -42 -100.5 -96.5t-55.5 -103.5h331z" />
<glyph unicode="3" d="M352 376q138 -57 138 -190q0 -96 -75 -149t-171 -53q-50 0 -104.5 26.5t-87.5 68.5l53 42q23 -32 61.5 -50.5t77.5 -18.5q74 0 122.5 31t48.5 103q0 44 -20.5 75.5t-55 47t-68 22t-70.5 6.5v67q71 0 131 33t60 84q0 48 -32 78.5t-91 30.5q-34 0 -67.5 -17t-55.5 -49 l-54 42q33 42 82 66.5t95 24.5q83 0 140.5 -48.5t57.5 -127.5q0 -43 -31.5 -81t-83.5 -64z" />
<glyph unicode="4" d="M356 566l-222 -316h222v316zM356 682h75v-432h67v-74h-67v-176h-75v176h-302v74z" />
<glyph unicode="5" d="M46 74l53 37q50 -65 160 -65q73 0 121.5 52t48.5 122q0 77 -42 125t-123 48q-17 0 -31.5 -0.5t-28 -2t-22 -2t-20 -4t-16 -4t-16 -5.5t-13.5 -5.5t-15.5 -7t-15.5 -7.5v327h346v-69h-272v-170q55 12 104 12q113 0 172.5 -59.5t59.5 -175.5q0 -105 -64.5 -170.5 t-174.5 -65.5q-139 0 -211 90z" />
<glyph unicode="6" d="M503 225q0 -100 -72 -170.5t-161 -70.5t-160 70t-71 171q0 98 22 179t57.5 133t82.5 88.5t93 52.5t93 19v-64q-192 -28 -253 -218q65 50 137 50q89 0 160.5 -70t71.5 -170zM436 225q0 76 -49.5 126.5t-115.5 50.5t-115 -50.5t-49 -126.5t49 -127.5t115 -51.5t115.5 51.5 t49.5 127.5z" />
<glyph unicode="7" d="M65 613v69h412l-232 -682h-81l209 613h-308z" />
<glyph unicode="8" d="M111 195q0 -73 45 -108.5t115 -35.5t114.5 35t44.5 109t-44.5 109t-114.5 35t-115 -35.5t-45 -108.5zM68 519q0 85 61.5 131.5t141.5 46.5t141.5 -46.5t61.5 -131.5q0 -94 -78 -144q107 -59 107 -180q0 -98 -69 -154.5t-162 -56.5t-163 56.5t-70 154.5q0 121 107 180 q-78 50 -78 144zM271 406q58 0 93.5 27.5t35.5 85.5q0 57 -35.5 84t-93.5 27q-59 0 -94.5 -27t-35.5 -84q0 -56 36 -84.5t94 -28.5z" />
<glyph unicode="9" d="M39 457q0 100 71.5 170t161.5 70q89 0 160 -70t71 -170q0 -122 -33 -216t-86.5 -147t-111 -80t-117.5 -30v65q193 28 254 217q-63 -49 -138 -49q-89 0 -160.5 70t-71.5 170zM106 457q0 -76 49.5 -127t115.5 -51t115 51t49 127t-49 127.5t-115 51.5t-115.5 -51.5 t-49.5 -127.5z" />
<glyph unicode=":" horiz-adv-x="220" d="M56 47q0 23 16 38.5t38 15.5t38 -15.5t16 -38.5t-16 -39t-38 -16t-38 16t-16 39zM56 418q0 22 16 38t38 16t38 -16t16 -38q0 -23 -16 -39t-38 -16t-38 16t-16 39z" />
<glyph unicode=";" horiz-adv-x="220" d="M56 418q0 22 16 38t38 16t38 -16t16 -38q0 -23 -16 -39t-38 -16t-38 16t-16 39zM56 47q0 23 16 38.5t38 15.5t38 -15.5t16 -38.5q0 -34 -9.5 -64t-22.5 -48t-26 -31.5t-22 -19.5l-10 -5l-17 10q38 38 53 103q-22 0 -38 16t-16 39z" />
<glyph unicode="&#x3c;" horiz-adv-x="481" d="M26 285l359 301l44 -53l-296 -248l296 -248l-44 -53z" />
<glyph unicode="=" horiz-adv-x="399" d="M65 322h269v-54h-269v54zM65 213h269v-55h-269v55z" />
<glyph unicode="&#x3e;" horiz-adv-x="481" d="M455 285l-359 -301l-44 53l296 248l-296 248l44 53z" />
<glyph unicode="?" horiz-adv-x="461" d="M155 47q0 23 15.5 38.5t38.5 15.5t39 -16t16 -38q0 -23 -16 -39t-39 -16q-22 0 -38 16t-16 39zM29 559q22 63 75.5 100.5t114.5 37.5q86 0 144.5 -55.5t58.5 -137.5q0 -54 -18.5 -92.5t-44.5 -62t-52 -45.5t-44.5 -56.5t-18.5 -81.5h-68q0 54 18.5 92.5t44.5 62t52 45.5 t44.5 56.5t18.5 81.5q0 56 -36.5 93.5t-98.5 37.5q-45 0 -78.5 -25t-48.5 -71z" />
<glyph unicode="@" horiz-adv-x="751" d="M375 55q-78 0 -119.5 59t-41.5 164q0 103 41 160.5t118 57.5q56 0 97 -38v21h62v-292q0 -32 17 -47.5t34 -15.5q31 0 48 45t17 118q0 164 -67.5 255t-207.5 91q-93 0 -179 -97t-86 -224q0 -182 81 -289t220 -107q62 0 132 26l27 -58q-82 -30 -159 -30q-165 0 -267 124 t-102 331q0 77 30.5 150t78 124t107 81.5t117.5 30.5q170 0 257 -113t87 -311q0 -87 -32 -151t-102 -64q-71 0 -98 53q-42 -54 -110 -54zM470 275q0 65 -26.5 112t-70.5 47t-71 -47t-27 -112q0 -67 26.5 -113t71.5 -46q44 0 70.5 45.5t26.5 113.5z" />
<glyph unicode="A" horiz-adv-x="576" d="M328 680l248 -680h-80l-70 191h-276l-69 -191h-80l247 680v2h81zM288 570l-115 -317h231z" />
<glyph unicode="B" horiz-adv-x="575" d="M79 0v682h202q88 0 148.5 -48t60.5 -123q0 -85 -75 -134q121 -52 121 -177q0 -66 -36 -112.5t-88 -67t-113 -20.5h-220zM154 338v-276h143q68 0 112.5 36t44.5 102t-44.5 102t-112.5 36h-143zM154 619v-218h127q60 0 93.5 33t33.5 77t-33 76t-94 32h-127z" />
<glyph unicode="C" horiz-adv-x="573" d="M546 144q-93 -160 -227 -160q-114 0 -194.5 105.5t-80.5 250.5t80.5 251t194.5 106q124 0 215 -140l-59 -42q-69 114 -156 114t-143 -86t-56 -203t56 -202t143 -85q94 0 162 126z" />
<glyph unicode="D" horiz-adv-x="610" d="M79 0v682h149q66 0 125.5 -20.5t107.5 -60.5t76 -107.5t28 -153.5t-28 -153t-76 -107t-107 -60t-126 -20h-149zM154 613v-545h52q134 0 207 67t73 205t-73 205.5t-207 67.5h-52z" />
<glyph unicode="E" horiz-adv-x="503" d="M79 0v682h382v-63h-307v-218h240v-61h-240v-278h310v-62h-385z" />
<glyph unicode="F" horiz-adv-x="479" d="M79 0v682h382v-63h-307v-218h240v-61h-240v-340h-75z" />
<glyph unicode="G" horiz-adv-x="607" d="M329 291v62h235v-62q0 -161 -66.5 -234t-192.5 -73q-113 0 -187 104.5t-74 251.5t79 252t201 105q77 0 125.5 -34.5t94.5 -105.5l-60 -42q-34 57 -69 85.5t-91 28.5q-92 0 -148 -85.5t-56 -203.5q0 -119 49.5 -203t135.5 -84q45 0 74.5 8t57 32t40.5 73t13 125h-161z" />
<glyph unicode="H" horiz-adv-x="608" d="M79 0v682h75v-295h300v295h75v-682h-75v325h-300v-325h-75z" />
<glyph unicode="I" horiz-adv-x="253" d="M164 616v-550h36v-66h-147v66h36v550h-36v66h147v-66h-36z" />
<glyph unicode="J" horiz-adv-x="490" d="M75 157q15 -48 48.5 -75.5t79.5 -27.5q138 0 138 151v477h75v-477q0 -100 -61 -160.5t-150 -60.5q-61 0 -113.5 39.5t-79.5 103.5z" />
<glyph unicode="K" horiz-adv-x="533" d="M79 0v682h75v-321l269 321h97l-254 -303l265 -379h-91l-224 320l-62 -74v-246h-75z" />
<glyph unicode="L" horiz-adv-x="436" d="M79 0v682h75v-620h267v-62h-342z" />
<glyph unicode="M" horiz-adv-x="793" d="M79 0v682h81l237 -583l236 583h81v-682h-74v503l-203 -503h-80l-203 502v-502h-75z" />
<glyph unicode="N" horiz-adv-x="629" d="M79 0v682h75l322 -559v559h74v-682h-74l-322 557v-557h-75z" />
<glyph unicode="O" horiz-adv-x="670" d="M121 340q0 -114 62.5 -200.5t151.5 -86.5t151.5 86.5t62.5 200.5q0 115 -63 202t-151 87t-151 -87t-63 -202zM42 340q0 143 88.5 250t204.5 107t204.5 -107t88.5 -250t-88.5 -249.5t-204.5 -106.5t-204.5 106.5t-88.5 249.5z" />
<glyph unicode="P" horiz-adv-x="557" d="M79 0v682h218q61 0 113.5 -20.5t89 -67.5t36.5 -113t-36 -112.5t-88 -67t-113 -20.5h-145v-281h-75zM154 619v-275h143q68 0 112.5 35.5t44.5 101.5t-44.5 102t-112.5 36h-143z" />
<glyph unicode="Q" horiz-adv-x="670" d="M42 340q0 143 88.5 250t204.5 107t204.5 -107t88.5 -250q0 -147 -92 -254l72 -72l-44 -43l-73 72q-73 -59 -156 -59q-116 0 -204.5 106.5t-88.5 249.5zM121 340q0 -114 62.5 -200.5t151.5 -86.5q59 0 107 39l-76 75l44 44l75 -74q64 85 64 203q0 115 -63 202t-151 87 t-151 -87t-63 -202z" />
<glyph unicode="R" horiz-adv-x="581" d="M79 0v682h218q61 0 113.5 -20.5t89 -67.5t36.5 -113q0 -76 -44.5 -124t-114.5 -66l168 -291h-83l-162 281h-1h-145v-281h-75zM154 619v-275h143q68 0 112.5 35.5t44.5 101.5t-44.5 102t-112.5 36h-143z" />
<glyph unicode="S" horiz-adv-x="552" d="M278 307q-108 29 -164.5 76t-56.5 129q0 90 57 137.5t162 47.5q127 0 218 -117l-56 -47q-71 96 -162 96q-77 0 -110 -28t-33 -89q0 -23 7.5 -41.5t16 -29.5t28.5 -21t31.5 -14.5t39.5 -13t38 -11.5q102 -35 133 -53q87 -51 87 -158q0 -89 -67 -137.5t-184 -48.5 q-66 0 -128 38t-104 103l59 42q30 -50 77 -82t96 -32q90 0 132.5 28.5t42.5 88.5q0 59 -36.5 86.5t-123.5 50.5z" />
<glyph unicode="T" horiz-adv-x="502" d="M19 620v62h464v-62h-195v-620h-74v620h-195z" />
<glyph unicode="U" horiz-adv-x="635" d="M73 283v399h80v-399q0 -102 40 -166t125 -64t125 64t40 166v399h79v-399q0 -143 -64.5 -221t-179.5 -78q-116 0 -180.5 78t-64.5 221z" />
<glyph unicode="V" horiz-adv-x="573" d="M246 1l-247 681h80l207 -571l208 571h80l-248 -681l1 -1h-81v1z" />
<glyph unicode="W" horiz-adv-x="851" d="M281 0h-77l-182 682h77l144 -538l144 538h77l144 -537l144 537h77l-182 -682h-78l-144 538z" />
<glyph unicode="X" horiz-adv-x="496" d="M290 349l186 -349h-84l-144 270l-143 -270h-84l185 349l-177 333h84l135 -255l136 255h84z" />
<glyph unicode="Y" horiz-adv-x="473" d="M237 432l150 250h87l-201 -335v-347h-74v350l-199 332h87z" />
<glyph unicode="Z" horiz-adv-x="503" d="M38 620v62h426v-75l-341 -545h341v-62h-426v63l347 557h-347z" />
<glyph unicode="[" horiz-adv-x="259" d="M67 721h172v-39h-97v-682h97v-39h-172v760z" />
<glyph unicode="\" horiz-adv-x="377" d="M33 682h62l248 -682h-62z" />
<glyph unicode="]" horiz-adv-x="259" d="M192 -39h-172v39h98v682h-98v39h172v-760z" />
<glyph unicode="^" horiz-adv-x="478" d="M229 476l183 -245l-57 -41l-127 171l-128 -171l-55 41z" />
<glyph unicode="_" horiz-adv-x="458" d="M0 -27h458v-59h-458v59z" />
<glyph unicode="`" horiz-adv-x="388" d="M289 567l-230 117l34 58l216 -141z" />
<glyph unicode="a" d="M34 234q0 101 71.5 175.5t160.5 74.5q92 0 164 -78v62h68v-468h-68v61q-71 -77 -162 -77q-89 0 -161.5 74.5t-72.5 175.5zM102 234q0 -77 49.5 -132.5t114.5 -55.5t114.5 55.5t49.5 132.5t-49.5 132.5t-114.5 55.5t-114.5 -55.5t-49.5 -132.5z" />
<glyph unicode="b" d="M131 63v-63h-68v726h68v-320q71 78 164 78q89 0 160.5 -74.5t71.5 -175.5t-71 -175.5t-159 -74.5q-93 0 -166 79zM131 234q0 -77 49.5 -132.5t114.5 -55.5t114.5 55.5t49.5 132.5t-49.5 132.5t-114.5 55.5t-114.5 -55.5t-49.5 -132.5z" />
<glyph unicode="c" horiz-adv-x="477" d="M454 74q-36 -45 -78.5 -67.5t-107.5 -22.5q-89 0 -161.5 74.5t-72.5 175.5t71.5 175.5t160.5 74.5q49 0 96 -25.5t81 -68.5l-50 -39q-50 71 -127 71q-65 0 -114.5 -55.5t-49.5 -132.5t49.5 -132.5t114.5 -55.5q52 0 80.5 15.5t54.5 49.5z" />
<glyph unicode="d" d="M34 234q0 101 71.5 175.5t160.5 74.5q92 0 164 -78v320h68v-726h-68v61q-71 -77 -162 -77q-89 0 -161.5 74.5t-72.5 175.5zM102 234q0 -77 49.5 -132.5t114.5 -55.5t114.5 55.5t49.5 132.5t-49.5 132.5t-114.5 55.5t-114.5 -55.5t-49.5 -132.5z" />
<glyph unicode="e" horiz-adv-x="526" d="M102 234q0 -77 49.5 -132.5t114.5 -55.5q72 0 104.5 20t58.5 65l54 -36q-37 -56 -84 -83.5t-131 -27.5q-89 0 -161.5 74.5t-72.5 175.5t71.5 175.5t160.5 74.5t160.5 -74.5t71.5 -175.5h-396zM112 296h308q-17 55 -60 90.5t-94 35.5t-94 -35.5t-60 -90.5z" />
<glyph unicode="f" horiz-adv-x="276" d="M264 680h-28q-34 0 -57 -25.5t-23 -60.5v-126h108v-62h-108v-406h-68v406h-60v62h60v126q0 62 43 105t105 43h28v-62z" />
<glyph unicode="g" d="M34 234q0 101 71.5 175.5t160.5 74.5q92 0 164 -78v62h68v-450q0 -109 -56.5 -163.5t-149.5 -54.5h-154v62h154q66 0 102 39.5t36 116.5v43q-71 -77 -162 -77q-89 0 -161.5 74.5t-72.5 175.5zM102 234q0 -77 49.5 -132.5t114.5 -55.5t114.5 55.5t49.5 132.5t-49.5 132.5 t-114.5 55.5t-114.5 -55.5t-49.5 -132.5z" />
<glyph unicode="h" horiz-adv-x="535" d="M477 296v-296h-68v296q0 53 -38 89.5t-101 36.5t-101 -54t-38 -134v-234h-68v726h68v-301q57 59 139 59q89 0 148 -50.5t59 -137.5z" />
<glyph unicode="i" horiz-adv-x="194" d="M43 613q0 23 15.5 38.5t38.5 15.5t38.5 -15.5t15.5 -38.5t-15.5 -38.5t-38.5 -15.5t-38.5 15.5t-15.5 38.5zM63 0v468h68v-468h-68z" />
<glyph unicode="j" horiz-adv-x="194" d="M43 613q0 23 15.5 38.5t38.5 15.5t38.5 -15.5t15.5 -38.5t-15.5 -38.5t-38.5 -15.5t-38.5 15.5t-15.5 38.5zM-45 -138h28q34 0 57 25.5t23 60.5v520h68v-520q0 -62 -43.5 -105t-104.5 -43h-28v62z" />
<glyph unicode="k" horiz-adv-x="436" d="M63 0v726h68v-444l185 186h98l-180 -180l194 -288h-83l-160 239l-54 -53v-186h-68z" />
<glyph unicode="l" horiz-adv-x="204" d="M68 0v726h68v-726h-68z" />
<glyph unicode="m" horiz-adv-x="770" d="M711 296v-296h-67v296q0 52 -31.5 89t-81.5 37t-80 -54t-30 -134v-234h-67v296q0 52 -31.5 89t-81.5 37t-80 -54t-30 -134v-234h-68v468h68v-35q48 51 110 51q47 0 88.5 -22.5t65.5 -63.5q52 86 136 86q73 0 126.5 -51t53.5 -137z" />
<glyph unicode="n" horiz-adv-x="535" d="M477 296v-296h-68v296q0 53 -38 89.5t-101 36.5t-101 -54t-38 -134v-234h-68v468h68v-42q56 58 139 58q89 0 148 -50.5t59 -137.5z" />
<glyph unicode="o" horiz-adv-x="532" d="M102 234q0 -77 49.5 -132.5t114.5 -55.5t114.5 55.5t49.5 132.5t-49.5 132.5t-114.5 55.5t-114.5 -55.5t-49.5 -132.5zM34 234q0 101 71.5 175.5t160.5 74.5t160.5 -74.5t71.5 -175.5t-71 -175.5t-159 -74.5q-89 0 -161.5 74.5t-72.5 175.5z" />
<glyph unicode="p" d="M131 63v-262h-68v667h68v-62q71 78 164 78q89 0 160.5 -74.5t71.5 -175.5t-71 -175.5t-159 -74.5q-93 0 -166 79zM131 234q0 -77 49.5 -132.5t114.5 -55.5t114.5 55.5t49.5 132.5t-49.5 132.5t-114.5 55.5t-114.5 -55.5t-49.5 -132.5z" />
<glyph unicode="q" d="M34 234q0 101 71.5 175.5t160.5 74.5q92 0 164 -78v62h68v-668h-68v261q-71 -77 -162 -77q-89 0 -161.5 74.5t-72.5 175.5zM102 234q0 -77 49.5 -132.5t114.5 -55.5t114.5 55.5t49.5 132.5t-49.5 132.5t-114.5 55.5t-114.5 -55.5t-49.5 -132.5z" />
<glyph unicode="r" horiz-adv-x="435" d="M375 344q-32 78 -115 78q-62 0 -95.5 -53t-33.5 -135v-234h-68v468h68v-37q53 53 129 53q131 0 177 -110z" />
<glyph unicode="s" horiz-adv-x="464" d="M240 201q-3 1 -21.5 4.5t-25.5 5t-25.5 6t-27 8t-24 10t-23.5 13t-19 16t-16.5 20t-9.5 24t-4 29.5q0 68 55 107.5t143 39.5q130 0 176 -110l-61 -30q-32 78 -115 78q-63 0 -96 -23t-33 -62q0 -11 4 -19.5t13 -15t16.5 -10.5t23.5 -8t24 -5.5t27 -4.5t25 -4 q38 -7 64.5 -14.5t58 -22.5t48 -40.5t16.5 -60.5q0 -68 -61 -108t-151 -40q-66 0 -117.5 29t-73.5 82l61 30q15 -35 49 -56.5t81 -21.5q64 0 104 24.5t40 60.5q0 11 -4 20t-12.5 15.5t-16 11t-22 8t-22.5 5.5t-25 5t-23 4z" />
<glyph unicode="t" horiz-adv-x="276" d="M28 406v62h60v155h68v-155h108v-62h-108v-406h-68v406h-60z" />
<glyph unicode="u" horiz-adv-x="535" d="M58 172v296h67v-296q0 -53 38.5 -89.5t101.5 -36.5t100.5 53.5t37.5 133.5v235h69v-468h-69v41q-58 -58 -138 -58q-89 0 -148 51t-59 138z" />
<glyph unicode="v" horiz-adv-x="456" d="M190 0l-189 468h74l153 -380l153 380h74l-190 -468h-75z" />
<glyph unicode="w" horiz-adv-x="719" d="M168 0l-152 468h72l118 -366l118 366h70l118 -365l119 365h72l-152 -468h-76l-116 354l-115 -354h-76z" />
<glyph unicode="x" horiz-adv-x="415" d="M167 244l-140 224h80l100 -160l100 160h81l-140 -224l152 -244h-81l-112 179l-112 -179h-80z" />
<glyph unicode="y" horiz-adv-x="456" d="M228 88l153 380h74l-271 -668h-73l80 199l-190 469h74z" />
<glyph unicode="z" horiz-adv-x="420" d="M37 406v62h346v-62l-264 -344h264v-62h-346v62l264 344h-264z" />
<glyph unicode="{" horiz-adv-x="248" d="M164 202q0 -34 -8.5 -86.5t-8.5 -69.5q0 -34 21 -55t45 -26v-46q-54 8 -96 38.5t-42 89.5q0 34 8.5 86.5t8.5 69.5q0 27 -22 52.5t-43 29.5v46q22 4 47 29.5t25 52.5q0 17 -12 69.5t-12 86.5q0 59 41.5 89.5t95.5 38.5l1 -46q-23 -5 -44 -26t-21 -55q0 -17 8.5 -69.5 t8.5 -86.5q0 -70 -59 -106q58 -35 58 -106z" />
<glyph unicode="|" horiz-adv-x="173" d="M66 -68v818h41v-818h-41z" />
<glyph unicode="}" horiz-adv-x="248" d="M84 414q0 34 8.5 86.5t8.5 69.5q0 34 -21 55t-45 26v46q54 -8 96 -38.5t42 -89.5q0 -34 -8.5 -86.5t-8.5 -69.5q0 -27 22 -52.5t43 -29.5v-46q-22 -4 -47 -29.5t-25 -52.5q0 -17 12 -69.5t12 -86.5q0 -59 -41.5 -89.5t-95.5 -38.5l-1 46q23 5 44 26t21 55q0 17 -8.5 69.5 t-8.5 86.5q0 70 59 106q-58 35 -58 106z" />
<glyph unicode="~" horiz-adv-x="505" d="M334 321q28 0 53 21.5t29 42.5h46q-5 -45 -45 -87.5t-83 -42.5q-33 0 -85.5 31.5t-68.5 31.5q-28 0 -53.5 -21t-29.5 -42h-45q5 45 45 87.5t83 42.5q33 0 85.5 -32t68.5 -32z" />
<glyph unicode="&#xa1;" horiz-adv-x="231" d="M168 529q0 -23 -15 -38t-38 -15t-39 15.5t-16 37.5q0 23 16 39t39 16q22 0 37.5 -16t15.5 -39zM150 410v-515h-68v515h68z" />
<glyph unicode="&#xa2;" horiz-adv-x="489" d="M235 682h41v-99q46 -3 90 -28.5t76 -66.5l-50 -39q-47 66 -116 72v-376q47 1 73 17t51 48l53 -37q-35 -44 -75.5 -66.5t-101.5 -23.5v-83h-41v86q-81 14 -141.5 85t-60.5 162q0 92 60.5 163.5t141.5 84.5v101zM235 148v370q-56 -13 -95 -65t-39 -120t39 -120t95 -65z" />
<glyph unicode="&#xa3;" horiz-adv-x="470" d="M416 551h-74q0 37 -30.5 61t-69.5 24t-69.5 -23.5t-30.5 -61.5q0 -25 28 -83t36 -89h87v-55h-80q0 -64 -21.5 -129.5t-42.5 -98.5l-21 -34h307v-62h-382v62l9 12t21 35t26 55.5t20.5 72t9.5 87.5h-79v55h67q-6 17 -23 54.5t-26.5 66t-9.5 51.5q0 78 48.5 112t125.5 34 q70 0 122 -43t52 -103z" />
<glyph unicode="&#xa4;" horiz-adv-x="511" d="M137 295q0 -49 35.5 -84.5t84.5 -35.5t84.5 35.5t35.5 84.5t-35.5 84.5t-84.5 35.5t-84.5 -35.5t-35.5 -84.5zM363 148q-46 -34 -106 -34q-62 0 -109 36l-59 -59l-38 38l59 60q-34 46 -34 106t34 106l-59 60l38 38l60 -59q47 36 108 36q60 0 106 -34l58 57l38 -38 l-57 -58q35 -48 35 -108t-35 -108l57 -58l-38 -38z" />
<glyph unicode="&#xa5;" horiz-adv-x="524" d="M262 432l150 250h87l-201 -335v-29h88v-48h-88v-49h88v-49h-88v-172h-74v172h-88v49h88v49h-88v48h88v32l-199 332h87z" />
<glyph unicode="&#xa6;" horiz-adv-x="179" d="M69 389v361h41v-361h-41zM69 -68v361h41v-361h-41z" />
<glyph unicode="&#xa7;" horiz-adv-x="492" d="M388 160q29 -32 29 -85q0 -68 -49.5 -110.5t-131.5 -42.5q-96 0 -149 82l55 40q16 -26 48 -42.5t61 -16.5q43 0 70 26.5t27 60.5q0 19 -7.5 33t-23 22.5t-30 13.5t-37 11.5t-35.5 11.5q-9 4 -36 14.5t-37.5 16t-32 16.5t-31 21.5t-22 26t-17 35t-4.5 43.5q0 44 15 69.5 t55 52.5q-29 32 -29 85q0 69 49.5 111t130.5 42q97 0 150 -82l-56 -40q-16 27 -47.5 43t-60.5 16q-43 0 -70.5 -26.5t-27.5 -60.5q0 -19 7.5 -33t23 -22.5t30 -13.5t37 -11.5t35.5 -11.5q9 -4 36 -14.5t38 -16t32.5 -16.5t31 -21.5t21.5 -26t17 -35t5 -43.5q0 -44 -15 -69.5 t-55 -52.5zM160 420q-34 -22 -45.5 -39.5t-11.5 -43.5q0 -19 7.5 -34.5t17 -24.5t29 -19t30.5 -14t35 -12q4 -1 46 -12.5t64 -21.5q35 22 46 39t11 44q0 19 -7.5 34.5t-17 24.5t-29 19t-30.5 14t-35 12q-3 1 -45.5 12.5t-64.5 21.5z" />
<glyph unicode="&#xa8;" horiz-adv-x="442" d="M253 613q0 23 15.5 38.5t38.5 15.5t39 -16t16 -38t-16 -38t-39 -16t-38.5 15.5t-15.5 38.5zM58 613q0 23 16 38.5t38 15.5q23 0 39 -16t16 -38t-16 -38t-39 -16q-22 0 -38 15.5t-16 38.5z" />
<glyph unicode="&#xa9;" horiz-adv-x="703" d="M487 178q-49 -66 -131 -66q-62 0 -111 51t-49 120q0 71 49 121t110 50q74 0 125 -68l-42 -32l-3 3q-33 46 -80 46q-42 0 -73 -36t-31 -84q0 -50 31.5 -85.5t72.5 -35.5q36 0 53.5 11t35.5 35zM45 286q0 128 90 217.5t216 89.5q128 0 217.5 -90.5t89.5 -216.5 q0 -128 -90.5 -217.5t-216.5 -89.5q-127 0 -216.5 90.5t-89.5 216.5zM91 286q0 -109 76.5 -184.5t183.5 -75.5q109 0 184.5 76.5t75.5 183.5q0 109 -76.5 184.5t-183.5 75.5q-109 0 -184.5 -76.5t-75.5 -183.5z" />
<glyph unicode="&#xaa;" horiz-adv-x="413" d="M348 285h-288v51h288v-51zM202 649q-38 0 -65 -33t-27 -75t28 -74.5t66 -32.5t65.5 33.5t27.5 75.5t-28 74t-67 32zM60 542q0 59 43 106.5t99 47.5q53 0 95 -39v30h51v-291h-51v30q-42 -39 -95 -39q-56 0 -99 48t-43 107z" />
<glyph unicode="&#xab;" horiz-adv-x="567" d="M22 238l243 184l41 -56l-172 -128l172 -129l-41 -54zM237 238l243 184l41 -56l-172 -128l172 -129l-41 -54z" />
<glyph unicode="&#xac;" horiz-adv-x="385" d="M320 268v-150h-55v95h-200v55h255z" />
<glyph unicode="&#xad;" horiz-adv-x="333" d="M56 268h221v-55h-221v55z" />
<glyph unicode="&#xae;" horiz-adv-x="703" d="M236 117v332h129q42 0 73.5 -27.5t31.5 -71.5q0 -59 -52 -87l87 -146h-64l-80 133h-70v-133h-55zM45 286q0 128 90 217.5t216 89.5q128 0 217.5 -90.5t89.5 -216.5q0 -128 -90.5 -217.5t-216.5 -89.5q-127 0 -216.5 90.5t-89.5 216.5zM91 286q0 -109 76.5 -184.5 t183.5 -75.5q109 0 184.5 76.5t75.5 183.5q0 109 -76.5 184.5t-183.5 75.5q-109 0 -184.5 -76.5t-75.5 -183.5zM291 399v-98h55q38 0 54 14.5t16 34.5q0 21 -17 35t-53 14h-55z" />
<glyph unicode="&#xaf;" horiz-adv-x="406" d="M59 631h267v-45h-267v45z" />
<glyph unicode="&#xb0;" horiz-adv-x="341" d="M36 562q0 56 39.5 95.5t94.5 39.5q56 0 95.5 -39.5t39.5 -95.5q0 -55 -39.5 -94t-95.5 -39t-95 39t-39 94zM90 562q0 -34 23 -57t57 -23t57 23t23 57t-23 58t-57 24t-57 -24t-23 -58z" />
<glyph unicode="&#xb1;" horiz-adv-x="491" d="M62 22v55h367v-55h-367zM218 278h-156v55h156v135h55v-135h156v-55h-156v-134h-55v134z" />
<glyph unicode="&#xb2;" horiz-adv-x="356" d="M40 611q31 41 60 59.5t71 18.5q61 0 96 -31t35 -87q0 -44 -23 -76t-80 -75q-69 -51 -88 -108h196v-54h-260v32q0 77 123 176q42 33 58 54.5t16 50.5q0 64 -73 64q-20 0 -36.5 -9t-25 -19t-25.5 -33z" />
<glyph unicode="&#xb3;" horiz-adv-x="340" d="M48 627q19 29 52 45.5t63 16.5q52 0 89 -31.5t37 -81.5q0 -49 -60 -86q74 -38 74 -111q0 -62 -47.5 -93.5t-106.5 -31.5q-35 0 -69 18t-56 46l43 35q36 -45 82 -45q96 0 96 71q0 81 -128 81v54q45 0 79.5 17.5t34.5 44.5q0 26 -18 43t-50 17q-40 0 -72 -43z" />
<glyph unicode="&#xb4;" horiz-adv-x="388" d="M58 601l216 141l34 -58l-230 -117z" />
<glyph unicode="&#xb5;" horiz-adv-x="579" d="M447 75q-65 -92 -172 -92q-90 0 -145 84v-267h-67v668h67v-97q0 -158 39 -241.5t106 -83.5q75 0 123.5 71t48.5 238v113h69v-468h-69v75z" />
<glyph unicode="&#xb6;" horiz-adv-x="525" d="M320 0h-75v282q-88 7 -150.5 58t-62.5 141q0 66 37 113t89.5 67.5t113.5 20.5h169v-682h-75v619h-46v-619zM245 346v271q-58 -7 -94.5 -42t-36.5 -94t36 -93.5t95 -41.5z" />
<glyph unicode="&#xb7;" horiz-adv-x="220" d="M56 254q0 22 16 38t38 16t38 -16t16 -38q0 -23 -16 -39t-38 -16t-38 16t-16 39z" />
<glyph unicode="&#xb8;" horiz-adv-x="345" d="M138 0h51l-33 -68q54 0 80.5 -18t26.5 -39q0 -75 -205 -75v27q50 0 95 11.5t45 30.5q0 10 -7 15.5t-31 9t-70 3.5z" />
<glyph unicode="&#xb9;" horiz-adv-x="222" d="M108 682h54v-422h-57v299l-57 -53l-36 14z" />
<glyph unicode="&#xba;" horiz-adv-x="408" d="M204 387q-57 0 -100.5 47.5t-43.5 107.5t43.5 107t100.5 47t100.5 -47t43.5 -107t-43.5 -107.5t-100.5 -47.5zM202 649q-38 0 -65 -33t-27 -75t28 -74.5t66 -32.5t65.5 33.5t27.5 75.5t-28 74t-67 32zM348 285h-288v51h288v-51z" />
<glyph unicode="&#xbb;" horiz-adv-x="568" d="M331 238l-243 -183l-41 55l171 128l-171 129l41 55zM546 238l-243 -183l-41 55l171 128l-171 129l41 55z" />
<glyph unicode="&#xbc;" horiz-adv-x="691" d="M472 682l-248 -682h-62l248 682h62zM125 682h54v-422h-57v299l-57 -53l-36 14zM552 324l-113 -161h113v161zM555 422h56v-259h40v-58h-40v-105h-59v105h-181v53z" />
<glyph unicode="&#xbd;" horiz-adv-x="733" d="M422 354q31 41 60 59.5t71 18.5q60 0 95.5 -31.5t35.5 -87.5q0 -44 -23 -76t-80 -75q-70 -52 -88 -107h196v-55h-260v32q0 77 123 176q42 33 58 54.5t16 50.5q0 64 -73 64q-20 0 -36.5 -9t-25 -19t-25.5 -33zM472 682l-248 -682h-62l248 682h62zM125 682h54v-422h-57v299 l-57 -53l-36 14z" />
<glyph unicode="&#xbe;" horiz-adv-x="773" d="M55 627q19 29 52 45.5t63 16.5q52 0 89 -31.5t37 -81.5q0 -49 -60 -86q74 -38 74 -111q0 -62 -47.5 -93.5t-106.5 -31.5q-35 0 -69 18t-56 46l43 35q36 -45 82 -45q96 0 96 71q0 81 -128 81v54q45 0 79.5 17.5t34.5 44.5q0 26 -18 43t-50 17q-40 0 -72 -43zM558 682 l-248 -682h-62l248 682h62zM638 324l-113 -161h113v161zM641 422h56v-259h40v-58h-40v-105h-59v105h-181v53z" />
<glyph unicode="&#xbf;" horiz-adv-x="461" d="M306 545q0 -23 -16 -38.5t-38 -15.5t-38 15.5t-16 38.5t16 39t38 16t38 -16t16 -39zM432 33q-22 -63 -75 -100.5t-114 -37.5q-86 0 -145 55.5t-59 137.5q0 54 18.5 92.5t44.5 62t52 45.5t44.5 56.5t18.5 81.5h69q0 -54 -18.5 -92.5t-44.5 -62t-52 -45.5t-44.5 -56.5 t-18.5 -81.5q0 -56 36.5 -93.5t98.5 -37.5q45 0 78.5 25t48.5 71z" />
<glyph unicode="&#xc0;" horiz-adv-x="576" d="M346 725l-230 117l34 58l216 -141zM328 680l248 -680h-80l-70 191h-276l-69 -191h-80l247 680v2h81zM288 570l-115 -317h231z" />
<glyph unicode="&#xc1;" horiz-adv-x="576" d="M209 759l216 141l34 -58l-230 -117zM328 680l248 -680h-80l-70 191h-276l-69 -191h-80l247 680v2h81zM288 570l-115 -317h231z" />
<glyph unicode="&#xc2;" horiz-adv-x="576" d="M171 725l-19 34l135 124l136 -124l-19 -34l-117 77zM328 680l248 -680h-80l-70 191h-276l-69 -191h-80l247 680v2h81zM288 570l-115 -317h231z" />
<glyph unicode="&#xc3;" horiz-adv-x="576" d="M347 792q27 0 45 20t22 43h46q-6 -47 -38.5 -88.5t-74.5 -41.5q-26 0 -47 16t-38 32t-32 16q-27 0 -45.5 -20.5t-22.5 -43.5h-45q6 47 38.5 88.5t74.5 41.5q26 0 47 -15.5t38 -31.5t32 -16zM328 680l248 -680h-80l-70 191h-276l-69 -191h-80l247 680v2h81zM288 570 l-115 -317h231z" />
<glyph unicode="&#xc4;" horiz-adv-x="576" d="M331 771q0 23 15.5 38.5t38.5 15.5t39 -16t16 -38t-16 -38t-39 -16t-38.5 15.5t-15.5 38.5zM136 771q0 23 16 38.5t38 15.5q23 0 39 -16t16 -38t-16 -38t-39 -16q-22 0 -38 15.5t-16 38.5zM328 680l248 -680h-80l-70 191h-276l-69 -191h-80l247 680v2h81zM288 570 l-115 -317h231z" />
<glyph unicode="&#xc5;" horiz-adv-x="576" d="M238 817q0 -20 14.5 -35t34.5 -15t35 15t15 35t-15 35t-35 15t-34.5 -15t-14.5 -35zM188 817q0 41 29 70.5t70 29.5t70.5 -29.5t29.5 -70.5t-29.5 -70t-70.5 -29t-70 29t-29 70zM328 680l248 -680h-80l-70 191h-276l-69 -191h-80l247 680v2h81zM288 570l-115 -317h231z " />
<glyph unicode="&#xc6;" horiz-adv-x="772" d="M163 191l-103 -191h-80l368 680v2h382v-63h-308v-218h240v-61h-240v-278h311v-62h-385v191h-185zM197 253h151v279z" />
<glyph unicode="&#xc7;" horiz-adv-x="575" d="M295 -15q-106 13 -178 115.5t-72 239.5q0 145 80.5 251t194.5 106q124 0 215 -140l-59 -42q-69 114 -156 114t-143 -86t-56 -203t56 -202t143 -85q94 0 162 126l65 -35q-83 -143 -201 -158l-27 -54q54 0 81 -18t27 -39q0 -75 -205 -75v27q49 0 94 11.5t45 30.5 q0 10 -7 15.5t-30.5 9t-69.5 3.5z" />
<glyph unicode="&#xc8;" horiz-adv-x="503" d="M344 725l-230 117l34 58l216 -141zM79 0v682h382v-63h-307v-218h240v-61h-240v-278h310v-62h-385z" />
<glyph unicode="&#xc9;" horiz-adv-x="503" d="M207 759l216 141l34 -58l-230 -117zM79 0v682h382v-63h-307v-218h240v-61h-240v-278h310v-62h-385z" />
<glyph unicode="&#xca;" horiz-adv-x="503" d="M169 725l-19 34l135 124l136 -124l-19 -34l-117 77zM79 0v682h382v-63h-307v-218h240v-61h-240v-278h310v-62h-385z" />
<glyph unicode="&#xcb;" horiz-adv-x="503" d="M329 771q0 23 15.5 38.5t38.5 15.5t39 -16t16 -38t-16 -38t-39 -16t-38.5 15.5t-15.5 38.5zM134 771q0 23 16 38.5t38 15.5q23 0 39 -16t16 -38t-16 -38t-39 -16q-22 0 -38 15.5t-16 38.5zM79 0v682h382v-63h-307v-218h240v-61h-240v-278h310v-62h-385z" />
<glyph unicode="&#xcc;" horiz-adv-x="253" d="M186 725l-230 117l34 58l216 -141zM164 616v-550h36v-66h-147v66h36v550h-36v66h147v-66h-36z" />
<glyph unicode="&#xcd;" horiz-adv-x="253" d="M49 759l216 141l34 -58l-230 -117zM164 616v-550h36v-66h-147v66h36v550h-36v66h147v-66h-36z" />
<glyph unicode="&#xce;" horiz-adv-x="253" d="M10 725l-19 34l135 124l136 -124l-19 -34l-117 77zM164 616v-550h36v-66h-147v66h36v550h-36v66h147v-66h-36z" />
<glyph unicode="&#xcf;" horiz-adv-x="253" d="M171 771q0 23 15.5 38.5t38.5 15.5t39 -16t16 -38t-16 -38t-39 -16t-38.5 15.5t-15.5 38.5zM-24 771q0 23 16 38.5t38 15.5q23 0 39 -16t16 -38t-16 -38t-39 -16q-22 0 -38 15.5t-16 38.5zM164 616v-550h36v-66h-147v66h36v550h-36v66h147v-66h-36z" />
<glyph unicode="&#xd0;" horiz-adv-x="612" d="M156 309v-241h52q134 0 207 67t73 205t-73 205.5t-207 67.5h-52v-242h127v-62h-127zM81 309h-60v62h60v311h149q66 0 125.5 -20.5t107.5 -60.5t76 -107.5t28 -153.5t-28 -153t-76 -107t-107 -60t-126 -20h-149v309z" />
<glyph unicode="&#xd1;" horiz-adv-x="629" d="M379 792q27 0 45 20t22 43h46q-6 -47 -38.5 -88.5t-74.5 -41.5q-26 0 -47 16t-38 32t-32 16q-27 0 -45.5 -20.5t-22.5 -43.5h-45q6 47 38.5 88.5t74.5 41.5q26 0 47 -15.5t38 -31.5t32 -16zM79 0v682h75l322 -559v559h74v-682h-74l-322 557v-557h-75z" />
<glyph unicode="&#xd2;" horiz-adv-x="670" d="M394 725l-230 117l34 58l216 -141zM121 340q0 -114 62.5 -200.5t151.5 -86.5t151.5 86.5t62.5 200.5q0 115 -63 202t-151 87t-151 -87t-63 -202zM42 340q0 143 88.5 250t204.5 107t204.5 -107t88.5 -250t-88.5 -249.5t-204.5 -106.5t-204.5 106.5t-88.5 249.5z" />
<glyph unicode="&#xd3;" horiz-adv-x="670" d="M257 759l216 141l34 -58l-230 -117zM121 340q0 -114 62.5 -200.5t151.5 -86.5t151.5 86.5t62.5 200.5q0 115 -63 202t-151 87t-151 -87t-63 -202zM42 340q0 143 88.5 250t204.5 107t204.5 -107t88.5 -250t-88.5 -249.5t-204.5 -106.5t-204.5 106.5t-88.5 249.5z" />
<glyph unicode="&#xd4;" horiz-adv-x="670" d="M219 725l-19 34l135 124l136 -124l-19 -34l-117 77zM121 340q0 -114 62.5 -200.5t151.5 -86.5t151.5 86.5t62.5 200.5q0 115 -63 202t-151 87t-151 -87t-63 -202zM42 340q0 143 88.5 250t204.5 107t204.5 -107t88.5 -250t-88.5 -249.5t-204.5 -106.5t-204.5 106.5 t-88.5 249.5z" />
<glyph unicode="&#xd5;" horiz-adv-x="670" d="M395 792q27 0 45 20t22 43h46q-6 -47 -38.5 -88.5t-74.5 -41.5q-26 0 -47 16t-38 32t-32 16q-27 0 -45.5 -20.5t-22.5 -43.5h-45q6 47 38.5 88.5t74.5 41.5q26 0 47 -15.5t38 -31.5t32 -16zM121 340q0 -114 62.5 -200.5t151.5 -86.5t151.5 86.5t62.5 200.5q0 115 -63 202 t-151 87t-151 -87t-63 -202zM42 340q0 143 88.5 250t204.5 107t204.5 -107t88.5 -250t-88.5 -249.5t-204.5 -106.5t-204.5 106.5t-88.5 249.5z" />
<glyph unicode="&#xd6;" horiz-adv-x="670" d="M379 771q0 23 15.5 38.5t38.5 15.5t39 -16t16 -38t-16 -38t-39 -16t-38.5 15.5t-15.5 38.5zM184 771q0 23 16 38.5t38 15.5q23 0 39 -16t16 -38t-16 -38t-39 -16q-22 0 -38 15.5t-16 38.5zM121 340q0 -114 62.5 -200.5t151.5 -86.5t151.5 86.5t62.5 200.5q0 115 -63 202 t-151 87t-151 -87t-63 -202zM42 340q0 143 88.5 250t204.5 107t204.5 -107t88.5 -250t-88.5 -249.5t-204.5 -106.5t-204.5 106.5t-88.5 249.5z" />
<glyph unicode="&#xd7;" horiz-adv-x="430" d="M176 240l-124 124l39 39l124 -124l124 124l39 -39l-124 -124l124 -124l-39 -39l-124 124l-124 -124l-39 39z" />
<glyph unicode="&#xd8;" horiz-adv-x="672" d="M507 511l-315 -382q61 -76 144 -76q89 0 151.5 86.5t62.5 200.5q0 93 -43 171zM478 553q-63 76 -142 76q-88 0 -151 -87t-63 -202q0 -94 42 -169zM43 340q0 143 88.5 250t204.5 107q105 0 188 -88l60 73h63l-92 -111q74 -104 74 -231q0 -143 -88.5 -249.5t-204.5 -106.5 q-104 0 -189 90l-61 -74h-62l92 111q-73 101 -73 229z" />
<glyph unicode="&#xd9;" horiz-adv-x="635" d="M376 725l-230 117l34 58l216 -141zM73 283v399h80v-399q0 -102 40 -166t125 -64t125 64t40 166v399h79v-399q0 -143 -64.5 -221t-179.5 -78q-116 0 -180.5 78t-64.5 221z" />
<glyph unicode="&#xda;" horiz-adv-x="635" d="M239 759l216 141l34 -58l-230 -117zM73 283v399h80v-399q0 -102 40 -166t125 -64t125 64t40 166v399h79v-399q0 -143 -64.5 -221t-179.5 -78q-116 0 -180.5 78t-64.5 221z" />
<glyph unicode="&#xdb;" horiz-adv-x="635" d="M201 725l-19 34l135 124l136 -124l-19 -34l-117 77zM73 283v399h80v-399q0 -102 40 -166t125 -64t125 64t40 166v399h79v-399q0 -143 -64.5 -221t-179.5 -78q-116 0 -180.5 78t-64.5 221z" />
<glyph unicode="&#xdc;" horiz-adv-x="635" d="M361 771q0 23 15.5 38.5t38.5 15.5t39 -16t16 -38t-16 -38t-39 -16t-38.5 15.5t-15.5 38.5zM166 771q0 23 16 38.5t38 15.5q23 0 39 -16t16 -38t-16 -38t-39 -16q-22 0 -38 15.5t-16 38.5zM73 283v399h80v-399q0 -102 40 -166t125 -64t125 64t40 166v399h79v-399 q0 -143 -64.5 -221t-179.5 -78q-116 0 -180.5 78t-64.5 221z" />
<glyph unicode="&#xdd;" horiz-adv-x="473" d="M158 759l216 141l34 -58l-230 -117zM237 432l150 250h87l-201 -335v-347h-74v350l-199 332h87z" />
<glyph unicode="&#xde;" horiz-adv-x="513" d="M79 0v682h75v-169h132q88 0 148.5 -48t60.5 -123t-59.5 -123t-147.5 -48h-134v-171h-75zM154 450v-218h132q60 0 93.5 33t33.5 77t-33 76t-94 32h-132z" />
<glyph unicode="&#xdf;" horiz-adv-x="518" d="M272 403q0 -19 21.5 -29t63.5 -19q60 -13 99 -68.5t39 -129.5q0 -75 -40.5 -124t-122.5 -49q-63 0 -99.5 27.5t-60.5 83.5l61 30q17 -41 36 -59.5t63 -18.5q49 0 72 33.5t23 76.5q0 44 -20 81.5t-56 48.5q-36 10 -51 14.5t-39 15t-33 20.5t-17 27t-8 39q0 39 24 64 t53.5 36t53.5 33.5t24 57.5q0 85 -120 85q-49 0 -78 -31.5t-29 -96.5v-551h-68v533q0 208 175 208q103 0 146 -42t43 -123q0 -30 -16 -53.5t-38.5 -38t-45.5 -27t-39 -26t-16 -28.5z" />
<glyph unicode="&#xe0;" d="M334 567l-230 117l34 58l216 -141zM34 234q0 101 71.5 175.5t160.5 74.5q92 0 164 -78v62h68v-468h-68v61q-71 -77 -162 -77q-89 0 -161.5 74.5t-72.5 175.5zM102 234q0 -77 49.5 -132.5t114.5 -55.5t114.5 55.5t49.5 132.5t-49.5 132.5t-114.5 55.5t-114.5 -55.5 t-49.5 -132.5z" />
<glyph unicode="&#xe1;" d="M197 601l216 141l34 -58l-230 -117zM34 234q0 101 71.5 175.5t160.5 74.5q92 0 164 -78v62h68v-468h-68v61q-71 -77 -162 -77q-89 0 -161.5 74.5t-72.5 175.5zM102 234q0 -77 49.5 -132.5t114.5 -55.5t114.5 55.5t49.5 132.5t-49.5 132.5t-114.5 55.5t-114.5 -55.5 t-49.5 -132.5z" />
<glyph unicode="&#xe2;" d="M159 567l-19 34l135 124l136 -124l-19 -34l-117 77zM34 234q0 101 71.5 175.5t160.5 74.5q92 0 164 -78v62h68v-468h-68v61q-71 -77 -162 -77q-89 0 -161.5 74.5t-72.5 175.5zM102 234q0 -77 49.5 -132.5t114.5 -55.5t114.5 55.5t49.5 132.5t-49.5 132.5t-114.5 55.5 t-114.5 -55.5t-49.5 -132.5z" />
<glyph unicode="&#xe3;" d="M335 634q27 0 45 20t22 43h46q-6 -47 -38.5 -88.5t-74.5 -41.5q-26 0 -47 16t-38 32t-32 16q-27 0 -45.5 -20.5t-22.5 -43.5h-45q6 47 38.5 88.5t74.5 41.5q26 0 47 -15.5t38 -31.5t32 -16zM34 234q0 101 71.5 175.5t160.5 74.5q92 0 164 -78v62h68v-468h-68v61 q-71 -77 -162 -77q-89 0 -161.5 74.5t-72.5 175.5zM102 234q0 -77 49.5 -132.5t114.5 -55.5t114.5 55.5t49.5 132.5t-49.5 132.5t-114.5 55.5t-114.5 -55.5t-49.5 -132.5z" />
<glyph unicode="&#xe4;" d="M319 613q0 23 15.5 38.5t38.5 15.5t39 -16t16 -38t-16 -38t-39 -16t-38.5 15.5t-15.5 38.5zM124 613q0 23 16 38.5t38 15.5q23 0 39 -16t16 -38t-16 -38t-39 -16q-22 0 -38 15.5t-16 38.5zM34 234q0 101 71.5 175.5t160.5 74.5q92 0 164 -78v62h68v-468h-68v61 q-71 -77 -162 -77q-89 0 -161.5 74.5t-72.5 175.5zM102 234q0 -77 49.5 -132.5t114.5 -55.5t114.5 55.5t49.5 132.5t-49.5 132.5t-114.5 55.5t-114.5 -55.5t-49.5 -132.5z" />
<glyph unicode="&#xe5;" d="M226 659q0 -20 14.5 -35t34.5 -15t35 15t15 35t-15 35t-35 15t-34.5 -15t-14.5 -35zM176 659q0 41 29 70.5t70 29.5t70.5 -29.5t29.5 -70.5t-29.5 -70t-70.5 -29t-70 29t-29 70zM34 234q0 101 71.5 175.5t160.5 74.5q92 0 164 -78v62h68v-468h-68v61q-71 -77 -162 -77 q-89 0 -161.5 74.5t-72.5 175.5zM102 234q0 -77 49.5 -132.5t114.5 -55.5t114.5 55.5t49.5 132.5t-49.5 132.5t-114.5 55.5t-114.5 -55.5t-49.5 -132.5z" />
<glyph unicode="&#xe6;" horiz-adv-x="867" d="M111 356l-53 33q25 32 43 49t53.5 31t82.5 14q125 0 176 -117q33 53 85.5 85t108.5 32q89 0 160.5 -74t71.5 -175h-396q0 -77 49.5 -132.5t114.5 -55.5q72 0 104.5 20t58.5 64l54 -35q-37 -56 -84 -83.5t-131 -27.5q-90 0 -160 72q-87 -72 -241 -72q-79 0 -130 39 t-51 105q0 70 64.5 116t202.5 46q40 0 79 -12q-6 55 -41.5 99t-94.5 44q-50 0 -74.5 -15t-51.5 -50zM453 296h308q-17 55 -60 90t-94 35t-94 -35t-60 -90zM408 110q-31 54 -34 109q-50 12 -79 12q-94 0 -143.5 -27t-49.5 -77q0 -31 20 -50.5t42.5 -25t46.5 -5.5 q118 0 197 64z" />
<glyph unicode="&#xe7;" horiz-adv-x="479" d="M246 -15q-83 10 -147 82.5t-64 166.5q0 101 71.5 175.5t160.5 74.5q49 0 96 -25.5t81 -68.5l-50 -39q-50 71 -127 71q-65 0 -114.5 -55.5t-49.5 -132.5t49.5 -132.5t114.5 -55.5q52 0 80.5 15.5t54.5 49.5l53 -37q-65 -82 -158 -89l-26 -53q54 0 80.5 -18t26.5 -39 q0 -75 -205 -75v27q50 0 95 11.5t45 30.5q0 10 -7 15.5t-31 9t-70 3.5z" />
<glyph unicode="&#xe8;" horiz-adv-x="526" d="M324 567l-230 117l34 58l216 -141zM102 234q0 -77 49.5 -132.5t114.5 -55.5q72 0 104.5 20t58.5 65l54 -36q-37 -56 -84 -83.5t-131 -27.5q-89 0 -161.5 74.5t-72.5 175.5t71.5 175.5t160.5 74.5t160.5 -74.5t71.5 -175.5h-396zM112 296h308q-17 55 -60 90.5t-94 35.5 t-94 -35.5t-60 -90.5z" />
<glyph unicode="&#xe9;" horiz-adv-x="526" d="M187 601l216 141l34 -58l-230 -117zM102 234q0 -77 49.5 -132.5t114.5 -55.5q72 0 104.5 20t58.5 65l54 -36q-37 -56 -84 -83.5t-131 -27.5q-89 0 -161.5 74.5t-72.5 175.5t71.5 175.5t160.5 74.5t160.5 -74.5t71.5 -175.5h-396zM112 296h308q-17 55 -60 90.5t-94 35.5 t-94 -35.5t-60 -90.5z" />
<glyph unicode="&#xea;" horiz-adv-x="526" d="M149 567l-19 34l135 124l136 -124l-19 -34l-117 77zM102 234q0 -77 49.5 -132.5t114.5 -55.5q72 0 104.5 20t58.5 65l54 -36q-37 -56 -84 -83.5t-131 -27.5q-89 0 -161.5 74.5t-72.5 175.5t71.5 175.5t160.5 74.5t160.5 -74.5t71.5 -175.5h-396zM112 296h308 q-17 55 -60 90.5t-94 35.5t-94 -35.5t-60 -90.5z" />
<glyph unicode="&#xeb;" horiz-adv-x="526" d="M309 613q0 23 16 38.5t38 15.5q23 0 39 -16t16 -38t-16 -38t-39 -16q-22 0 -38 15.5t-16 38.5zM114 613q0 23 15.5 38.5t38.5 15.5t39 -16t16 -38t-16 -38t-39 -16t-38.5 15.5t-15.5 38.5zM102 234q0 -77 49.5 -132.5t114.5 -55.5q72 0 104.5 20t58.5 65l54 -36 q-37 -56 -84 -83.5t-131 -27.5q-89 0 -161.5 74.5t-72.5 175.5t71.5 175.5t160.5 74.5t160.5 -74.5t71.5 -175.5h-396zM112 296h308q-17 55 -60 90.5t-94 35.5t-94 -35.5t-60 -90.5z" />
<glyph unicode="&#xec;" horiz-adv-x="194" d="M155 567l-230 117l34 58l216 -141zM63 0v468h68v-468h-68z" />
<glyph unicode="&#xed;" horiz-adv-x="194" d="M18 601l216 141l34 -58l-230 -117zM63 0v468h68v-468h-68z" />
<glyph unicode="&#xee;" horiz-adv-x="194" d="M-20 567l-19 34l135 124l136 -124l-19 -34l-117 77zM63 0v468h68v-468h-68z" />
<glyph unicode="&#xef;" horiz-adv-x="194" d="M140 613q0 23 16 38.5t38 15.5q23 0 39 -16t16 -38t-16 -38t-39 -16q-22 0 -38 15.5t-16 38.5zM-55 613q0 23 15.5 38.5t38.5 15.5t39 -16t16 -38t-16 -38t-39 -16t-38.5 15.5t-15.5 38.5zM63 0v468h68v-468h-68z" />
<glyph unicode="&#xf0;" horiz-adv-x="544" d="M34 234q0 101 71.5 175.5t160.5 74.5q71 0 136 -52q-30 73 -125 157l-52 -70l-46 34l56 72q-26 21 -74 55l42 55l72 -56l48 63l45 -34l-50 -65q88 -79 134 -173t46 -236q0 -101 -71 -175.5t-159 -74.5q-89 0 -161.5 74.5t-72.5 175.5zM101 234q0 -77 50 -132.5t115 -55.5 t114.5 55.5t49.5 132.5t-49.5 132t-114.5 55t-115 -55t-50 -132z" />
<glyph unicode="&#xf1;" horiz-adv-x="535" d="M334 634q27 0 45 20t22 43h46q-6 -47 -38.5 -88.5t-74.5 -41.5q-26 0 -47 16t-38 32t-32 16q-27 0 -45.5 -20.5t-22.5 -43.5h-45q6 47 38.5 88.5t74.5 41.5q26 0 47 -15.5t38 -31.5t32 -16zM477 296v-296h-68v296q0 53 -38 89.5t-101 36.5t-101 -54t-38 -134v-234h-68 v468h68v-42q56 58 139 58q89 0 148 -50.5t59 -137.5z" />
<glyph unicode="&#xf2;" horiz-adv-x="532" d="M324 567l-230 117l34 58l216 -141zM102 234q0 -77 49.5 -132.5t114.5 -55.5t114.5 55.5t49.5 132.5t-49.5 132.5t-114.5 55.5t-114.5 -55.5t-49.5 -132.5zM34 234q0 101 71.5 175.5t160.5 74.5t160.5 -74.5t71.5 -175.5t-71 -175.5t-159 -74.5q-89 0 -161.5 74.5 t-72.5 175.5z" />
<glyph unicode="&#xf3;" horiz-adv-x="532" d="M187 601l216 141l34 -58l-230 -117zM102 234q0 -77 49.5 -132.5t114.5 -55.5t114.5 55.5t49.5 132.5t-49.5 132.5t-114.5 55.5t-114.5 -55.5t-49.5 -132.5zM34 234q0 101 71.5 175.5t160.5 74.5t160.5 -74.5t71.5 -175.5t-71 -175.5t-159 -74.5q-89 0 -161.5 74.5 t-72.5 175.5z" />
<glyph unicode="&#xf4;" horiz-adv-x="532" d="M149 567l-19 34l135 124l136 -124l-19 -34l-117 77zM102 234q0 -77 49.5 -132.5t114.5 -55.5t114.5 55.5t49.5 132.5t-49.5 132.5t-114.5 55.5t-114.5 -55.5t-49.5 -132.5zM34 234q0 101 71.5 175.5t160.5 74.5t160.5 -74.5t71.5 -175.5t-71 -175.5t-159 -74.5 q-89 0 -161.5 74.5t-72.5 175.5z" />
<glyph unicode="&#xf5;" horiz-adv-x="532" d="M325 634q27 0 45 20t22 43h46q-6 -47 -38.5 -88.5t-74.5 -41.5q-26 0 -47 16t-38 32t-32 16q-27 0 -45.5 -20.5t-22.5 -43.5h-45q6 47 38.5 88.5t74.5 41.5q26 0 47 -15.5t38 -31.5t32 -16zM102 234q0 -77 49.5 -132.5t114.5 -55.5t114.5 55.5t49.5 132.5t-49.5 132.5 t-114.5 55.5t-114.5 -55.5t-49.5 -132.5zM34 234q0 101 71.5 175.5t160.5 74.5t160.5 -74.5t71.5 -175.5t-71 -175.5t-159 -74.5q-89 0 -161.5 74.5t-72.5 175.5z" />
<glyph unicode="&#xf6;" horiz-adv-x="532" d="M309 613q0 23 16 38.5t38 15.5q23 0 39 -16t16 -38t-16 -38t-39 -16q-22 0 -38 15.5t-16 38.5zM114 613q0 23 15.5 38.5t38.5 15.5t39 -16t16 -38t-16 -38t-39 -16t-38.5 15.5t-15.5 38.5zM102 234q0 -77 49.5 -132.5t114.5 -55.5t114.5 55.5t49.5 132.5t-49.5 132.5 t-114.5 55.5t-114.5 -55.5t-49.5 -132.5zM34 234q0 101 71.5 175.5t160.5 74.5t160.5 -74.5t71.5 -175.5t-71 -175.5t-159 -74.5q-89 0 -161.5 74.5t-72.5 175.5z" />
<glyph unicode="&#xf7;" horiz-adv-x="447" d="M166 76q0 22 16 38t38 16q23 0 39 -16t16 -38t-16.5 -38.5t-38.5 -16.5t-38 16t-16 39zM166 389q0 22 15.5 37.5t38.5 15.5t39 -15.5t16 -37.5q0 -23 -16.5 -39t-38.5 -16t-38 16t-16 39zM53 268h340v-55h-340v55z" />
<glyph unicode="&#xf8;" horiz-adv-x="533" d="M35 234q0 101 71.5 175.5t160.5 74.5q80 0 146 -60l41 44h63l-73 -77q55 -72 55 -157q0 -101 -71 -175.5t-159 -74.5q-80 0 -147 61l-42 -45h-62l73 78q-56 71 -56 156zM370 378q-47 44 -103 44q-65 0 -114.5 -55.5t-49.5 -132.5q0 -59 32 -109zM399 342l-235 -252 q46 -44 103 -44q65 0 114.5 55.5t49.5 132.5q0 60 -32 108z" />
<glyph unicode="&#xf9;" horiz-adv-x="535" d="M322 567l-230 117l34 58l216 -141zM58 172v296h67v-296q0 -53 38.5 -89.5t101.5 -36.5t100.5 53.5t37.5 133.5v235h69v-468h-69v41q-58 -58 -138 -58q-89 0 -148 51t-59 138z" />
<glyph unicode="&#xfa;" horiz-adv-x="535" d="M185 601l216 141l34 -58l-230 -117zM58 172v296h67v-296q0 -53 38.5 -89.5t101.5 -36.5t100.5 53.5t37.5 133.5v235h69v-468h-69v41q-58 -58 -138 -58q-89 0 -148 51t-59 138z" />
<glyph unicode="&#xfb;" horiz-adv-x="535" d="M147 567l-19 34l135 124l136 -124l-19 -34l-117 77zM58 172v296h67v-296q0 -53 38.5 -89.5t101.5 -36.5t100.5 53.5t37.5 133.5v235h69v-468h-69v41q-58 -58 -138 -58q-89 0 -148 51t-59 138z" />
<glyph unicode="&#xfc;" horiz-adv-x="535" d="M307 613q0 23 16 38.5t38 15.5q23 0 39 -16t16 -38t-16 -38t-39 -16q-22 0 -38 15.5t-16 38.5zM112 613q0 23 15.5 38.5t38.5 15.5t39 -16t16 -38t-16 -38t-39 -16t-38.5 15.5t-15.5 38.5zM58 172v296h67v-296q0 -53 38.5 -89.5t101.5 -36.5t100.5 53.5t37.5 133.5v235 h69v-468h-69v41q-58 -58 -138 -58q-89 0 -148 51t-59 138z" />
<glyph unicode="&#xfd;" horiz-adv-x="456" d="M148 601l216 141l34 -58l-230 -117zM228 88l153 380h74l-271 -668h-73l80 199l-190 469h74z" />
<glyph unicode="&#xfe;" horiz-adv-x="501" d="M131 -200h-68v823h68v-213q81 74 205 74q67 0 102.5 -38t35.5 -100q0 -64 -30 -124.5t-70 -101t-93.5 -77.5t-86.5 -54t-63 -30v-159zM131 311v-263q24 11 51 25.5t68.5 43.5t72.5 61t54 77.5t23 93.5q0 33 -21 52.5t-43 19.5q-119 0 -205 -110z" />
<glyph unicode="&#xff;" horiz-adv-x="456" d="M270 613q0 23 16 38.5t38 15.5q23 0 39 -16t16 -38t-16 -38t-39 -16q-22 0 -38 15.5t-16 38.5zM75 613q0 23 15.5 38.5t38.5 15.5t39 -16t16 -38t-16 -38t-39 -16t-38.5 15.5t-15.5 38.5zM228 88l153 380h74l-271 -668h-73l80 199l-190 469h74z" />
<glyph unicode="&#x100;" horiz-adv-x="576" d="M153 789h267v-45h-267v45zM328 680l248 -680h-80l-70 191h-276l-69 -191h-80l247 680v2h81zM288 570l-115 -317h231z" />
<glyph unicode="&#x101;" d="M141 631h267v-45h-267v45zM34 234q0 101 71.5 175.5t160.5 74.5q92 0 164 -78v62h68v-468h-68v61q-71 -77 -162 -77q-89 0 -161.5 74.5t-72.5 175.5zM102 234q0 -77 49.5 -132.5t114.5 -55.5t114.5 55.5t49.5 132.5t-49.5 132.5t-114.5 55.5t-114.5 -55.5t-49.5 -132.5z " />
<glyph unicode="&#x102;" horiz-adv-x="576" d="M382 856h41q-1 -6 -4 -15t-13.5 -33t-24.5 -42t-39 -33t-55 -15t-54.5 14t-39 34.5t-24.5 41t-14 34.5l-3 14h41q22 -45 42 -60q22 -17 52 -17q21 0 37 7t27.5 20.5t16.5 21.5t12 24q1 3 2 4zM328 680l248 -680h-80l-70 191h-276l-69 -191h-80l247 680v2h81zM288 570 l-115 -317h231z" />
<glyph unicode="&#x103;" d="M370 698h41q-1 -6 -4 -15t-13.5 -33t-24.5 -42t-39 -33t-55 -15t-54.5 14t-39 34.5t-24.5 41t-14 34.5l-3 14h41q22 -45 42 -60q22 -17 52 -17q21 0 37 7t27.5 20.5t16.5 21.5t12 24q1 3 2 4zM34 234q0 101 71.5 175.5t160.5 74.5q92 0 164 -78v62h68v-468h-68v61 q-71 -77 -162 -77q-89 0 -161.5 74.5t-72.5 175.5zM102 234q0 -77 49.5 -132.5t114.5 -55.5t114.5 55.5t49.5 132.5t-49.5 132.5t-114.5 55.5t-114.5 -55.5t-49.5 -132.5z" />
<glyph unicode="&#x104;" horiz-adv-x="575" d="M512 0q-39 -13 -52.5 -27.5t-13.5 -54.5q0 -68 103 -68q25 0 54 6l7 -26q-57 -16 -103 -16q-126 0 -126 95q0 88 108 112l-63 170h-276l-69 -191h-80l247 681v1h81l-1 -1l248 -681h-64zM289 570l-116 -317h231z" />
<glyph unicode="&#x105;" d="M432 -82q0 -68 103 -68q30 0 54 6l7 -26q-58 -16 -104 -16q-57 0 -91.5 23t-34.5 72q0 65 64 96v56q-71 -77 -162 -77q-89 0 -161.5 74.5t-72.5 175.5t71.5 175.5t160.5 74.5q92 0 164 -78v62h68v-468q-41 -13 -53.5 -29.5t-12.5 -52.5zM102 234q0 -77 49.5 -132.5 t114.5 -55.5t114.5 55.5t49.5 132.5t-49.5 132.5t-114.5 55.5t-114.5 -55.5t-49.5 -132.5z" />
<glyph unicode="&#x106;" horiz-adv-x="573" d="M242 759l216 141l34 -58l-230 -117zM546 144q-93 -160 -227 -160q-114 0 -194.5 105.5t-80.5 250.5t80.5 251t194.5 106q124 0 215 -140l-59 -42q-69 114 -156 114t-143 -86t-56 -203t56 -202t143 -85q94 0 162 126z" />
<glyph unicode="&#x107;" horiz-adv-x="477" d="M189 601l216 141l34 -58l-230 -117zM454 74q-36 -45 -78.5 -67.5t-107.5 -22.5q-89 0 -161.5 74.5t-72.5 175.5t71.5 175.5t160.5 74.5q49 0 96 -25.5t81 -68.5l-50 -39q-50 71 -127 71q-65 0 -114.5 -55.5t-49.5 -132.5t49.5 -132.5t114.5 -55.5q52 0 80.5 15.5 t54.5 49.5z" />
<glyph unicode="&#x108;" horiz-adv-x="573" d="M204 725l-19 34l135 124l136 -124l-19 -34l-117 77zM546 144q-93 -160 -227 -160q-114 0 -194.5 105.5t-80.5 250.5t80.5 251t194.5 106q124 0 215 -140l-59 -42q-69 114 -156 114t-143 -86t-56 -203t56 -202t143 -85q94 0 162 126z" />
<glyph unicode="&#x109;" horiz-adv-x="477" d="M151 567l-19 34l135 124l136 -124l-19 -34l-117 77zM454 74q-36 -45 -78.5 -67.5t-107.5 -22.5q-89 0 -161.5 74.5t-72.5 175.5t71.5 175.5t160.5 74.5q49 0 96 -25.5t81 -68.5l-50 -39q-50 71 -127 71q-65 0 -114.5 -55.5t-49.5 -132.5t49.5 -132.5t114.5 -55.5 q52 0 80.5 15.5t54.5 49.5z" />
<glyph unicode="&#x10a;" horiz-adv-x="573" d="M267 771q0 23 15.5 38.5t37.5 15.5q23 0 39 -16t16 -38t-16 -38t-39 -16q-22 0 -37.5 15.5t-15.5 38.5zM546 144q-93 -160 -227 -160q-114 0 -194.5 105.5t-80.5 250.5t80.5 251t194.5 106q124 0 215 -140l-59 -42q-69 114 -156 114t-143 -86t-56 -203t56 -202t143 -85 q94 0 162 126z" />
<glyph unicode="&#x10b;" horiz-adv-x="477" d="M214 613q0 23 15.5 38.5t37.5 15.5q23 0 39 -16t16 -38t-16 -38t-39 -16q-22 0 -37.5 15.5t-15.5 38.5zM454 74q-36 -45 -78.5 -67.5t-107.5 -22.5q-89 0 -161.5 74.5t-72.5 175.5t71.5 175.5t160.5 74.5q49 0 96 -25.5t81 -68.5l-50 -39q-50 71 -127 71 q-65 0 -114.5 -55.5t-49.5 -132.5t49.5 -132.5t114.5 -55.5q52 0 80.5 15.5t54.5 49.5z" />
<glyph unicode="&#x10c;" horiz-adv-x="573" d="M437 883l19 -34l-136 -124l-135 124l19 34l116 -77zM546 144q-93 -160 -227 -160q-114 0 -194.5 105.5t-80.5 250.5t80.5 251t194.5 106q124 0 215 -140l-59 -42q-69 114 -156 114t-143 -86t-56 -203t56 -202t143 -85q94 0 162 126z" />
<glyph unicode="&#x10d;" horiz-adv-x="477" d="M384 725l19 -34l-136 -124l-135 124l19 34l116 -77zM454 74q-36 -45 -78.5 -67.5t-107.5 -22.5q-89 0 -161.5 74.5t-72.5 175.5t71.5 175.5t160.5 74.5q49 0 96 -25.5t81 -68.5l-50 -39q-50 71 -127 71q-65 0 -114.5 -55.5t-49.5 -132.5t49.5 -132.5t114.5 -55.5 q52 0 80.5 15.5t54.5 49.5z" />
<glyph unicode="&#x10e;" horiz-adv-x="610" d="M389 883l19 -34l-136 -124l-135 124l19 34l116 -77zM79 0v682h149q66 0 125.5 -20.5t107.5 -60.5t76 -107.5t28 -153.5t-28 -153t-76 -107t-107 -60t-126 -20h-149zM154 613v-545h52q134 0 207 67t73 205t-73 205.5t-207 67.5h-52z" />
<glyph unicode="&#x10f;" d="M540 680q0 23 16 38.5t38 15.5t38 -15.5t16 -38.5q0 -34 -9.5 -64t-22.5 -48t-26 -31.5t-22 -19.5l-10 -5l-17 10q38 38 53 103q-22 0 -38 16t-16 39zM34 234q0 101 71.5 175.5t160.5 74.5q92 0 164 -78v320h68v-726h-68v61q-71 -77 -162 -77q-89 0 -161.5 74.5 t-72.5 175.5zM102 234q0 -77 49.5 -132.5t114.5 -55.5t114.5 55.5t49.5 132.5t-49.5 132.5t-114.5 55.5t-114.5 -55.5t-49.5 -132.5z" />
<glyph unicode="&#x110;" horiz-adv-x="612" d="M156 309v-241h52q134 0 207 67t73 205t-73 205.5t-207 67.5h-52v-242h127v-62h-127zM81 309h-60v62h60v311h149q66 0 125.5 -20.5t107.5 -60.5t76 -107.5t28 -153.5t-28 -153t-76 -107t-107 -60t-126 -20h-149v309z" />
<glyph unicode="&#x111;" d="M102 234q0 -77 49.5 -132.5t114.5 -55.5t114.5 55.5t49.5 132.5t-49.5 132.5t-114.5 55.5t-114.5 -55.5t-49.5 -132.5zM34 234q0 101 71.5 175.5t160.5 74.5q92 0 164 -78v161h-141v63h141v96h68v-96h53v-63h-53v-567h-68v61q-71 -77 -162 -77q-89 0 -161.5 74.5 t-72.5 175.5z" />
<glyph unicode="&#x112;" horiz-adv-x="503" d="M144 789h267v-45h-267v45zM79 0v682h382v-63h-307v-218h240v-61h-240v-278h310v-62h-385z" />
<glyph unicode="&#x113;" horiz-adv-x="526" d="M131 631h267v-45h-267v45zM102 234q0 -77 49.5 -132.5t114.5 -55.5q72 0 104.5 20t58.5 65l54 -36q-37 -56 -84 -83.5t-131 -27.5q-89 0 -161.5 74.5t-72.5 175.5t71.5 175.5t160.5 74.5t160.5 -74.5t71.5 -175.5h-396zM112 296h308q-17 55 -60 90.5t-94 35.5t-94 -35.5 t-60 -90.5z" />
<glyph unicode="&#x114;" horiz-adv-x="503" d="M380 856h41q-1 -6 -4 -15t-13.5 -33t-24.5 -42t-39 -33t-55 -15t-54.5 14t-39 34.5t-24.5 41t-14 34.5l-3 14h41q22 -45 42 -60q22 -17 52 -17q21 0 37 7t27.5 20.5t16.5 21.5t12 24q1 3 2 4zM79 0v682h382v-63h-307v-218h240v-61h-240v-278h310v-62h-385z" />
<glyph unicode="&#x115;" horiz-adv-x="526" d="M360 698h41q-1 -6 -4 -15t-13.5 -33t-24.5 -42t-39 -33t-55 -15t-54.5 14t-39 34.5t-24.5 41t-14 34.5l-3 14h41q22 -45 42 -60q22 -17 52 -17q21 0 37 7t27.5 20.5t16.5 21.5t12 24q1 3 2 4zM102 234q0 -77 49.5 -132.5t114.5 -55.5q72 0 104.5 20t58.5 65l54 -36 q-37 -56 -84 -83.5t-131 -27.5q-89 0 -161.5 74.5t-72.5 175.5t71.5 175.5t160.5 74.5t160.5 -74.5t71.5 -175.5h-396zM112 296h308q-17 55 -60 90.5t-94 35.5t-94 -35.5t-60 -90.5z" />
<glyph unicode="&#x116;" horiz-adv-x="503" d="M232 771q0 23 15.5 38.5t37.5 15.5q23 0 39 -16t16 -38t-16 -38t-39 -16q-22 0 -37.5 15.5t-15.5 38.5zM79 0v682h382v-63h-307v-218h240v-61h-240v-278h310v-62h-385z" />
<glyph unicode="&#x117;" horiz-adv-x="526" d="M212 613q0 23 15.5 38.5t37.5 15.5q23 0 39 -16t16 -38t-16 -38t-39 -16q-22 0 -37.5 15.5t-15.5 38.5zM102 234q0 -77 49.5 -132.5t114.5 -55.5q72 0 104.5 20t58.5 65l54 -36q-37 -56 -84 -83.5t-131 -27.5q-89 0 -161.5 74.5t-72.5 175.5t71.5 175.5t160.5 74.5 t160.5 -74.5t71.5 -175.5h-396zM112 296h308q-17 55 -60 90.5t-94 35.5t-94 -35.5t-60 -90.5z" />
<glyph unicode="&#x118;" horiz-adv-x="503" d="M337 -82q0 -68 103 -68q30 0 54 6l7 -26q-58 -16 -104 -16q-57 0 -91.5 23t-34.5 72q0 60 54 91h-246v682h382v-63h-307v-218h240v-61h-240v-278h310v-62h-61q-41 -13 -53.5 -29.5t-12.5 -52.5z" />
<glyph unicode="&#x119;" horiz-adv-x="528" d="M284 -82q0 -68 103 -68q30 0 54 6l7 -26q-58 -16 -104 -16q-57 0 -91.5 23t-34.5 72q0 47 33 76q-84 9 -150 81t-66 168q0 101 71.5 175.5t160.5 74.5t160.5 -74.5t71.5 -175.5h-396q0 -77 49.5 -132.5t114.5 -55.5q72 0 104.5 20t58.5 65l54 -36q-32 -48 -69.5 -74.5 t-98.5 -33.5q-19 -11 -25.5 -26t-6.5 -43zM113 296h308q-17 55 -60 90.5t-94 35.5t-94 -35.5t-60 -90.5z" />
<glyph unicode="&#x11a;" horiz-adv-x="503" d="M402 883l19 -34l-136 -124l-135 124l19 34l116 -77zM79 0v682h382v-63h-307v-218h240v-61h-240v-278h310v-62h-385z" />
<glyph unicode="&#x11b;" horiz-adv-x="526" d="M382 725l19 -34l-136 -124l-135 124l19 34l116 -77zM102 234q0 -77 49.5 -132.5t114.5 -55.5q72 0 104.5 20t58.5 65l54 -36q-37 -56 -84 -83.5t-131 -27.5q-89 0 -161.5 74.5t-72.5 175.5t71.5 175.5t160.5 74.5t160.5 -74.5t71.5 -175.5h-396zM112 296h308 q-17 55 -60 90.5t-94 35.5t-94 -35.5t-60 -90.5z" />
<glyph unicode="&#x11c;" horiz-adv-x="607" d="M207 725l-19 34l135 124l136 -124l-19 -34l-117 77zM329 291v62h235v-62q0 -161 -66.5 -234t-192.5 -73q-113 0 -187 104.5t-74 251.5t79 252t201 105q77 0 125.5 -34.5t94.5 -105.5l-60 -42q-34 57 -69 85.5t-91 28.5q-92 0 -148 -85.5t-56 -203.5q0 -119 49.5 -203 t135.5 -84q45 0 74.5 8t57 32t40.5 73t13 125h-161z" />
<glyph unicode="&#x11d;" d="M149 567l-19 34l135 124l136 -124l-19 -34l-117 77zM34 234q0 101 71.5 175.5t160.5 74.5q92 0 164 -78v62h68v-450q0 -109 -56.5 -163.5t-149.5 -54.5h-154v62h154q66 0 102 39.5t36 116.5v43q-71 -77 -162 -77q-89 0 -161.5 74.5t-72.5 175.5zM102 234 q0 -77 49.5 -132.5t114.5 -55.5t114.5 55.5t49.5 132.5t-49.5 132.5t-114.5 55.5t-114.5 -55.5t-49.5 -132.5z" />
<glyph unicode="&#x11e;" horiz-adv-x="607" d="M418 856h41q-1 -6 -4 -15t-13.5 -33t-24.5 -42t-39 -33t-55 -15t-54.5 14t-39 34.5t-24.5 41t-14 34.5l-3 14h41q22 -45 42 -60q22 -17 52 -17q21 0 37 7t27.5 20.5t16.5 21.5t12 24q1 3 2 4zM329 291v62h235v-62q0 -161 -66.5 -234t-192.5 -73q-113 0 -187 104.5 t-74 251.5t79 252t201 105q77 0 125.5 -34.5t94.5 -105.5l-60 -42q-34 57 -69 85.5t-91 28.5q-92 0 -148 -85.5t-56 -203.5q0 -119 49.5 -203t135.5 -84q45 0 74.5 8t57 32t40.5 73t13 125h-161z" />
<glyph unicode="&#x11f;" d="M360 698h41q-1 -6 -4 -15t-13.5 -33t-24.5 -42t-39 -33t-55 -15t-54.5 14t-39 34.5t-24.5 41t-14 34.5l-3 14h41q22 -45 42 -60q22 -17 52 -17q21 0 37 7t27.5 20.5t16.5 21.5t12 24q1 3 2 4zM34 234q0 101 71.5 175.5t160.5 74.5q92 0 164 -78v62h68v-450 q0 -109 -56.5 -163.5t-149.5 -54.5h-154v62h154q66 0 102 39.5t36 116.5v43q-71 -77 -162 -77q-89 0 -161.5 74.5t-72.5 175.5zM102 234q0 -77 49.5 -132.5t114.5 -55.5t114.5 55.5t49.5 132.5t-49.5 132.5t-114.5 55.5t-114.5 -55.5t-49.5 -132.5z" />
<glyph unicode="&#x120;" horiz-adv-x="607" d="M270 771q0 23 15.5 38.5t37.5 15.5q23 0 39 -16t16 -38t-16 -38t-39 -16q-22 0 -37.5 15.5t-15.5 38.5zM329 291v62h235v-62q0 -161 -66.5 -234t-192.5 -73q-113 0 -187 104.5t-74 251.5t79 252t201 105q77 0 125.5 -34.5t94.5 -105.5l-60 -42q-34 57 -69 85.5t-91 28.5 q-92 0 -148 -85.5t-56 -203.5q0 -119 49.5 -203t135.5 -84q45 0 74.5 8t57 32t40.5 73t13 125h-161z" />
<glyph unicode="&#x121;" d="M212 613q0 23 15.5 38.5t37.5 15.5q23 0 39 -16t16 -38t-16 -38t-39 -16q-22 0 -37.5 15.5t-15.5 38.5zM34 234q0 101 71.5 175.5t160.5 74.5q92 0 164 -78v62h68v-450q0 -109 -56.5 -163.5t-149.5 -54.5h-154v62h154q66 0 102 39.5t36 116.5v43q-71 -77 -162 -77 q-89 0 -161.5 74.5t-72.5 175.5zM102 234q0 -77 49.5 -132.5t114.5 -55.5t114.5 55.5t49.5 132.5t-49.5 132.5t-114.5 55.5t-114.5 -55.5t-49.5 -132.5z" />
<glyph unicode="&#x122;" horiz-adv-x="607" d="M253 -92q0 22 15.5 37.5t38.5 15.5t38.5 -15.5t15.5 -37.5q0 -34 -9.5 -64t-23 -48t-26.5 -31.5t-23 -18.5l-9 -6l-16 10q38 38 53 103q-22 0 -38 16t-16 39zM329 291v62h235v-62q0 -161 -66.5 -234t-192.5 -73q-113 0 -187 104.5t-74 251.5t79 252t201 105 q77 0 125.5 -34.5t94.5 -105.5l-60 -42q-34 57 -69 85.5t-91 28.5q-92 0 -148 -85.5t-56 -203.5q0 -119 49.5 -203t135.5 -84q45 0 74.5 8t57 32t40.5 73t13 125h-161z" />
<glyph unicode="&#x123;" d="M319 613q0 -22 -15.5 -37.5t-38.5 -15.5t-38.5 15.5t-15.5 37.5q0 34 9.5 64t23 48t26.5 31.5t23 19.5l9 5l16 -10q-38 -38 -53 -103q22 0 38 -16t16 -39zM34 234q0 101 71.5 175.5t160.5 74.5q92 0 164 -78v62h68v-450q0 -109 -56.5 -163.5t-149.5 -54.5h-154v62h154 q66 0 102 39.5t36 116.5v43q-71 -77 -162 -77q-89 0 -161.5 74.5t-72.5 175.5zM102 234q0 -77 49.5 -132.5t114.5 -55.5t114.5 55.5t49.5 132.5t-49.5 132.5t-114.5 55.5t-114.5 -55.5t-49.5 -132.5z" />
<glyph unicode="&#x124;" horiz-adv-x="608" d="M191 725l-19 34l135 124l136 -124l-19 -34l-117 77zM79 0v682h75v-295h300v295h75v-682h-75v325h-300v-325h-75z" />
<glyph unicode="&#x125;" horiz-adv-x="535" d="M-5 764l-19 34l135 124l136 -124l-19 -34l-117 77zM477 296v-296h-68v296q0 53 -38 89.5t-101 36.5t-101 -54t-38 -134v-234h-68v726h68v-301q57 59 139 59q89 0 148 -50.5t59 -137.5z" />
<glyph unicode="&#x126;" horiz-adv-x="608" d="M529 529v-529h-75v325h-300v-325h-75v529h-43v38h43v115h75v-115h300v115h75v-115h45v-38h-45zM454 529h-300v-142h300v142z" />
<glyph unicode="&#x127;" horiz-adv-x="535" d="M477 296v-296h-68v296q0 53 -38 89.5t-101 36.5t-101 -54t-38 -134v-234h-68v567h-44v63h44v96h68v-96h149v-63h-149v-142q57 59 139 59q89 0 148 -50.5t59 -137.5z" />
<glyph unicode="&#x128;" horiz-adv-x="253" d="M187 792q27 0 45 20t22 43h46q-6 -47 -38.5 -88.5t-74.5 -41.5q-26 0 -47 16t-38 32t-32 16q-27 0 -45.5 -20.5t-22.5 -43.5h-45q6 47 38.5 88.5t74.5 41.5q26 0 47 -15.5t38 -31.5t32 -16zM164 616v-550h36v-66h-147v66h36v550h-36v66h147v-66h-36z" />
<glyph unicode="&#x129;" horiz-adv-x="194" d="M156 634q27 0 45 20t22 43h46q-6 -47 -38.5 -88.5t-74.5 -41.5q-26 0 -47 16t-38 32t-32 16q-27 0 -45.5 -20.5t-22.5 -43.5h-45q6 47 38.5 88.5t74.5 41.5q26 0 47 -15.5t38 -31.5t32 -16zM63 0v468h68v-468h-68z" />
<glyph unicode="&#x12a;" horiz-adv-x="253" d="M-7 789h267v-45h-267v45zM164 616v-550h36v-66h-147v66h36v550h-36v66h147v-66h-36z" />
<glyph unicode="&#x12b;" horiz-adv-x="194" d="M-38 631h267v-45h-267v45zM63 0v468h68v-468h-68z" />
<glyph unicode="&#x12c;" horiz-adv-x="253" d="M222 856h41q-1 -6 -4 -15t-13.5 -33t-24.5 -42t-39 -33t-55 -15t-54.5 14t-39 34.5t-24.5 41t-14 34.5l-3 14h41q22 -45 42 -60q22 -17 52 -17q21 0 37 7t27.5 20.5t16.5 21.5t12 24q1 3 2 4zM164 616v-550h36v-66h-147v66h36v550h-36v66h147v-66h-36z" />
<glyph unicode="&#x12d;" horiz-adv-x="194" d="M191 698h41q-1 -6 -4 -15t-13.5 -33t-24.5 -42t-39 -33t-55 -15t-54.5 14t-39 34.5t-24.5 41t-14 34.5l-3 14h41q22 -45 42 -60q22 -17 52 -17q21 0 37 7t27.5 20.5t16.5 21.5t12 24q1 3 2 4zM63 0v468h68v-468h-68z" />
<glyph unicode="&#x12e;" horiz-adv-x="253" d="M134 -82q0 -68 103 -68q30 0 54 6l7 -26q-58 -16 -104 -16q-57 0 -91.5 23t-34.5 72q0 60 55 91h-70v66h36v550h-36v66h147v-66h-36v-550h36v-66q-41 -13 -53.5 -29.5t-12.5 -52.5z" />
<glyph unicode="&#x12f;" horiz-adv-x="194" d="M65 -82q0 -68 103 -68q30 0 54 6l7 -26q-58 -16 -104 -16q-57 0 -91.5 23t-34.5 72q0 65 64 96v463h68v-468q-41 -13 -53.5 -29.5t-12.5 -52.5zM43 613q0 23 15.5 38.5t38.5 15.5t38.5 -15.5t15.5 -38.5t-15.5 -38.5t-38.5 -15.5t-38.5 15.5t-15.5 38.5z" />
<glyph unicode="&#x130;" horiz-adv-x="253" d="M74 771q0 23 15.5 38.5t37.5 15.5q23 0 39 -16t16 -38t-16 -38t-39 -16q-22 0 -37.5 15.5t-15.5 38.5zM164 616v-550h36v-66h-147v66h36v550h-36v66h147v-66h-36z" />
<glyph unicode="&#x131;" horiz-adv-x="194" d="M63 0v468h68v-468h-68z" />
<glyph unicode="&#x134;" horiz-adv-x="490" d="M264 725l-19 34l135 124l136 -124l-19 -34l-117 77zM75 157q15 -48 48.5 -75.5t79.5 -27.5q138 0 138 151v477h75v-477q0 -100 -61 -160.5t-150 -60.5q-61 0 -113.5 39.5t-79.5 103.5z" />
<glyph unicode="&#x135;" horiz-adv-x="194" d="M-18 567l-19 34l135 124l136 -124l-19 -34l-117 77zM-45 -138h28q34 0 57 25.5t23 60.5v520h68v-520q0 -62 -43.5 -105t-104.5 -43h-28v62z" />
<glyph unicode="&#x136;" horiz-adv-x="533" d="M246 -92q0 22 15.5 37.5t38.5 15.5t38.5 -15.5t15.5 -37.5q0 -34 -9.5 -64t-23 -48t-26.5 -31.5t-23 -18.5l-9 -6l-16 10q38 38 53 103q-22 0 -38 16t-16 39zM79 0v682h75v-321l269 321h97l-254 -303l265 -379h-91l-224 320l-62 -74v-246h-75z" />
<glyph unicode="&#x137;" horiz-adv-x="436" d="M183 -91q0 22 15.5 37.5t38.5 15.5t38.5 -15.5t15.5 -37.5q0 -34 -9.5 -64t-23 -48t-26.5 -31.5t-23 -18.5l-9 -6l-16 10q38 38 53 103q-22 0 -38 16t-16 39zM63 0v726h68v-444l185 186h98l-180 -180l194 -288h-83l-160 239l-54 -53v-186h-68z" />
<glyph unicode="&#x138;" horiz-adv-x="460" d="M63 0v468h68v-214q35 5 59.5 23.5t37 42t28 50t31.5 48t48 36t77 14.5q0 -15 0.5 -36.5t0.5 -37.5q-32 0 -55 -16t-35 -36t-30.5 -51t-35.5 -50q85 -47 131.5 -119t46.5 -122h-81q0 14 -6.5 34.5t-22 50t-49.5 59.5t-81 52q-32 -12 -64 -15v-181h-68z" />
<glyph unicode="&#x139;" horiz-adv-x="436" d="M39 759l216 141l34 -58l-230 -117zM79 0v682h75v-620h267v-62h-342z" />
<glyph unicode="&#x13a;" horiz-adv-x="204" d="M24 798l216 141l34 -58l-230 -117zM68 0v726h68v-726h-68z" />
<glyph unicode="&#x13b;" horiz-adv-x="436" d="M201 -91q0 22 15.5 37.5t38.5 15.5t38.5 -15.5t15.5 -37.5q0 -34 -9.5 -64t-23 -48t-26.5 -31.5t-23 -18.5l-9 -6l-16 10q38 38 53 103q-22 0 -38 16t-16 39zM79 0v682h75v-620h267v-62h-342z" />
<glyph unicode="&#x13c;" horiz-adv-x="204" d="M47 -91q0 22 15.5 37.5t38.5 15.5t38.5 -15.5t15.5 -37.5q0 -34 -9.5 -64t-23 -48t-26.5 -31.5t-23 -18.5l-9 -6l-16 10q38 38 53 103q-22 0 -38 16t-16 39zM68 0v726h68v-726h-68z" />
<glyph unicode="&#x13d;" horiz-adv-x="436" d="M257 636q0 23 16 38.5t38 15.5t38 -15.5t16 -38.5q0 -34 -9.5 -64t-22.5 -48t-26 -31.5t-22 -19.5l-10 -5l-17 10q38 38 53 103q-22 0 -38 16t-16 39zM79 0v682h75v-620h267v-62h-342z" />
<glyph unicode="&#x13e;" horiz-adv-x="204" d="M176 680q0 23 16 38.5t38 15.5t38 -15.5t16 -38.5q0 -34 -9.5 -64t-22.5 -48t-26 -31.5t-22 -19.5l-10 -5l-17 10q38 38 53 103q-22 0 -38 16t-16 39zM68 0v726h68v-726h-68z" />
<glyph unicode="&#x13f;" horiz-adv-x="436" d="M313 348q0 22 16 38t38 16t38 -16t16 -38q0 -23 -16 -39t-38 -16t-38 16t-16 39zM79 0v682h75v-620h267v-62h-342z" />
<glyph unicode="&#x140;" horiz-adv-x="252" d="M174 348q0 22 16 38t38 16t38 -16t16 -38q0 -23 -16 -39t-38 -16t-38 16t-16 39zM68 0v726h68v-726h-68z" />
<glyph unicode="&#x141;" horiz-adv-x="441" d="M159 392v-330h267v-62h-342v339l-56 -39l-23 32l79 56v294h75v-242l84 59l23 -32z" />
<glyph unicode="&#x142;" horiz-adv-x="226" d="M148 396v-396h-68v349l-70 -49l-23 32l93 65v329h68v-281l77 54l23 -32z" />
<glyph unicode="&#x143;" horiz-adv-x="629" d="M241 759l216 141l34 -58l-230 -117zM79 0v682h75l322 -559v559h74v-682h-74l-322 557v-557h-75z" />
<glyph unicode="&#x144;" horiz-adv-x="535" d="M196 601l216 141l34 -58l-230 -117zM477 296v-296h-68v296q0 53 -38 89.5t-101 36.5t-101 -54t-38 -134v-234h-68v468h68v-42q56 58 139 58q89 0 148 -50.5t59 -137.5z" />
<glyph unicode="&#x145;" horiz-adv-x="629" d="M254 -91q0 22 15.5 37.5t38.5 15.5t38.5 -15.5t15.5 -37.5q0 -34 -9.5 -64t-23 -48t-26.5 -31.5t-23 -18.5l-9 -6l-16 10q38 38 53 103q-22 0 -38 16t-16 39zM79 0v682h75l322 -559v559h74v-682h-74l-322 557v-557h-75z" />
<glyph unicode="&#x146;" horiz-adv-x="535" d="M215 -91q0 22 15.5 37.5t38.5 15.5t38.5 -15.5t15.5 -37.5q0 -34 -9.5 -64t-23 -48t-26.5 -31.5t-23 -18.5l-9 -6l-16 10q38 38 53 103q-22 0 -38 16t-16 39zM477 296v-296h-68v296q0 53 -38 89.5t-101 36.5t-101 -54t-38 -134v-234h-68v468h68v-42q56 58 139 58 q89 0 148 -50.5t59 -137.5z" />
<glyph unicode="&#x147;" horiz-adv-x="629" d="M436 883l19 -34l-136 -124l-135 124l19 34l116 -77zM79 0v682h75l322 -559v559h74v-682h-74l-322 557v-557h-75z" />
<glyph unicode="&#x148;" horiz-adv-x="535" d="M391 725l19 -34l-136 -124l-135 124l19 34l116 -77zM477 296v-296h-68v296q0 53 -38 89.5t-101 36.5t-101 -54t-38 -134v-234h-68v468h68v-42q56 58 139 58q89 0 148 -50.5t59 -137.5z" />
<glyph unicode="&#x14a;" horiz-adv-x="621" d="M568 305q0 -138 -55.5 -221.5t-162.5 -83.5h-28v62h28q64 0 101.5 65.5t37.5 177.5v93q0 102 -40 166.5t-125 64.5t-125 -64.5t-40 -166.5v-398h-80v682h75v-51q63 66 170 66q115 0 179.5 -78t64.5 -221v-93z" />
<glyph unicode="&#x14b;" horiz-adv-x="535" d="M477 -21q0 -62 -43.5 -105.5t-104.5 -43.5h-80v63h80q34 0 57 25.5t23 60.5v317q0 53 -38 89.5t-101 36.5t-101 -54t-38 -134v-234h-68v468h68v-43q57 59 139 59q89 0 148 -50.5t59 -137.5v-317z" />
<glyph unicode="&#x14c;" horiz-adv-x="670" d="M201 789h267v-45h-267v45zM121 340q0 -114 62.5 -200.5t151.5 -86.5t151.5 86.5t62.5 200.5q0 115 -63 202t-151 87t-151 -87t-63 -202zM42 340q0 143 88.5 250t204.5 107t204.5 -107t88.5 -250t-88.5 -249.5t-204.5 -106.5t-204.5 106.5t-88.5 249.5z" />
<glyph unicode="&#x14d;" horiz-adv-x="532" d="M131 631h267v-45h-267v45zM102 234q0 -77 49.5 -132.5t114.5 -55.5t114.5 55.5t49.5 132.5t-49.5 132.5t-114.5 55.5t-114.5 -55.5t-49.5 -132.5zM34 234q0 101 71.5 175.5t160.5 74.5t160.5 -74.5t71.5 -175.5t-71 -175.5t-159 -74.5q-89 0 -161.5 74.5t-72.5 175.5z " />
<glyph unicode="&#x14e;" horiz-adv-x="670" d="M430 856h41q-1 -6 -4 -15t-13.5 -33t-24.5 -42t-39 -33t-55 -15t-54.5 14t-39 34.5t-24.5 41t-14 34.5l-3 14h41q22 -45 42 -60q22 -17 52 -17q21 0 37 7t27.5 20.5t16.5 21.5t12 24q1 3 2 4zM121 340q0 -114 62.5 -200.5t151.5 -86.5t151.5 86.5t62.5 200.5 q0 115 -63 202t-151 87t-151 -87t-63 -202zM42 340q0 143 88.5 250t204.5 107t204.5 -107t88.5 -250t-88.5 -249.5t-204.5 -106.5t-204.5 106.5t-88.5 249.5z" />
<glyph unicode="&#x14f;" horiz-adv-x="532" d="M360 698h41q-1 -6 -4 -15t-13.5 -33t-24.5 -42t-39 -33t-55 -15t-54.5 14t-39 34.5t-24.5 41t-14 34.5l-3 14h41q22 -45 42 -60q22 -17 52 -17q21 0 37 7t27.5 20.5t16.5 21.5t12 24q1 3 2 4zM102 234q0 -77 49.5 -132.5t114.5 -55.5t114.5 55.5t49.5 132.5t-49.5 132.5 t-114.5 55.5t-114.5 -55.5t-49.5 -132.5zM34 234q0 101 71.5 175.5t160.5 74.5t160.5 -74.5t71.5 -175.5t-71 -175.5t-159 -74.5q-89 0 -161.5 74.5t-72.5 175.5z" />
<glyph unicode="&#x150;" horiz-adv-x="670" d="M389 745l172 192l48 -48l-192 -171zM217 745l172 192l48 -48l-192 -171zM121 340q0 -114 62.5 -200.5t151.5 -86.5t151.5 86.5t62.5 200.5q0 115 -63 202t-151 87t-151 -87t-63 -202zM42 340q0 143 88.5 250t204.5 107t204.5 -107t88.5 -250t-88.5 -249.5t-204.5 -106.5 t-204.5 106.5t-88.5 249.5z" />
<glyph unicode="&#x151;" horiz-adv-x="532" d="M320 587l172 192l48 -48l-192 -171zM148 587l172 192l48 -48l-192 -171zM102 234q0 -77 49.5 -132.5t114.5 -55.5t114.5 55.5t49.5 132.5t-49.5 132.5t-114.5 55.5t-114.5 -55.5t-49.5 -132.5zM34 234q0 101 71.5 175.5t160.5 74.5t160.5 -74.5t71.5 -175.5t-71 -175.5 t-159 -74.5q-89 0 -161.5 74.5t-72.5 175.5z" />
<glyph unicode="&#x152;" horiz-adv-x="830" d="M418 0q-43 -16 -83 -16q-116 0 -204.5 106.5t-88.5 249.5t88.5 250t204.5 107q41 0 80 -15h373v-63h-307v-218h240v-61h-240v-278h310v-62h-373zM406 70v543q-32 16 -71 16q-88 0 -151 -87t-63 -202q0 -114 62.5 -200.5t151.5 -86.5q37 0 71 17z" />
<glyph unicode="&#x153;" horiz-adv-x="922" d="M102 234q0 -77 49.5 -132.5t114.5 -55.5t114.5 55.5t49.5 132.5t-49.5 132.5t-114.5 55.5t-114.5 -55.5t-49.5 -132.5zM34 234q0 101 71.5 175.5t160.5 74.5q58 0 112 -34.5t86 -90.5q32 56 86 90.5t112 34.5q89 0 160.5 -74.5t71.5 -175.5h-396q0 -77 49.5 -132.5 t114.5 -55.5q72 0 104.5 20t58.5 65l54 -36q-37 -56 -84 -83.5t-131 -27.5q-57 0 -111.5 34t-87.5 91q-32 -56 -85.5 -90.5t-111.5 -34.5q-89 0 -161.5 74.5t-72.5 175.5zM508 296h308q-17 55 -60 90.5t-94 35.5t-94 -35.5t-60 -90.5z" />
<glyph unicode="&#x154;" horiz-adv-x="581" d="M221 759l216 141l34 -58l-230 -117zM79 0v682h218q61 0 113.5 -20.5t89 -67.5t36.5 -113q0 -76 -44.5 -124t-114.5 -66l168 -291h-83l-162 281h-1h-145v-281h-75zM154 619v-275h143q68 0 112.5 35.5t44.5 101.5t-44.5 102t-112.5 36h-143z" />
<glyph unicode="&#x155;" horiz-adv-x="435" d="M167 601l216 141l34 -58l-230 -117zM375 344q-32 78 -115 78q-62 0 -95.5 -53t-33.5 -135v-234h-68v468h68v-37q53 53 129 53q131 0 177 -110z" />
<glyph unicode="&#x156;" horiz-adv-x="581" d="M242 -91q0 22 15.5 37.5t38.5 15.5t38.5 -15.5t15.5 -37.5q0 -34 -9.5 -64t-23 -48t-26.5 -31.5t-23 -18.5l-9 -6l-16 10q38 38 53 103q-22 0 -38 16t-16 39zM79 0v682h218q61 0 113.5 -20.5t89 -67.5t36.5 -113q0 -76 -44.5 -124t-114.5 -66l168 -291h-83l-162 281h-1 h-145v-281h-75zM154 619v-275h143q68 0 112.5 35.5t44.5 101.5t-44.5 102t-112.5 36h-143z" />
<glyph unicode="&#x157;" horiz-adv-x="435" d="M41 -91q0 22 15.5 37.5t38.5 15.5t38.5 -15.5t15.5 -37.5q0 -34 -9.5 -64t-23 -48t-26.5 -31.5t-23 -18.5l-9 -6l-16 10q38 38 53 103q-22 0 -38 16t-16 39zM375 344q-32 78 -115 78q-62 0 -95.5 -53t-33.5 -135v-234h-68v468h68v-37q53 53 129 53q131 0 177 -110z" />
<glyph unicode="&#x158;" horiz-adv-x="581" d="M416 883l19 -34l-136 -124l-135 124l19 34l116 -77zM79 0v682h218q61 0 113.5 -20.5t89 -67.5t36.5 -113q0 -76 -44.5 -124t-114.5 -66l168 -291h-83l-162 281h-1h-145v-281h-75zM154 619v-275h143q68 0 112.5 35.5t44.5 101.5t-44.5 102t-112.5 36h-143z" />
<glyph unicode="&#x159;" horiz-adv-x="435" d="M362 725l19 -34l-136 -124l-135 124l19 34l116 -77zM375 344q-32 78 -115 78q-62 0 -95.5 -53t-33.5 -135v-234h-68v468h68v-37q53 53 129 53q131 0 177 -110z" />
<glyph unicode="&#x15a;" horiz-adv-x="552" d="M201 759l216 141l34 -58l-230 -117zM278 307q-108 29 -164.5 76t-56.5 129q0 90 57 137.5t162 47.5q127 0 218 -117l-56 -47q-71 96 -162 96q-77 0 -110 -28t-33 -89q0 -23 7.5 -41.5t16 -29.5t28.5 -21t31.5 -14.5t39.5 -13t38 -11.5q102 -35 133 -53q87 -51 87 -158 q0 -89 -67 -137.5t-184 -48.5q-66 0 -128 38t-104 103l59 42q30 -50 77 -82t96 -32q90 0 132.5 28.5t42.5 88.5q0 59 -36.5 86.5t-123.5 50.5z" />
<glyph unicode="&#x15b;" horiz-adv-x="464" d="M162 601l216 141l34 -58l-230 -117zM240 201q-3 1 -21.5 4.5t-25.5 5t-25.5 6t-27 8t-24 10t-23.5 13t-19 16t-16.5 20t-9.5 24t-4 29.5q0 68 55 107.5t143 39.5q130 0 176 -110l-61 -30q-32 78 -115 78q-63 0 -96 -23t-33 -62q0 -11 4 -19.5t13 -15t16.5 -10.5t23.5 -8 t24 -5.5t27 -4.5t25 -4q38 -7 64.5 -14.5t58 -22.5t48 -40.5t16.5 -60.5q0 -68 -61 -108t-151 -40q-66 0 -117.5 29t-73.5 82l61 30q15 -35 49 -56.5t81 -21.5q64 0 104 24.5t40 60.5q0 11 -4 20t-12.5 15.5t-16 11t-22 8t-22.5 5.5t-25 5t-23 4z" />
<glyph unicode="&#x15c;" horiz-adv-x="552" d="M163 725l-19 34l135 124l136 -124l-19 -34l-117 77zM278 307q-108 29 -164.5 76t-56.5 129q0 90 57 137.5t162 47.5q127 0 218 -117l-56 -47q-71 96 -162 96q-77 0 -110 -28t-33 -89q0 -23 7.5 -41.5t16 -29.5t28.5 -21t31.5 -14.5t39.5 -13t38 -11.5q102 -35 133 -53 q87 -51 87 -158q0 -89 -67 -137.5t-184 -48.5q-66 0 -128 38t-104 103l59 42q30 -50 77 -82t96 -32q90 0 132.5 28.5t42.5 88.5q0 59 -36.5 86.5t-123.5 50.5z" />
<glyph unicode="&#x15d;" horiz-adv-x="464" d="M124 567l-19 34l135 124l136 -124l-19 -34l-117 77zM240 201q-3 1 -21.5 4.5t-25.5 5t-25.5 6t-27 8t-24 10t-23.5 13t-19 16t-16.5 20t-9.5 24t-4 29.5q0 68 55 107.5t143 39.5q130 0 176 -110l-61 -30q-32 78 -115 78q-63 0 -96 -23t-33 -62q0 -11 4 -19.5t13 -15 t16.5 -10.5t23.5 -8t24 -5.5t27 -4.5t25 -4q38 -7 64.5 -14.5t58 -22.5t48 -40.5t16.5 -60.5q0 -68 -61 -108t-151 -40q-66 0 -117.5 29t-73.5 82l61 30q15 -35 49 -56.5t81 -21.5q64 0 104 24.5t40 60.5q0 11 -4 20t-12.5 15.5t-16 11t-22 8t-22.5 5.5t-25 5t-23 4z" />
<glyph unicode="&#x15e;" horiz-adv-x="554" d="M279 307q-108 29 -164.5 76t-56.5 129q0 90 57 137.5t162 47.5q127 0 218 -117l-56 -47q-71 96 -162 96q-77 0 -110 -28t-33 -89q0 -23 7.5 -41.5t16 -29.5t28.5 -21t31.5 -14.5t39.5 -13t38 -11.5q102 -35 133 -53q87 -51 87 -158q0 -83 -58 -130.5t-161 -54.5l-26 -53 q54 0 80.5 -18t26.5 -39q0 -75 -205 -75v27q50 0 95 11.5t45 30.5q0 10 -7 15.5t-31 9t-70 3.5l41 88q-61 5 -117.5 42.5t-95.5 97.5l59 42q30 -50 77 -82t96 -32q90 0 132.5 28.5t42.5 88.5q0 59 -36.5 86.5t-123.5 50.5z" />
<glyph unicode="&#x15f;" horiz-adv-x="466" d="M241 201q-3 1 -21.5 4.5t-25.5 5t-25.5 6t-27 8t-24 10t-23.5 13t-19 16t-16.5 20t-9.5 24t-4 29.5q0 68 55 107.5t143 39.5q130 0 176 -110l-61 -30q-32 78 -115 78q-63 0 -96 -23t-33 -62q0 -11 4 -19.5t13 -15t16.5 -10.5t23.5 -8t24 -5.5t27 -4.5t25 -4 q38 -7 64.5 -14.5t58 -22.5t48 -40.5t16.5 -60.5q0 -63 -53 -102.5t-134 -44.5l-26 -53q54 0 80.5 -18t26.5 -39q0 -75 -205 -75v27q50 0 95 11.5t45 30.5q0 10 -7 15.5t-31 9t-70 3.5l41 88q-58 5 -101.5 34t-63.5 76l61 30q15 -35 49 -56.5t81 -21.5q64 0 104 24.5 t40 60.5q0 11 -4 20t-12.5 15.5t-16 11t-22 8t-22.5 5.5t-25 5t-23 4z" />
<glyph unicode="&#x160;" horiz-adv-x="552" d="M396 883l19 -34l-136 -124l-135 124l19 34l116 -77zM278 307q-108 29 -164.5 76t-56.5 129q0 90 57 137.5t162 47.5q127 0 218 -117l-56 -47q-71 96 -162 96q-77 0 -110 -28t-33 -89q0 -23 7.5 -41.5t16 -29.5t28.5 -21t31.5 -14.5t39.5 -13t38 -11.5q102 -35 133 -53 q87 -51 87 -158q0 -89 -67 -137.5t-184 -48.5q-66 0 -128 38t-104 103l59 42q30 -50 77 -82t96 -32q90 0 132.5 28.5t42.5 88.5q0 59 -36.5 86.5t-123.5 50.5z" />
<glyph unicode="&#x161;" horiz-adv-x="464" d="M357 725l19 -34l-136 -124l-135 124l19 34l116 -77zM240 201q-3 1 -21.5 4.5t-25.5 5t-25.5 6t-27 8t-24 10t-23.5 13t-19 16t-16.5 20t-9.5 24t-4 29.5q0 68 55 107.5t143 39.5q130 0 176 -110l-61 -30q-32 78 -115 78q-63 0 -96 -23t-33 -62q0 -11 4 -19.5t13 -15 t16.5 -10.5t23.5 -8t24 -5.5t27 -4.5t25 -4q38 -7 64.5 -14.5t58 -22.5t48 -40.5t16.5 -60.5q0 -68 -61 -108t-151 -40q-66 0 -117.5 29t-73.5 82l61 30q15 -35 49 -56.5t81 -21.5q64 0 104 24.5t40 60.5q0 11 -4 20t-12.5 15.5t-16 11t-22 8t-22.5 5.5t-25 5t-23 4z" />
<glyph unicode="&#x162;" horiz-adv-x="502" d="M202 -91q0 22 15.5 37.5t38.5 15.5t38.5 -15.5t15.5 -37.5q0 -34 -9.5 -64t-23 -48t-26.5 -31.5t-23 -18.5l-9 -6l-16 10q38 38 53 103q-22 0 -38 16t-16 39zM19 620v62h464v-62h-195v-620h-74v620h-195z" />
<glyph unicode="&#x163;" horiz-adv-x="276" d="M68 -91q0 22 15.5 37.5t38.5 15.5t38.5 -15.5t15.5 -37.5q0 -34 -9.5 -64t-23 -48t-26.5 -31.5t-23 -18.5l-9 -6l-16 10q38 38 53 103q-22 0 -38 16t-16 39zM28 406v62h60v155h68v-155h108v-62h-108v-406h-68v406h-60z" />
<glyph unicode="&#x164;" horiz-adv-x="502" d="M367 883l19 -34l-136 -124l-135 124l19 34l116 -77zM19 620v62h464v-62h-195v-620h-74v620h-195z" />
<glyph unicode="&#x165;" horiz-adv-x="276" d="M195 681q0 23 16 38.5t38 15.5t38 -15.5t16 -38.5q0 -34 -9.5 -64t-22.5 -48t-26 -31.5t-22 -19.5l-10 -5l-17 10q38 38 53 103q-22 0 -38 16t-16 39zM28 406v62h60v155h68v-155h108v-62h-108v-406h-68v406h-60z" />
<glyph unicode="&#x166;" horiz-adv-x="502" d="M19 620v62h464v-62h-195v-152h72v-44h-72v-424h-74v424h-72v44h72v152h-195z" />
<glyph unicode="&#x167;" horiz-adv-x="277" d="M28 406v62h60v155h68v-155h108v-62h-108v-89h91v-44h-91v-273h-68v273h-60v44h60v89h-60z" />
<glyph unicode="&#x168;" horiz-adv-x="635" d="M377 792q27 0 45 20t22 43h46q-6 -47 -38.5 -88.5t-74.5 -41.5q-26 0 -47 16t-38 32t-32 16q-27 0 -45.5 -20.5t-22.5 -43.5h-45q6 47 38.5 88.5t74.5 41.5q26 0 47 -15.5t38 -31.5t32 -16zM73 283v399h80v-399q0 -102 40 -166t125 -64t125 64t40 166v399h79v-399 q0 -143 -64.5 -221t-179.5 -78q-116 0 -180.5 78t-64.5 221z" />
<glyph unicode="&#x169;" horiz-adv-x="535" d="M323 634q27 0 45 20t22 43h46q-6 -47 -38.5 -88.5t-74.5 -41.5q-26 0 -47 16t-38 32t-32 16q-27 0 -45.5 -20.5t-22.5 -43.5h-45q6 47 38.5 88.5t74.5 41.5q26 0 47 -15.5t38 -31.5t32 -16zM58 172v296h67v-296q0 -53 38.5 -89.5t101.5 -36.5t100.5 53.5t37.5 133.5v235 h69v-468h-69v41q-58 -58 -138 -58q-89 0 -148 51t-59 138z" />
<glyph unicode="&#x16a;" horiz-adv-x="635" d="M183 789h267v-45h-267v45zM73 283v399h80v-399q0 -102 40 -166t125 -64t125 64t40 166v399h79v-399q0 -143 -64.5 -221t-179.5 -78q-116 0 -180.5 78t-64.5 221z" />
<glyph unicode="&#x16b;" horiz-adv-x="535" d="M129 631h267v-45h-267v45zM58 172v296h67v-296q0 -53 38.5 -89.5t101.5 -36.5t100.5 53.5t37.5 133.5v235h69v-468h-69v41q-58 -58 -138 -58q-89 0 -148 51t-59 138z" />
<glyph unicode="&#x16c;" horiz-adv-x="635" d="M412 856h41q-1 -6 -4 -15t-13.5 -33t-24.5 -42t-39 -33t-55 -15t-54.5 14t-39 34.5t-24.5 41t-14 34.5l-3 14h41q22 -45 42 -60q22 -17 52 -17q21 0 37 7t27.5 20.5t16.5 21.5t12 24q1 3 2 4zM73 283v399h80v-399q0 -102 40 -166t125 -64t125 64t40 166v399h79v-399 q0 -143 -64.5 -221t-179.5 -78q-116 0 -180.5 78t-64.5 221z" />
<glyph unicode="&#x16d;" horiz-adv-x="535" d="M358 698h41q-1 -6 -4 -15t-13.5 -33t-24.5 -42t-39 -33t-55 -15t-54.5 14t-39 34.5t-24.5 41t-14 34.5l-3 14h41q22 -45 42 -60q22 -17 52 -17q21 0 37 7t27.5 20.5t16.5 21.5t12 24q1 3 2 4zM58 172v296h67v-296q0 -53 38.5 -89.5t101.5 -36.5t100.5 53.5t37.5 133.5 v235h69v-468h-69v41q-58 -58 -138 -58q-89 0 -148 51t-59 138z" />
<glyph unicode="&#x16e;" horiz-adv-x="635" d="M268 817q0 -20 14.5 -35t34.5 -15t35 15t15 35t-15 35t-35 15t-34.5 -15t-14.5 -35zM218 817q0 41 29 70.5t70 29.5t70.5 -29.5t29.5 -70.5t-29.5 -70t-70.5 -29t-70 29t-29 70zM73 283v399h80v-399q0 -102 40 -166t125 -64t125 64t40 166v399h79v-399q0 -143 -64.5 -221 t-179.5 -78q-116 0 -180.5 78t-64.5 221z" />
<glyph unicode="&#x16f;" horiz-adv-x="535" d="M214 659q0 -20 14.5 -35t34.5 -15t35 15t15 35t-15 35t-35 15t-34.5 -15t-14.5 -35zM164 659q0 41 29 70.5t70 29.5t70.5 -29.5t29.5 -70.5t-29.5 -70t-70.5 -29t-70 29t-29 70zM58 172v296h67v-296q0 -53 38.5 -89.5t101.5 -36.5t100.5 53.5t37.5 133.5v235h69v-468h-69 v41q-58 -58 -138 -58q-89 0 -148 51t-59 138z" />
<glyph unicode="&#x170;" horiz-adv-x="635" d="M371 745l172 192l48 -48l-192 -171zM199 745l172 192l48 -48l-192 -171zM73 283v399h80v-399q0 -102 40 -166t125 -64t125 64t40 166v399h79v-399q0 -143 -64.5 -221t-179.5 -78q-116 0 -180.5 78t-64.5 221z" />
<glyph unicode="&#x171;" horiz-adv-x="535" d="M317 587l172 192l48 -48l-192 -171zM145 587l172 192l48 -48l-192 -171zM58 172v296h67v-296q0 -53 38.5 -89.5t101.5 -36.5t100.5 53.5t37.5 133.5v235h69v-468h-69v41q-58 -58 -138 -58q-89 0 -148 51t-59 138z" />
<glyph unicode="&#x172;" horiz-adv-x="635" d="M340 -82q0 -68 103 -68q30 0 54 6l7 -26q-58 -16 -104 -16q-57 0 -91.5 23t-34.5 72q0 45 33 75q-110 4 -172 82t-62 217v399h80v-399q0 -102 40 -166t125 -64t125 64t40 166v399h79v-399q0 -121 -47 -196.5t-133 -95.5q-25 -12 -33.5 -27.5t-8.5 -45.5z" />
<glyph unicode="&#x173;" horiz-adv-x="535" d="M406 -82q0 -68 103 -68q30 0 54 6l7 -26q-58 -16 -104 -16q-57 0 -91.5 23t-34.5 72q0 65 63 96v36q-58 -58 -138 -58q-89 0 -148 51t-59 138v296h67v-296q0 -53 38.5 -89.5t101.5 -36.5t100.5 53.5t37.5 133.5v235h69v-468q-41 -13 -53.5 -29.5t-12.5 -52.5z" />
<glyph unicode="&#x174;" horiz-adv-x="851" d="M310 725l-19 34l135 124l136 -124l-19 -34l-117 77zM281 0h-77l-182 682h77l144 -538l144 538h77l144 -537l144 537h77l-182 -682h-78l-144 538z" />
<glyph unicode="&#x175;" horiz-adv-x="719" d="M244 567l-19 34l135 124l136 -124l-19 -34l-117 77zM168 0l-152 468h72l118 -366l118 366h70l118 -365l119 365h72l-152 -468h-76l-116 354l-115 -354h-76z" />
<glyph unicode="&#x176;" horiz-adv-x="473" d="M120 725l-19 34l135 124l136 -124l-19 -34l-117 77zM237 432l150 250h87l-201 -335v-347h-74v350l-199 332h87z" />
<glyph unicode="&#x177;" horiz-adv-x="456" d="M110 567l-19 34l135 124l136 -124l-19 -34l-117 77zM228 88l153 380h74l-271 -668h-73l80 199l-190 469h74z" />
<glyph unicode="&#x178;" horiz-adv-x="473" d="M280 771q0 23 16 38.5t38 15.5q23 0 39 -16t16 -38t-16 -38t-39 -16q-22 0 -38 15.5t-16 38.5zM85 771q0 23 15.5 38.5t38.5 15.5t39 -16t16 -38t-16 -38t-39 -16t-38.5 15.5t-15.5 38.5zM237 432l150 250h87l-201 -335v-347h-74v350l-199 332h87z" />
<glyph unicode="&#x179;" horiz-adv-x="503" d="M182 759l216 141l34 -58l-230 -117zM38 620v62h426v-75l-341 -545h341v-62h-426v63l347 557h-347z" />
<glyph unicode="&#x17a;" horiz-adv-x="420" d="M142 601l216 141l34 -58l-230 -117zM37 406v62h346v-62l-264 -344h264v-62h-346v62l264 344h-264z" />
<glyph unicode="&#x17b;" horiz-adv-x="503" d="M207 771q0 23 15.5 38.5t37.5 15.5q23 0 39 -16t16 -38t-16 -38t-39 -16q-22 0 -37.5 15.5t-15.5 38.5zM38 620v62h426v-75l-341 -545h341v-62h-426v63l347 557h-347z" />
<glyph unicode="&#x17c;" horiz-adv-x="420" d="M167 613q0 23 15.5 38.5t37.5 15.5q23 0 39 -16t16 -38t-16 -38t-39 -16q-22 0 -37.5 15.5t-15.5 38.5zM37 406v62h346v-62l-264 -344h264v-62h-346v62l264 344h-264z" />
<glyph unicode="&#x17d;" horiz-adv-x="503" d="M377 883l19 -34l-136 -124l-135 124l19 34l116 -77zM38 620v62h426v-75l-341 -545h341v-62h-426v63l347 557h-347z" />
<glyph unicode="&#x17e;" horiz-adv-x="420" d="M337 725l19 -34l-136 -124l-135 124l19 34l116 -77zM37 406v62h346v-62l-264 -344h264v-62h-346v62l264 344h-264z" />
<glyph unicode="&#x180;" d="M33 567v48h30v111h68v-111h174v-48h-174v-161q71 78 164 78q89 0 160.5 -74.5t71.5 -175.5t-71 -175.5t-159 -74.5q-93 0 -166 79v-63h-68v567h-30zM131 234q0 -77 49.5 -132.5t114.5 -55.5t114.5 55.5t49.5 132.5t-49.5 132.5t-114.5 55.5t-114.5 -55.5t-49.5 -132.5z " />
<glyph unicode="&#x181;" horiz-adv-x="699" d="M90 426h-63v108q0 61 43.5 104.5t105.5 43.5h228q88 0 148.5 -48t60.5 -123q0 -85 -74 -134q121 -51 121 -177q0 -66 -36 -112.5t-88 -67t-113 -20.5h-220v614h-27q-35 0 -60.5 -23t-25.5 -57v-108zM277 338v-276h144q68 0 112.5 36t44.5 102t-44.5 102t-112.5 36h-144z M277 619v-218h127q60 0 93.5 33t33.5 77t-33 76t-94 32h-127z" />
<glyph unicode="&#x186;" horiz-adv-x="572" d="M26 537q93 160 227 160q114 0 194.5 -105.5t80.5 -250.5t-80.5 -251t-194.5 -106q-124 0 -215 140l59 42q69 -114 156 -114t143 86t56 203t-56 202t-143 85q-94 0 -162 -126z" />
<glyph unicode="&#x187;" horiz-adv-x="578" d="M546 144q-93 -160 -227 -160q-114 0 -194.5 105.5t-80.5 250.5t80.5 251t194.5 106q83 0 152 -64v32q0 61 43.5 104.5t105.5 43.5h27v-68h-27q-35 0 -60.5 -23t-25.5 -57v-108l-59 -42q-69 114 -156 114t-143 -86t-56 -203t56 -202t143 -85q94 0 162 126z" />
<glyph unicode="&#x188;" horiz-adv-x="479" d="M454 74q-36 -45 -78.5 -67.5t-107.5 -22.5q-89 0 -161.5 74.5t-72.5 175.5t71.5 175.5t160.5 74.5q59 0 114 -36v50q0 61 43.5 104.5t105.5 43.5h27v-68h-27q-35 0 -60.5 -23t-25.5 -57v-108l-50 -39q-50 71 -127 71q-65 0 -114.5 -55.5t-49.5 -132.5t49.5 -132.5 t114.5 -55.5q52 0 80.5 15.5t54.5 49.5z" />
<glyph unicode="&#x189;" horiz-adv-x="627" d="M171 309v-241h52q134 0 207 67t73 205t-73 205.5t-207 67.5h-52v-242h127v-62h-127zM96 309h-60v62h60v311h149q66 0 125.5 -20.5t107.5 -60.5t76 -107.5t28 -153.5t-28 -153t-76 -107t-107 -60t-126 -20h-149v309z" />
<glyph unicode="&#x18a;" horiz-adv-x="733" d="M90 426h-63v108q0 61 43.5 104.5t105.5 43.5h176q66 0 125 -20.5t107 -60.5t76 -107.5t28 -153.5t-28 -153t-76 -107t-106.5 -60t-125.5 -20h-149v614h-27q-35 0 -60.5 -23t-25.5 -57v-108zM277 613v-545h53q134 0 206.5 67t72.5 205t-72.5 205.5t-206.5 67.5h-53z" />
<glyph unicode="&#x18e;" horiz-adv-x="503" d="M424 0h-385v62h311v278h-240v61h240v218h-308v63h382v-682z" />
<glyph unicode="&#x18f;" horiz-adv-x="629" d="M64 537q43 74 104 117t131 43q115 0 201 -106t86 -250q0 -145 -80.5 -251t-194.5 -106q-128 0 -203 95t-75 232h476q1 10 1 30q0 115 -61.5 201t-149.5 86q-52 0 -95.5 -34.5t-74.5 -91.5zM499 247h-387q18 -83 72.5 -139t126.5 -56q68 0 118 55t70 140z" />
<glyph unicode="&#x190;" horiz-adv-x="516" d="M147 365q-78 49 -78 146q0 93 56 139.5t142 46.5q52 0 108.5 -17.5t90.5 -54.5l-50 -47q-24 28 -66.5 40t-82.5 12q-54 0 -88.5 -35.5t-34.5 -83.5q0 -51 38 -84t122 -33v-67q-86 0 -134.5 -39.5t-48.5 -101.5q0 -55 46.5 -94.5t114.5 -39.5q122 0 171 69l53 -42 q-37 -47 -88 -71t-136 -24q-105 0 -170.5 57t-65.5 161q0 117 101 163z" />
<glyph unicode="&#x191;" horiz-adv-x="479" d="M79 682h382v-63h-307v-218h240v-61h-240v-392q0 -60 -49 -104t-112 -44h-27v68h27q35 0 60.5 23t25.5 57v734z" />
<glyph unicode="&#x192;" horiz-adv-x="276" d="M156 -52q0 -61 -46 -104.5t-108 -43.5h-27v68h27q35 0 60.5 23t25.5 57v458h-60v62h60v126q0 62 43 105t105 43h28v-62h-28q-34 0 -57 -25.5t-23 -60.5v-126h108v-62h-108v-458z" />
<glyph unicode="&#x193;" horiz-adv-x="612" d="M329 291v62h235v-62q0 -161 -66.5 -234t-192.5 -73q-113 0 -187 104.5t-74 251.5t79 252t201 105q95 0 157 -60v28q0 61 43.5 104.5t105.5 43.5h27v-68h-27q-35 0 -60.5 -23t-25.5 -57v-108l-60 -42q-34 57 -69 85.5t-91 28.5q-92 0 -148 -85.5t-56 -203.5 q0 -119 49.5 -203t135.5 -84q45 0 74.5 8t57 32t40.5 73t13 125h-161z" />
<glyph unicode="&#x194;" horiz-adv-x="528" d="M264 -138q16 0 16 32q0 16 -16 61q-16 -45 -16 -61q0 -32 16 -32zM224 65l-224 617h79l185 -508l185 508h79l-224 -617q46 -127 46 -161q0 -48 -21.5 -76t-64.5 -28t-64.5 28t-21.5 76q0 34 46 161z" />
<glyph unicode="&#x196;" horiz-adv-x="264" d="M236 0q-67 0 -114 38t-47 110v534h75v-534q0 -80 86 -80v-68z" />
<glyph unicode="&#x197;" horiz-adv-x="297" d="M111 328h-90v42h90v246h-36v66h147v-66h-36v-246h89v-42h-89v-262h36v-66h-147v66h36v262z" />
<glyph unicode="&#x198;" horiz-adv-x="664" d="M79 0v682h75v-322l229 274q45 54 116 54q68 0 108 -36.5t40 -87.5q0 -67 -66 -110l-44 49q30 21 30 52q0 23 -18 39.5t-46 16.5q-42 0 -61 -23l-176 -209l265 -379h-91l-224 319l-62 -74v-245h-75z" />
<glyph unicode="&#x199;" horiz-adv-x="435" d="M130 0h-68l1 594q0 62 42.5 104.5t104.5 42.5h70v-67h-70q-34 0 -56.5 -22.5t-22.5 -57.5l-1 -311l185 185h98l-180 -180l194 -288h-83l-160 239l-54 -53v-186z" />
<glyph unicode="&#x19b;" horiz-adv-x="458" d="M229 380l-153 -380h-74l190 469l-27 68l-87 -41l-26 56l90 42l-35 88h72l24 -60l79 37l26 -56l-82 -38l230 -565h-74z" />
<glyph unicode="&#x19d;" horiz-adv-x="629" d="M154 -52q0 -60 -49 -104t-112 -44h-27v68h27q35 0 60.5 23t25.5 57v734h75l322 -559v559h74v-682h-74l-322 557v-609z" />
<glyph unicode="&#x19e;" horiz-adv-x="535" d="M409 -200v496q0 53 -38 89.5t-101 36.5t-101 -54t-38 -134v-234h-68v468h68v-43q57 59 139 59q89 0 148 -50.5t59 -137.5v-496h-68z" />
<glyph unicode="&#x19f;" horiz-adv-x="670" d="M42 340q0 143 88.5 250t204.5 107t204.5 -107t88.5 -250t-88.5 -249.5t-204.5 -106.5t-204.5 106.5t-88.5 249.5zM122 372h426q-9 105 -70 181t-143 76t-143 -76t-70 -181zM548 310h-426q8 -106 69 -181.5t144 -75.5q82 0 143 75.5t70 181.5z" />
<glyph unicode="&#x1a4;" horiz-adv-x="681" d="M278 619v-275h143q68 0 112.5 35.5t44.5 101.5t-44.5 102t-112.5 36h-143zM90 426h-63v108q0 61 43.5 104.5t105.5 43.5h245q61 0 113.5 -20.5t89 -67.5t36.5 -113t-36 -112.5t-88 -67t-113 -20.5h-145v-281h-75v614h-27q-35 0 -60.5 -23t-25.5 -57v-108z" />
<glyph unicode="&#x1a5;" d="M63 487q0 61 42.5 104t104.5 43h70v-67h-70q-34 0 -56.5 -22.5t-22.5 -57.5v-81q71 78 164 78q89 0 160.5 -74.5t71.5 -175.5t-71 -175.5t-159 -74.5q-93 0 -166 79v-262h-68v686zM131 234q0 -77 49.5 -132.5t114.5 -55.5t114.5 55.5t49.5 132.5t-49.5 132.5t-114.5 55.5 t-114.5 -55.5t-49.5 -132.5z" />
<glyph unicode="&#x1a9;" horiz-adv-x="499" d="M299 336l-171 -274h341v-62h-426v63l170 273l-170 271v75h426v-62h-347z" />
<glyph unicode="&#x1ac;" horiz-adv-x="566" d="M16 567q0 44 38.5 79.5t99.5 35.5h391v-62h-195v-620h-74v620h-122q-33 0 -52.5 -16.5t-19.5 -36.5q0 -19 19.5 -34t52.5 -15v-62q-62 0 -100 33.5t-38 77.5z" />
<glyph unicode="&#x1ad;" horiz-adv-x="299" d="M156 148q0 -34 25.5 -57t60.5 -23h27v-68h-27q-62 0 -108 43.5t-46 104.5v258h-60v62h60v110q0 64 41 106t113 42v-58q-47 0 -66.5 -21.5t-19.5 -68.5v-110h108v-62h-108v-258z" />
<glyph unicode="&#x1ae;" horiz-adv-x="506" d="M216 620h-195v62h464v-62h-195v-672q0 -34 25.5 -57t60.5 -23h27v-68h-27q-63 0 -111.5 44t-48.5 104v672z" />
<glyph unicode="&#x1b1;" horiz-adv-x="684" d="M139 627h-70v55h158q0 -44 -15.5 -81.5t-34 -62.5t-34 -77t-15.5 -121q0 -114 62.5 -200.5t151.5 -86.5t151.5 86.5t62.5 200.5q0 69 -15.5 121t-34 77t-34 62.5t-15.5 81.5h158v-55h-70q7 -21 24 -52.5t30.5 -57.5t24.5 -73.5t11 -103.5q0 -143 -88.5 -249.5 t-204.5 -106.5t-204.5 106.5t-88.5 249.5q0 56 11 103.5t24.5 73.5t30.5 57.5t24 52.5z" />
<glyph unicode="&#x1b2;" horiz-adv-x="641" d="M458 682q6 -6 15 -16.5t33 -46t42 -73t33 -94t15 -112.5q0 -146 -76.5 -251t-189.5 -105q-112 0 -185 104.5t-73 251.5v342h79v-342q0 -118 49 -202.5t130 -84.5q83 0 135 85t52 202q0 58 -17.5 114.5t-42.5 95.5t-50 70.5t-43 46.5l-17 15h111z" />
<glyph unicode="&#x1b3;" horiz-adv-x="641" d="M549 565q0 24 -17.5 39.5t-42.5 15.5q-48 0 -70 -35l-143 -238v-347h-74v350l-199 332h87l150 -250l113 188q47 77 140 77q54 0 89 -28.5t43 -71.5q2 -12 2 -19q0 -57 -48 -101l-52 41q22 22 22 47z" />
<glyph unicode="&#x1b4;" horiz-adv-x="622" d="M543 366q0 23 -20.5 39.5t-42.5 16.5q-45 0 -70 -64l-226 -558h-73l80 198l-190 470h74l153 -380l118 293q20 50 50.5 76.5t87.5 26.5q53 0 89 -33t36 -85q0 -39 -35 -84l-55 29q24 33 24 55z" />
<glyph unicode="&#x1b7;" horiz-adv-x="531" d="M35 620v62h426v-75l-202 -192q105 -20 167 -78t62 -131q0 -222 -236 -222q-85 0 -136 24t-88 71l53 42q49 -69 171 -69q78 0 119.5 40t41.5 98q0 66 -66.5 116.5t-182.5 50.5v67l195 196h-324z" />
<glyph unicode="&#x1c2;" horiz-adv-x="315" d="M180 376v-55h112v-55h-112v-334h-41v334h-116v55h116v55h-116v54h116v320h41v-320h112v-54h-112z" />
<glyph unicode="&#x1cd;" horiz-adv-x="576" d="M405 884l19 -34l-136 -124l-135 124l19 34l116 -77zM328 680l248 -680h-80l-70 191h-276l-69 -191h-80l247 680v2h81zM288 570l-115 -317h231z" />
<glyph unicode="&#x1ce;" d="M382 725l19 -34l-136 -124l-135 124l19 34l116 -77zM34 234q0 101 71.5 175.5t160.5 74.5q92 0 164 -78v62h68v-468h-68v61q-71 -77 -162 -77q-89 0 -161.5 74.5t-72.5 175.5zM102 234q0 -77 49.5 -132.5t114.5 -55.5t114.5 55.5t49.5 132.5t-49.5 132.5t-114.5 55.5 t-114.5 -55.5t-49.5 -132.5z" />
<glyph unicode="&#x1cf;" horiz-adv-x="253" d="M243 884l19 -34l-136 -124l-135 124l19 34l116 -77zM164 616v-550h36v-66h-147v66h36v550h-36v66h147v-66h-36z" />
<glyph unicode="&#x1d0;" horiz-adv-x="194" d="M214 725l19 -34l-136 -124l-135 124l19 34l116 -77zM63 0v468h68v-468h-68z" />
<glyph unicode="&#x1d1;" horiz-adv-x="670" d="M452 884l19 -34l-136 -124l-135 124l19 34l116 -77zM121 340q0 -114 62.5 -200.5t151.5 -86.5t151.5 86.5t62.5 200.5q0 115 -63 202t-151 87t-151 -87t-63 -202zM42 340q0 143 88.5 250t204.5 107t204.5 -107t88.5 -250t-88.5 -249.5t-204.5 -106.5t-204.5 106.5 t-88.5 249.5z" />
<glyph unicode="&#x1d2;" horiz-adv-x="532" d="M382 725l19 -34l-136 -124l-135 124l19 34l116 -77zM102 234q0 -77 49.5 -132.5t114.5 -55.5t114.5 55.5t49.5 132.5t-49.5 132.5t-114.5 55.5t-114.5 -55.5t-49.5 -132.5zM34 234q0 101 71.5 175.5t160.5 74.5t160.5 -74.5t71.5 -175.5t-71 -175.5t-159 -74.5 q-89 0 -161.5 74.5t-72.5 175.5z" />
<glyph unicode="&#x1d3;" horiz-adv-x="635" d="M435 884l19 -34l-136 -124l-135 124l19 34l116 -77zM73 283v399h80v-399q0 -102 40 -166t125 -64t125 64t40 166v399h79v-399q0 -143 -64.5 -221t-179.5 -78q-116 0 -180.5 78t-64.5 221z" />
<glyph unicode="&#x1d4;" horiz-adv-x="535" d="M378 725l19 -34l-136 -124l-135 124l19 34l116 -77zM58 172v296h67v-296q0 -53 38.5 -89.5t101.5 -36.5t100.5 53.5t37.5 133.5v235h69v-468h-69v41q-58 -58 -138 -58q-89 0 -148 51t-59 138z" />
<glyph unicode="&#x1dd;" horiz-adv-x="527" d="M426 234q0 77 -49.5 133t-114.5 56q-72 0 -104.5 -20t-58.5 -65l-55 36q36 56 84 83t132 27q89 0 161 -74.5t72 -175.5t-71.5 -175.5t-159.5 -74.5q-89 0 -161 74.5t-72 175.5h397zM417 173h-310q17 -55 60.5 -90.5t94.5 -35.5t94.5 35.5t60.5 90.5z" />
<glyph unicode="&#x1de;" horiz-adv-x="576" d="M154 907h267v-45h-267v45zM331 771q0 23 15.5 38.5t38.5 15.5t39 -16t16 -38t-16 -38t-39 -16t-38.5 15.5t-15.5 38.5zM136 771q0 23 16 38.5t38 15.5q23 0 39 -16t16 -38t-16 -38t-39 -16q-22 0 -38 15.5t-16 38.5zM328 680l248 -680h-80l-70 191h-276l-69 -191h-80 l247 680v2h81zM288 570l-115 -317h231z" />
<glyph unicode="&#x1df;" d="M142 771h267v-45h-267v45zM319 613q0 23 15.5 38.5t38.5 15.5t39 -16t16 -38t-16 -38t-39 -16t-38.5 15.5t-15.5 38.5zM124 613q0 23 16 38.5t38 15.5q23 0 39 -16t16 -38t-16 -38t-39 -16q-22 0 -38 15.5t-16 38.5zM34 234q0 101 71.5 175.5t160.5 74.5q92 0 164 -78v62 h68v-468h-68v61q-71 -77 -162 -77q-89 0 -161.5 74.5t-72.5 175.5zM102 234q0 -77 49.5 -132.5t114.5 -55.5t114.5 55.5t49.5 132.5t-49.5 132.5t-114.5 55.5t-114.5 -55.5t-49.5 -132.5z" />
<glyph unicode="&#x1e6;" horiz-adv-x="607" d="M437 883l19 -34l-136 -124l-135 124l19 34l116 -77zM329 291v62h235v-62q0 -161 -66.5 -234t-192.5 -73q-113 0 -187 104.5t-74 251.5t79 252t201 105q77 0 125.5 -34.5t94.5 -105.5l-60 -42q-34 57 -69 85.5t-91 28.5q-92 0 -148 -85.5t-56 -203.5q0 -119 49.5 -203 t135.5 -84q45 0 74.5 8t57 32t40.5 73t13 125h-161z" />
<glyph unicode="&#x1e7;" d="M392 725l19 -34l-136 -124l-135 124l19 34l116 -77zM34 234q0 101 71.5 175.5t160.5 74.5q92 0 164 -78v62h68v-450q0 -109 -56.5 -163.5t-149.5 -54.5h-154v62h154q66 0 102 39.5t36 116.5v43q-71 -77 -162 -77q-89 0 -161.5 74.5t-72.5 175.5zM102 234 q0 -77 49.5 -132.5t114.5 -55.5t114.5 55.5t49.5 132.5t-49.5 132.5t-114.5 55.5t-114.5 -55.5t-49.5 -132.5z" />
<glyph unicode="&#x1ea;" horiz-adv-x="674" d="M351 -82q0 -68 103 -68q30 0 54 6l7 -26q-58 -16 -104 -16q-57 0 -91.5 23t-34.5 72q0 47 33 76q-110 10 -192 114.5t-82 240.5q0 143 88.5 250t204.5 107t204.5 -107t88.5 -250q0 -124 -69 -223.5t-167 -125.5q-26 -12 -34.5 -27t-8.5 -46zM123 340q0 -114 62.5 -200.5 t151.5 -86.5t151.5 86.5t62.5 200.5q0 115 -63 202t-151 87t-151 -87t-63 -202z" />
<glyph unicode="&#x1eb;" horiz-adv-x="534" d="M278 -82q0 -68 103 -68q30 0 54 6l7 -26q-58 -16 -104 -16q-57 0 -91.5 23t-34.5 72q0 47 34 76q-83 11 -147 83t-64 166q0 101 71.5 175.5t160.5 74.5t160.5 -74.5t71.5 -175.5q0 -85 -52.5 -153.5t-126.5 -89.5q-26 -11 -34 -26.5t-8 -46.5zM103 234q0 -77 49.5 -132.5 t114.5 -55.5t114.5 55.5t49.5 132.5t-49.5 132.5t-114.5 55.5t-114.5 -55.5t-49.5 -132.5z" />
<glyph unicode="&#x1f0;" horiz-adv-x="194" d="M214 725l19 -34l-136 -124l-135 124l19 34l116 -77zM-45 -138h28q34 0 57 25.5t23 60.5v520h68v-520q0 -62 -43.5 -105t-104.5 -43h-28v62z" />
<glyph unicode="&#x1f8;" horiz-adv-x="629" d="M379 726l-230 117l34 58l216 -141zM79 0v682h75l322 -559v559h74v-682h-74l-322 557v-557h-75z" />
<glyph unicode="&#x1f9;" horiz-adv-x="535" d="M333 567l-230 117l34 58l216 -141zM477 296v-296h-68v296q0 53 -38 89.5t-101 36.5t-101 -54t-38 -134v-234h-68v468h68v-42q56 58 139 58q89 0 148 -50.5t59 -137.5z" />
<glyph unicode="&#x1fc;" horiz-adv-x="772" d="M415 760l216 141l34 -58l-230 -117zM163 191l-103 -191h-80l368 680v2h382v-63h-308v-218h240v-61h-240v-278h311v-62h-385v191h-185zM197 253h151v279z" />
<glyph unicode="&#x1fd;" horiz-adv-x="867" d="M402 601l216 141l34 -58l-230 -117zM111 356l-53 33q25 32 43 49t53.5 31t82.5 14q125 0 176 -117q33 53 85.5 85t108.5 32q89 0 160.5 -74t71.5 -175h-396q0 -77 49.5 -132.5t114.5 -55.5q72 0 104.5 20t58.5 64l54 -35q-37 -56 -84 -83.5t-131 -27.5q-90 0 -160 72 q-87 -72 -241 -72q-79 0 -130 39t-51 105q0 70 64.5 116t202.5 46q40 0 79 -12q-6 55 -41.5 99t-94.5 44q-50 0 -74.5 -15t-51.5 -50zM453 296h308q-17 55 -60 90t-94 35t-94 -35t-60 -90zM408 110q-31 54 -34 109q-50 12 -79 12q-94 0 -143.5 -27t-49.5 -77q0 -31 20 -50.5 t42.5 -25t46.5 -5.5q118 0 197 64z" />
<glyph unicode="&#x1fe;" horiz-adv-x="672" d="M258 759l216 141l34 -58l-230 -117zM507 511l-315 -382q61 -76 144 -76q89 0 151.5 86.5t62.5 200.5q0 93 -43 171zM478 553q-63 76 -142 76q-88 0 -151 -87t-63 -202q0 -94 42 -169zM43 340q0 143 88.5 250t204.5 107q105 0 188 -88l60 73h63l-92 -111q74 -104 74 -231 q0 -143 -88.5 -249.5t-204.5 -106.5q-104 0 -189 90l-61 -74h-62l92 111q-73 101 -73 229z" />
<glyph unicode="&#x1ff;" horiz-adv-x="533" d="M188 601l216 141l34 -58l-230 -117zM35 234q0 101 71.5 175.5t160.5 74.5q80 0 146 -60l41 44h63l-73 -77q55 -72 55 -157q0 -101 -71 -175.5t-159 -74.5q-80 0 -147 61l-42 -45h-62l73 78q-56 71 -56 156zM370 378q-47 44 -103 44q-65 0 -114.5 -55.5t-49.5 -132.5 q0 -59 32 -109zM399 342l-235 -252q46 -44 103 -44q65 0 114.5 55.5t49.5 132.5q0 60 -32 108z" />
<glyph unicode="&#x20e;" horiz-adv-x="670" d="M241 726h-41q1 6 4 15t13.5 33t24.5 42t39 33t55 15t54.5 -14t39 -34.5t24.5 -41t13 -34.5l4 -14h-41q-22 45 -42 60q-22 17 -52 17q-21 0 -37 -7t-27.5 -20.5t-16.5 -21.5t-12 -24q-1 -3 -2 -4zM121 340q0 -114 62.5 -200.5t151.5 -86.5t151.5 86.5t62.5 200.5 q0 115 -63 202t-151 87t-151 -87t-63 -202zM42 340q0 143 88.5 250t204.5 107t204.5 -107t88.5 -250t-88.5 -249.5t-204.5 -106.5t-204.5 106.5t-88.5 249.5z" />
<glyph unicode="&#x20f;" horiz-adv-x="532" d="M172 567h-41q1 6 4 15t13.5 33t24.5 42t39 33t55 15t54.5 -14t39 -34.5t24.5 -41t13 -34.5l4 -14h-41q-22 45 -42 60q-22 17 -52 17q-21 0 -37 -7t-27.5 -20.5t-16.5 -21.5t-12 -24q-1 -3 -2 -4zM102 234q0 -77 49.5 -132.5t114.5 -55.5t114.5 55.5t49.5 132.5 t-49.5 132.5t-114.5 55.5t-114.5 -55.5t-49.5 -132.5zM34 234q0 101 71.5 175.5t160.5 74.5t160.5 -74.5t71.5 -175.5t-71 -175.5t-159 -74.5q-89 0 -161.5 74.5t-72.5 175.5z" />
<glyph unicode="&#x218;" horiz-adv-x="552" d="M219 -91q0 22 15.5 37.5t38.5 15.5t38.5 -15.5t15.5 -37.5q0 -34 -9.5 -64t-23 -48t-26.5 -31.5t-23 -18.5l-9 -6l-16 10q38 38 53 103q-22 0 -38 16t-16 39zM278 307q-108 29 -164.5 76t-56.5 129q0 90 57 137.5t162 47.5q127 0 218 -117l-56 -47q-71 96 -162 96 q-77 0 -110 -28t-33 -89q0 -23 7.5 -41.5t16 -29.5t28.5 -21t31.5 -14.5t39.5 -13t38 -11.5q102 -35 133 -53q87 -51 87 -158q0 -89 -67 -137.5t-184 -48.5q-66 0 -128 38t-104 103l59 42q30 -50 77 -82t96 -32q90 0 132.5 28.5t42.5 88.5q0 59 -36.5 86.5t-123.5 50.5z" />
<glyph unicode="&#x219;" horiz-adv-x="464" d="M165 -91q0 22 15.5 37.5t38.5 15.5t38.5 -15.5t15.5 -37.5q0 -34 -9.5 -64t-23 -48t-26.5 -31.5t-23 -18.5l-9 -6l-16 10q38 38 53 103q-22 0 -38 16t-16 39zM240 201q-3 1 -21.5 4.5t-25.5 5t-25.5 6t-27 8t-24 10t-23.5 13t-19 16t-16.5 20t-9.5 24t-4 29.5 q0 68 55 107.5t143 39.5q130 0 176 -110l-61 -30q-32 78 -115 78q-63 0 -96 -23t-33 -62q0 -11 4 -19.5t13 -15t16.5 -10.5t23.5 -8t24 -5.5t27 -4.5t25 -4q38 -7 64.5 -14.5t58 -22.5t48 -40.5t16.5 -60.5q0 -68 -61 -108t-151 -40q-66 0 -117.5 29t-73.5 82l61 30 q15 -35 49 -56.5t81 -21.5q64 0 104 24.5t40 60.5q0 11 -4 20t-12.5 15.5t-16 11t-22 8t-22.5 5.5t-25 5t-23 4z" />
<glyph unicode="&#x21a;" horiz-adv-x="502" d="M201 -91q0 22 15.5 37.5t38.5 15.5t38.5 -15.5t15.5 -37.5q0 -34 -9.5 -64t-23 -48t-26.5 -31.5t-23 -18.5l-9 -6l-16 10q38 38 53 103q-22 0 -38 16t-16 39zM19 620v62h464v-62h-195v-620h-74v620h-195z" />
<glyph unicode="&#x21b;" horiz-adv-x="276" d="M67 -91q0 22 15.5 37.5t38.5 15.5t38.5 -15.5t15.5 -37.5q0 -34 -9.5 -64t-23 -48t-26.5 -31.5t-23 -18.5l-9 -6l-16 10q38 38 53 103q-22 0 -38 16t-16 39zM28 406v62h60v155h68v-155h108v-62h-108v-406h-68v406h-60z" />
<glyph unicode="&#x21c;" horiz-adv-x="465" d="M120 300v77q28 13 69.5 40t84.5 69.5t43 74.5q0 33 -26.5 52.5t-49.5 19.5q-35 0 -64.5 -9t-46 -22t-28.5 -26t-16 -22l-4 -9l-54 45q2 4 6.5 11.5t22 25.5t39.5 32t61 25.5t84 11.5q69 0 109.5 -38.5t40.5 -99.5q0 -54 -83 -130q58 -25 90 -68t32 -92q0 -52 -27 -98 t-69 -78.5t-90.5 -58t-94.5 -40.5t-77.5 -23t-43.5 -8v75q10 1 42 8t82 25t94.5 43t77 67t32.5 91q0 30 -30.5 63.5t-66.5 52.5q-86 -65 -139 -87z" />
<glyph unicode="&#x21d;" horiz-adv-x="413" d="M95 90v83q7 2 19 6t43 18t54.5 30.5t42.5 43.5t19 56q0 35 -22 64.5t-42 29.5q-35 0 -63.5 -9t-43 -22t-24.5 -26t-13 -22l-3 -9l-54 45q2 4 5.5 11.5t19 25.5t35.5 32t58 25.5t83 11.5q66 0 102 -47.5t36 -112.5q0 -60 -49 -114q38 -17 59 -49t21 -74q0 -48 -20.5 -90 t-53.5 -71.5t-73 -54t-80 -39t-73 -25t-54 -14.5l-20 -4v89q6 1 17 2.5t42 8t59.5 16t63 26.5t59.5 38t42 52.5t17 68.5q0 28 -20 46t-45 24q-30 -21 -66 -38.5t-57 -24.5z" />
<glyph unicode="&#x21e;" horiz-adv-x="608" d="M422 883l19 -34l-136 -124l-135 124l19 34l116 -77zM79 0v682h75v-295h300v295h75v-682h-75v325h-300v-325h-75z" />
<glyph unicode="&#x21f;" horiz-adv-x="535" d="M363 883l19 -34l-136 -124l-135 124l19 34l116 -77zM477 296v-296h-68v296q0 53 -38 89.5t-101 36.5t-101 -54t-38 -134v-234h-68v726h68v-301q57 59 139 59q89 0 148 -50.5t59 -137.5z" />
<glyph unicode="&#x220;" horiz-adv-x="641" d="M489 -200v598q0 102 -40 166.5t-125 64.5t-125 -64.5t-40 -166.5v-398h-80v682h75v-51q63 66 170 66q115 0 179.5 -78t64.5 -221v-598h-79z" />
<glyph unicode="&#x222;" horiz-adv-x="562" d="M281 391q79 23 102 39q43 28 43 82q0 14 -6.5 31.5t-13.5 28.5l-6 10l69 32q33 -56 33 -102q0 -101 -111 -159q63 -26 97 -66.5t34 -116.5q0 -86 -71.5 -136t-169.5 -50t-169.5 50t-71.5 136q0 76 34 116.5t97 66.5q-111 58 -111 159q0 89 63.5 137t170.5 48v-68 q-158 0 -158 -117q0 -23 8.5 -41t17.5 -28.5t32 -21t33 -14t41 -12.5q9 -3 13 -4zM281 311q-93 -26 -129 -52t-36 -89q0 -56 49 -86.5t116 -30.5t116 30.5t49 86.5q0 63 -36 89t-129 52z" />
<glyph unicode="&#x223;" horiz-adv-x="520" d="M260 392l-12 -4q-71 -26 -104.5 -74.5t-33.5 -103.5q0 -76 42.5 -116.5t107.5 -40.5t107.5 40.5t42.5 116.5q0 55 -33.5 103.5t-104.5 74.5zM176 436q-122 84 -122 216h76q0 -104 130 -175q130 71 130 175h76q0 -132 -122 -216q68 -37 105 -89t37 -137 q0 -109 -64.5 -167.5t-161.5 -58.5t-161.5 58.5t-64.5 167.5q0 85 37 137t105 89z" />
<glyph unicode="&#x226;" horiz-adv-x="576" d="M233 771q0 23 15.5 38.5t37.5 15.5q23 0 39 -16t16 -38t-16 -38t-39 -16q-22 0 -37.5 15.5t-15.5 38.5zM328 680l248 -680h-80l-70 191h-276l-69 -191h-80l247 680v2h81zM288 570l-115 -317h231z" />
<glyph unicode="&#x227;" d="M220 613q0 23 15.5 38.5t37.5 15.5q23 0 39 -16t16 -38t-16 -38t-39 -16q-22 0 -37.5 15.5t-15.5 38.5zM34 234q0 101 71.5 175.5t160.5 74.5q92 0 164 -78v62h68v-468h-68v61q-71 -77 -162 -77q-89 0 -161.5 74.5t-72.5 175.5zM102 234q0 -77 49.5 -132.5t114.5 -55.5 t114.5 55.5t49.5 132.5t-49.5 132.5t-114.5 55.5t-114.5 -55.5t-49.5 -132.5z" />
<glyph unicode="&#x228;" horiz-adv-x="503" d="M79 0v682h382v-63h-307v-218h240v-61h-240v-278h310v-62h-167l-33 -68q54 0 80.5 -18t26.5 -39q0 -75 -205 -75v27q50 0 95 11.5t45 30.5q0 10 -7 15.5t-31 9t-70 3.5l48 103h-167z" />
<glyph unicode="&#x229;" horiz-adv-x="528" d="M113 296h308q-17 55 -60 90.5t-94 35.5t-94 -35.5t-60 -90.5zM103 234q0 -77 49.5 -132.5t114.5 -55.5q72 0 104.5 20t58.5 65l54 -36q-35 -53 -78.5 -80.5t-118.5 -30.5l-26 -52q54 0 81 -18t27 -39q0 -75 -206 -75v27q50 0 95 11.5t45 30.5q0 10 -7 15.5t-31 9t-70 3.5 l42 90q-81 14 -141.5 85t-60.5 162q0 101 71.5 175.5t160.5 74.5t160.5 -74.5t71.5 -175.5h-396z" />
<glyph unicode="&#x22a;" horiz-adv-x="670" d="M202 902h267v-45h-267v45zM379 771q0 23 15.5 38.5t38.5 15.5t39 -16t16 -38t-16 -38t-39 -16t-38.5 15.5t-15.5 38.5zM184 771q0 23 16 38.5t38 15.5q23 0 39 -16t16 -38t-16 -38t-39 -16q-22 0 -38 15.5t-16 38.5zM121 340q0 -114 62.5 -200.5t151.5 -86.5t151.5 86.5 t62.5 200.5q0 115 -63 202t-151 87t-151 -87t-63 -202zM42 340q0 143 88.5 250t204.5 107t204.5 -107t88.5 -250t-88.5 -249.5t-204.5 -106.5t-204.5 106.5t-88.5 249.5z" />
<glyph unicode="&#x22b;" horiz-adv-x="532" d="M132 771h267v-45h-267v45zM309 613q0 23 16 38.5t38 15.5q23 0 39 -16t16 -38t-16 -38t-39 -16q-22 0 -38 15.5t-16 38.5zM114 613q0 23 15.5 38.5t38.5 15.5t39 -16t16 -38t-16 -38t-39 -16t-38.5 15.5t-15.5 38.5zM102 234q0 -77 49.5 -132.5t114.5 -55.5t114.5 55.5 t49.5 132.5t-49.5 132.5t-114.5 55.5t-114.5 -55.5t-49.5 -132.5zM34 234q0 101 71.5 175.5t160.5 74.5t160.5 -74.5t71.5 -175.5t-71 -175.5t-159 -74.5q-89 0 -161.5 74.5t-72.5 175.5z" />
<glyph unicode="&#x22e;" horiz-adv-x="670" d="M281 771q0 23 15.5 38.5t37.5 15.5q23 0 39 -16t16 -38t-16 -38t-39 -16q-22 0 -37.5 15.5t-15.5 38.5zM121 340q0 -114 62.5 -200.5t151.5 -86.5t151.5 86.5t62.5 200.5q0 115 -63 202t-151 87t-151 -87t-63 -202zM42 340q0 143 88.5 250t204.5 107t204.5 -107 t88.5 -250t-88.5 -249.5t-204.5 -106.5t-204.5 106.5t-88.5 249.5z" />
<glyph unicode="&#x22f;" horiz-adv-x="532" d="M220 613q0 23 15.5 38.5t37.5 15.5q23 0 39 -16t16 -38t-16 -38t-39 -16q-22 0 -37.5 15.5t-15.5 38.5zM102 234q0 -77 49.5 -132.5t114.5 -55.5t114.5 55.5t49.5 132.5t-49.5 132.5t-114.5 55.5t-114.5 -55.5t-49.5 -132.5zM34 234q0 101 71.5 175.5t160.5 74.5 t160.5 -74.5t71.5 -175.5t-71 -175.5t-159 -74.5q-89 0 -161.5 74.5t-72.5 175.5z" />
<glyph unicode="&#x232;" horiz-adv-x="473" d="M103 790h267v-45h-267v45zM237 432l150 250h87l-201 -335v-347h-74v350l-199 332h87z" />
<glyph unicode="&#x233;" horiz-adv-x="456" d="M92 631h267v-45h-267v45zM228 88l153 380h74l-271 -668h-73l80 199l-190 469h74z" />
<glyph unicode="&#x237;" horiz-adv-x="194" d="M-45 -138h28q34 0 57 25.5t23 60.5v520h68v-520q0 -62 -43.5 -105t-104.5 -43h-28v62z" />
<glyph unicode="&#x23b;" horiz-adv-x="593" d="M553 144q-93 -160 -227 -160q-98 0 -173 80l-42 -64h-54l66 100q-72 102 -72 240q0 145 80.5 251t194.5 106q83 0 151 -62l31 47h55l-54 -81q17 -20 32 -44l-59 -42q-10 16 -15 23l-274 -414q55 -71 133 -71q94 0 162 126zM167 166l270 409q-51 54 -111 54 q-87 0 -143 -86t-56 -203q0 -96 40 -174z" />
<glyph unicode="&#x23c;" horiz-adv-x="481" d="M55 -93h-62l104 166q-59 70 -59 161q0 101 71.5 175.5t160.5 74.5q37 0 75 -16l62 99h63l-78 -124q29 -20 55 -53l-50 -39q-18 24 -38 40l-190 -303q47 -42 101 -42q52 0 80.5 15.5t54.5 49.5l53 -37q-36 -45 -78.5 -67.5t-107.5 -22.5q-71 0 -136 52zM134 131l178 285 q-20 6 -42 6q-65 0 -114.5 -55.5t-49.5 -132.5q0 -55 28 -103z" />
<glyph unicode="&#x241;" horiz-adv-x="460" d="M176 166q0 54 18.5 92.5t44.5 62t52 45.5t44.5 56.5t18.5 81.5q0 56 -36.5 93.5t-98.5 37.5q-45 0 -78.5 -25t-48.5 -71l-63 20q22 63 75.5 100.5t114.5 37.5q86 0 144.5 -55.5t58.5 -137.5q0 -54 -18.5 -92.5t-44.5 -62t-52 -45.5t-44.5 -56.5t-18.5 -81.5v-166h-68v166 z" />
<glyph unicode="&#x242;" horiz-adv-x="448" d="M168 64q0 59 18.5 97t44.5 54.5t52 29t44.5 33t18.5 54.5q0 42 -35.5 66t-99.5 24q-45 0 -78.5 -25t-48.5 -71l-63 20q22 63 75.5 100.5t114.5 37.5q92 0 147.5 -37.5t55.5 -114.5q0 -52 -18.5 -81.5t-44.5 -41.5t-52 -23.5t-44.5 -41t-18.5 -80.5v-64h-68v64z" />
<glyph unicode="&#x243;" horiz-adv-x="575" d="M154 619v-218h127q60 0 93.5 33t33.5 77t-33 76t-94 32h-127zM154 184v-122h143q68 0 112.5 36t44.5 102t-44.5 102t-112.5 36h-143v-106h161v-48h-161zM79 184h-36v48h36v450h202q88 0 148.5 -48t60.5 -123q0 -85 -75 -134q121 -52 121 -177q0 -66 -36 -112.5t-88 -67 t-113 -20.5h-220v184z" />
<glyph unicode="&#x244;" horiz-adv-x="636" d="M37 420v48h36v214h80v-214h330v214h79v-214h47v-48h-47v-137q0 -143 -64.5 -221t-179.5 -78q-116 0 -180.5 78t-64.5 221v137h-36zM483 420h-330v-137q0 -102 40 -166t125 -64t125 64t40 166v137z" />
<glyph unicode="&#x245;" horiz-adv-x="576" d="M288 570l-207 -570h-80l247 680v2h81l-1 -2l248 -680h-80z" />
<glyph unicode="&#x248;" horiz-adv-x="497" d="M246 328v42h95v312h75v-312h84v-42h-84v-123q0 -100 -61 -160.5t-150 -60.5q-61 0 -113.5 39.5t-79.5 103.5l63 30q15 -48 48.5 -75.5t79.5 -27.5q138 0 138 151v123h-95z" />
<glyph unicode="&#x249;" horiz-adv-x="245" d="M-17 -138h28q34 0 57 25.5t23 60.5v288h-72v42h72v190h68v-190h60v-42h-60v-288q0 -62 -43.5 -105t-104.5 -43h-28v62zM71 613q0 23 15.5 38.5t38.5 15.5t38.5 -15.5t15.5 -38.5t-15.5 -38.5t-38.5 -15.5t-38.5 15.5t-15.5 38.5z" />
<glyph unicode="&#x24a;" horiz-adv-x="707" d="M42 340q0 143 88.5 250t204.5 107q62 0 119.5 -34t99.5 -92v111h75l-1 -734q0 -34 25 -57t60 -23h27v-68h-27q-63 0 -111 43.5t-48 104.5v161q-42 -58 -99.5 -91.5t-119.5 -33.5q-116 0 -204.5 106.5t-88.5 249.5zM121 340q0 -114 62.5 -200.5t151.5 -86.5t151.5 86.5 t62.5 200.5q0 115 -63 202t-151 87t-151 -87t-63 -202z" />
<glyph unicode="&#x24b;" d="M498 -52q0 -34 25.5 -57t60.5 -23h27v-68h-27q-62 0 -108 43.5t-46 104.5v113q-71 -77 -162 -77q-89 0 -161.5 74.5t-72.5 175.5t71.5 175.5t160.5 74.5q92 0 164 -78v62h68v-520zM102 234q0 -77 49.5 -132.5t114.5 -55.5t114.5 55.5t49.5 132.5t-49.5 132.5t-114.5 55.5 t-114.5 -55.5t-49.5 -132.5z" />
<glyph unicode="&#x24c;" horiz-adv-x="661" d="M234 619v-275h143q68 0 112.5 35.5t44.5 101.5t-44.5 102t-112.5 36h-143zM159 344v338h218q61 0 113.5 -20.5t89 -67.5t36.5 -113q0 -76 -44.5 -124t-114.5 -66l168 -291h-83l-162 281h-1h-145v-281h-75v281h-150v63h150z" />
<glyph unicode="&#x251;" horiz-adv-x="554" d="M35 234q0 103 62.5 176.5t149.5 73.5q212 0 212 -153v-184q0 -35 22.5 -57.5t56.5 -22.5v-67q-40 0 -73.5 19t-52.5 52q-52 -87 -163 -87q-87 0 -150.5 73.5t-63.5 176.5zM103 234q0 -77 44 -132.5t100 -55.5q29 0 52.5 11t38.5 27t25.5 42t15.5 48.5t8 55.5t3.5 52 t0.5 49q0 91 -144 91q-58 0 -101 -55.5t-43 -132.5z" />
<glyph unicode="&#x253;" d="M131 63v-63h-68v594q0 62 42.5 104.5t104.5 42.5h70v-67h-70q-34 0 -56.5 -22.5t-22.5 -57.5v-188q71 78 164 78q89 0 160.5 -74.5t71.5 -175.5t-71 -175.5t-159 -74.5q-93 0 -166 79zM131 234q0 -77 49.5 -132.5t114.5 -55.5t114.5 55.5t49.5 132.5t-49.5 132.5 t-114.5 55.5t-114.5 -55.5t-49.5 -132.5z" />
<glyph unicode="&#x254;" horiz-adv-x="476" d="M22 394q36 45 78.5 67.5t107.5 22.5q89 0 161.5 -74.5t72.5 -175.5t-71.5 -175.5t-160.5 -74.5q-49 0 -96 25.5t-81 68.5l50 39q50 -71 127 -71q65 0 114.5 55.5t49.5 132.5t-49.5 132.5t-114.5 55.5q-52 0 -80.5 -15.5t-54.5 -49.5z" />
<glyph unicode="&#x256;" d="M498 -53q0 -35 22.5 -57.5t56.5 -22.5h71v-67h-71q-61 0 -104 43t-43 104v114q-71 -77 -162 -77q-89 0 -161.5 74.5t-72.5 175.5t71.5 175.5t160.5 74.5q92 0 164 -78v320h68v-779zM102 234q0 -77 49.5 -132.5t114.5 -55.5t114.5 55.5t49.5 132.5t-49.5 132.5 t-114.5 55.5t-114.5 -55.5t-49.5 -132.5z" />
<glyph unicode="&#x257;" d="M34 234q0 101 71.5 175.5t160.5 74.5q92 0 164 -78v188q0 62 43 104.5t104 42.5h71v-67h-71q-34 0 -56.5 -22.5t-22.5 -57.5v-594h-68v61q-71 -77 -162 -77q-89 0 -161.5 74.5t-72.5 175.5zM102 234q0 -77 49.5 -132.5t114.5 -55.5t114.5 55.5t49.5 132.5t-49.5 132.5 t-114.5 55.5t-114.5 -55.5t-49.5 -132.5z" />
<glyph unicode="&#x259;" horiz-adv-x="527" d="M426 234q0 77 -49.5 133t-114.5 56q-72 0 -104.5 -20t-58.5 -65l-55 36q36 56 84 83t132 27q89 0 161 -74.5t72 -175.5t-71.5 -175.5t-159.5 -74.5q-89 0 -161 74.5t-72 175.5h397zM417 173h-310q17 -55 60.5 -90.5t94.5 -35.5t94.5 35.5t60.5 90.5z" />
<glyph unicode="&#x25b;" horiz-adv-x="424" d="M249 222q-140 0 -140 -88q0 -35 31.5 -58.5t74.5 -23.5q80 0 146 66l44 -44q-27 -27 -43.5 -40.5t-57 -28.5t-91.5 -15q-70 0 -125 39t-55 105q0 86 92 126q-54 33 -54 85q0 62 42.5 97.5t111.5 35.5q20 0 38.5 -5t29 -8.5t27 -18.5t20 -18t20.5 -24l18 -22l-47 -40 q-61 74 -106 74q-40 0 -59 -16.5t-19 -54.5q0 -53 102 -61v-62z" />
<glyph unicode="&#x260;" horiz-adv-x="562" d="M498 18q0 -109 -56.5 -163.5t-149.5 -54.5h-154v62h154q66 0 102 39.5t36 116.5v43q-71 -77 -162 -77q-89 0 -161.5 74.5t-72.5 175.5t71.5 175.5t160.5 74.5q92 0 164 -78v14q0 62 43 104.5t104 42.5h70v-67h-70q-34 0 -56.5 -22.5t-22.5 -57.5v-402zM102 234 q0 -77 49.5 -132.5t114.5 -55.5t114.5 55.5t49.5 132.5t-49.5 132.5t-114.5 55.5t-114.5 -55.5t-49.5 -132.5z" />
<glyph unicode="&#x263;" horiz-adv-x="398" d="M76 468l123 -297l123 297h75l-160 -390l5 -11q43 -104 43 -163q0 -48 -21.5 -76t-64.5 -28t-64.5 28t-21.5 76q0 24 12.5 72.5t30.5 90.5l5 11l-160 390h75zM199 -21q-20 -60 -20 -85q0 -32 20 -32t20 32q0 25 -20 85z" />
<glyph unicode="&#x266;" horiz-adv-x="535" d="M131 425q57 59 139 59q89 0 148 -50.5t59 -137.5v-296h-68v296q0 53 -38 89.5t-101 36.5t-101 -54t-38 -134v-234h-68v579q0 61 42.5 104t104.5 43h70v-67h-70q-34 0 -56.5 -22.5t-22.5 -57.5v-154z" />
<glyph unicode="&#x268;" horiz-adv-x="250" d="M71 613q0 23 15.5 38.5t38.5 15.5t38.5 -15.5t15.5 -38.5t-15.5 -38.5t-38.5 -15.5t-38.5 15.5t-15.5 38.5zM159 236v-236h-68v236h-66v42h66v190h68v-190h66v-42h-66z" />
<glyph unicode="&#x269;" horiz-adv-x="230" d="M217 0q-67 0 -112.5 38t-45.5 110v320h68v-320q0 -80 90 -80v-68z" />
<glyph unicode="&#x26a;" horiz-adv-x="227" d="M186 0h-145v48h35v372h-35v48h145v-48h-35v-372h35v-48z" />
<glyph unicode="&#x26c;" horiz-adv-x="360" d="M207 244q39 16 65.5 53t26.5 89h36q0 -66 -37.5 -114.5t-90.5 -65.5v-206h-68v200q-62 5 -95.5 39t-33.5 87q0 32 22 58t62 26q25 0 45 -14v330h68v-482zM139 236v90q0 21 -13.5 34.5t-31.5 13.5q-21 0 -34.5 -12t-13.5 -36q0 -35 24.5 -60t68.5 -30z" />
<glyph unicode="&#x272;" horiz-adv-x="535" d="M-43 -170v63h26q34 0 57 25.5t23 60.5v489h68v-43q57 59 139 59q89 0 148 -50.5t59 -137.5v-296h-68v296q0 53 -38 89.5t-101 36.5t-101 -54t-38 -134v-255q0 -62 -43.5 -105.5t-104.5 -43.5h-26z" />
<glyph unicode="&#x275;" horiz-adv-x="532" d="M34 234q0 101 71.5 175.5t160.5 74.5t160.5 -74.5t71.5 -175.5t-71 -175.5t-159 -74.5q-89 0 -161.5 74.5t-72.5 175.5zM105 267h322q-10 66 -56.5 110.5t-104.5 44.5t-104.5 -44.5t-56.5 -110.5zM428 205h-324q10 -67 56.5 -113t105.5 -46t105.5 46t56.5 113z" />
<glyph unicode="&#x279;" horiz-adv-x="472" d="M341 248h-86q-66 0 -103 -23.5t-37 -69.5t37 -69.5t103 -23.5h86v186zM409 0h-156q-98 0 -156 40t-58 115q0 109 121 143l-119 170h83l111 -158h20h86v158h68v-468z" />
<glyph unicode="&#x27d;" horiz-adv-x="460" d="M136 -53q0 -35 22.5 -57.5t56.5 -22.5h71v-67h-71q-61 0 -104 43t-43 104v521h68v-37q53 53 129 53q131 0 177 -110l-62 -30q-32 78 -115 78q-62 0 -95.5 -53t-33.5 -135v-287z" />
<glyph unicode="&#x27e;" horiz-adv-x="429" d="M369 344q-32 78 -115 78q-62 0 -95.5 -53t-33.5 -135v-234h-68v234q0 114 55 182t142 68q131 0 177 -110z" />
<glyph unicode="&#x283;" horiz-adv-x="194" d="M131 -52q0 -61 -46 -104.5t-108 -43.5h-27v68h27q35 0 60.5 23t25.5 57v646q0 62 43.5 105t104.5 43h28v-62h-28q-34 0 -57 -25.5t-23 -60.5v-646z" />
<glyph unicode="&#x288;" horiz-adv-x="269" d="M153 406v-459q0 -35 22.5 -57.5t56.5 -22.5h71v-67h-71q-62 0 -104.5 43t-42.5 104v459h-60v62h60v155h68v-155h108v-62h-108z" />
<glyph unicode="&#x289;" d="M29 236v42h44v190h67v-190h278v190h69v-190h45v-42h-45v-236h-69v41q-58 -58 -138 -58q-89 0 -148 51t-59 138v64h-44zM418 236h-278v-64q0 -53 38.5 -89.5t101.5 -36.5t100.5 53.5t37.5 133.5v3z" />
<glyph unicode="&#x28a;" horiz-adv-x="556" d="M516 468v-55h-76q5 -9 20.5 -34t24 -42.5t17 -51t8.5 -71.5q0 -101 -66.5 -165.5t-163.5 -64.5t-165.5 64.5t-68.5 165.5q0 38 8 72t16.5 51t24 42t20.5 34h-75v55h158q0 -30 -13 -59.5t-29 -52t-29 -60.5t-13 -82q0 -75 48.5 -121.5t115.5 -46.5t115.5 46.5t48.5 121.5 q0 44 -13 82t-29 60.5t-29 52t-13 59.5h158z" />
<glyph unicode="&#x28b;" horiz-adv-x="518" d="M371 468q4 -4 11.5 -12t26.5 -34t33.5 -54t26.5 -70t12 -84q0 -104 -57.5 -167t-152.5 -63t-154.5 63.5t-59.5 166.5v254h68v-254q0 -77 39.5 -122.5t104.5 -45.5t104.5 45.5t39.5 122.5q0 36 -13 76t-31.5 70t-37 55.5t-31.5 38.5l-13 14h84z" />
<glyph unicode="&#x28c;" horiz-adv-x="459" d="M267 468l189 -468h-74l-153 380l-153 -380h-74l190 468h75z" />
<glyph unicode="&#x292;" horiz-adv-x="399" d="M13 406v62h328v-62l-188 -208q119 -15 172.5 -71.5t53.5 -126.5q0 -98 -58.5 -149t-151.5 -51q-95 0 -172 77l44 43q60 -60 131 -60q65 0 102 36t37 104q0 51 -59 95.5t-175 44.5v62l184 204h-248z" />
<glyph unicode="&#x294;" horiz-adv-x="487" d="M167 166q0 54 18.5 92.5t44.5 62t52 45.5t44.5 56.5t18.5 81.5q0 56 -36.5 93.5t-98.5 37.5q-45 0 -78.5 -25t-48.5 -71l-63 20q22 63 75.5 100.5t114.5 37.5q86 0 144.5 -55.5t58.5 -137.5q0 -54 -18.5 -92.5t-44.5 -62t-52 -45.5t-44.5 -56.5t-18.5 -81.5v-166h-68v166 z" />
<glyph unicode="&#x295;" horiz-adv-x="487" d="M320 166v-166h-68v166q0 47 -18.5 81.5t-44.5 56.5t-52 45.5t-44.5 62t-18.5 92.5q0 82 58.5 137.5t144.5 55.5q61 0 114.5 -37.5t75.5 -100.5l-63 -20q-15 46 -48.5 71t-78.5 25q-62 0 -98.5 -37.5t-36.5 -93.5q0 -47 18.5 -81.5t44.5 -56.5t52 -45.5t44.5 -62 t18.5 -92.5z" />
<glyph unicode="&#x2b0;" horiz-adv-x="386" d="M324 473v-166h-57v166q0 23 -20.5 38.5t-54.5 15.5q-35 0 -55 -24.5t-20 -61.5v-134h-57v419h57v-173q33 22 75 22q57 0 94.5 -27.5t37.5 -74.5z" />
<glyph unicode="&#x2b2;" horiz-adv-x="220" d="M84 646q0 17 12.5 28t27.5 11q17 0 29 -12t12 -27q0 -16 -13 -27.5t-28 -11.5q-17 0 -28.5 12.5t-11.5 26.5zM31 272h25q18 0 29 10.5t11 24.5v260h57v-260q0 -36 -29 -59t-68 -23h-25v47z" />
<glyph unicode="&#x2b7;" horiz-adv-x="533" d="M134 307l-97 260h60l65 -177l66 177h53l65 -177l66 177h60l-97 -260h-57l-64 169l-63 -169h-57z" />
<glyph unicode="&#x2b8;" horiz-adv-x="502" d="M345 567l-171 -350h-61l52 107l-118 243h62l87 -179l87 179h62z" />
<glyph unicode="&#x2bb;" horiz-adv-x="246" d="M166 613q0 -22 -15.5 -37.5t-38.5 -15.5t-38.5 15.5t-15.5 37.5q0 34 9.5 64t23 48t26.5 31.5t23 19.5l9 5l16 -10q-38 -38 -53 -103q22 0 38 -16t16 -39z" />
<glyph unicode="&#x2bc;" horiz-adv-x="246" d="M58 728q0 22 15.5 37.5t38.5 15.5t38.5 -15.5t15.5 -37.5q0 -34 -9.5 -64t-23 -48t-26.5 -31.5t-23 -18.5l-9 -6l-16 10q38 38 53 103q-22 0 -38 16t-16 39z" />
<glyph unicode="&#x2be;" horiz-adv-x="275" d="M58 482q34 0 57 23t23 57t-23 58t-57 24v53q56 0 95.5 -39.5t39.5 -95.5q0 -55 -39.5 -94t-95.5 -39v53z" />
<glyph unicode="&#x2bf;" horiz-adv-x="275" d="M193 644q-34 0 -57 -23t-23 -57t23 -58t57 -24v-53q-55 0 -95 39.5t-40 95.5q0 55 39.5 94t95.5 39v-53z" />
<glyph unicode="&#x2c0;" horiz-adv-x="408" d="M194 688q-65 0 -86 -58l-54 14q14 42 54.5 67t85.5 25q63 0 105 -35t42 -86q0 -34 -13 -58.5t-31.5 -38.5t-36.5 -27.5t-31 -32.5t-13 -46v-105h-57v105q0 34 13 58.5t31 38.5t36 27.5t31 32.5t13 46q0 32 -24 52.5t-65 20.5z" />
<glyph unicode="&#x2c6;" horiz-adv-x="410" d="M78 567l-19 34l135 124l136 -124l-19 -34l-117 77z" />
<glyph unicode="&#x2c7;" horiz-adv-x="411" d="M310 725l19 -34l-136 -124l-135 124l19 34l116 -77z" />
<glyph unicode="&#x2ca;" horiz-adv-x="389" d="M59 601l216 141l34 -58l-230 -117z" />
<glyph unicode="&#x2cb;" horiz-adv-x="389" d="M289 567l-230 117l34 58l216 -141z" />
<glyph unicode="&#x2d9;" horiz-adv-x="248" d="M58 613q0 23 15.5 38.5t37.5 15.5q23 0 39 -16t16 -38t-16 -38t-39 -16q-22 0 -37.5 15.5t-15.5 38.5z" />
<glyph unicode="&#x2da;" horiz-adv-x="339" d="M108 659q0 -20 14.5 -35t34.5 -15t35 15t15 35t-15 35t-35 15t-34.5 -15t-14.5 -35zM58 659q0 41 29 70.5t70 29.5t70.5 -29.5t29.5 -70.5t-29.5 -70t-70.5 -29t-70 29t-29 70z" />
<glyph unicode="&#x2db;" horiz-adv-x="370" d="M124 -82q0 -68 103 -68q30 0 54 6l7 -26q-58 -16 -104 -16q-57 0 -91.5 23t-34.5 72q0 96 132 115v-24q-41 -13 -53.5 -29.5t-12.5 -52.5z" />
<glyph unicode="&#x2dc;" horiz-adv-x="482" d="M289 634q27 0 45 20t22 43h46q-6 -47 -38.5 -88.5t-74.5 -41.5q-26 0 -47 16t-38 32t-32 16q-27 0 -45.5 -20.5t-22.5 -43.5h-45q6 47 38.5 88.5t74.5 41.5q26 0 47 -15.5t38 -31.5t32 -16z" />
<glyph unicode="&#x300;" horiz-adv-x="0" d="M-253 567l-230 117l34 58l216 -141z" />
<glyph unicode="&#x301;" horiz-adv-x="0" d="M-390 601l216 141l34 -58l-230 -117z" />
<glyph unicode="&#x302;" horiz-adv-x="0" d="M-428 567l-19 34l135 124l136 -124l-19 -34l-117 77z" />
<glyph unicode="&#x303;" horiz-adv-x="0" d="M-252 634q27 0 45 20t22 43h46q-6 -47 -38.5 -88.5t-74.5 -41.5q-26 0 -47 16t-38 32t-32 16q-27 0 -45.5 -20.5t-22.5 -43.5h-45q6 47 38.5 88.5t74.5 41.5q26 0 47 -15.5t38 -31.5t32 -16z" />
<glyph unicode="&#x304;" horiz-adv-x="0" d="M-453 631h267v-45h-267v45z" />
<glyph unicode="&#x306;" horiz-adv-x="0" d="M-217 698h41q-1 -6 -4 -15t-13.5 -33t-24.5 -42t-39 -33t-55 -15t-54.5 14t-39 34.5t-24.5 41t-14 34.5l-3 14h41q22 -45 42 -60q22 -17 52 -17q21 0 37 7t27.5 20.5t16.5 21.5t12 24q1 3 2 4z" />
<glyph unicode="&#x307;" horiz-adv-x="0" d="M-365 613q0 23 15.5 38.5t37.5 15.5q23 0 39 -16t16 -38t-16 -38t-39 -16q-22 0 -37.5 15.5t-15.5 38.5z" />
<glyph unicode="&#x308;" horiz-adv-x="0" d="M-268 613q0 23 16 38.5t38 15.5q23 0 39 -16t16 -38t-16 -38t-39 -16q-22 0 -38 15.5t-16 38.5zM-463 613q0 23 15.5 38.5t38.5 15.5t39 -16t16 -38t-16 -38t-39 -16t-38.5 15.5t-15.5 38.5z" />
<glyph unicode="&#x30a;" horiz-adv-x="0" d="M-361 659q0 -20 14.5 -35t34.5 -15t35 15t15 35t-15 35t-35 15t-34.5 -15t-14.5 -35zM-411 659q0 41 29 70.5t70 29.5t70.5 -29.5t29.5 -70.5t-29.5 -70t-70.5 -29t-70 29t-29 70z" />
<glyph unicode="&#x30b;" horiz-adv-x="0" d="M-258 587l172 192l48 -48l-192 -171zM-430 587l172 192l48 -48l-192 -171z" />
<glyph unicode="&#x30c;" horiz-adv-x="0" d="M-195 725l19 -34l-136 -124l-135 124l19 34l116 -77z" />
<glyph unicode="&#x30d;" horiz-adv-x="0" d="M-292 764v-197h-40v197h40z" />
<glyph unicode="&#x311;" horiz-adv-x="0" d="M-406 567h-41q1 6 4 15t13.5 33t24.5 42t39 33t55 15t54.5 -14t39 -34.5t24.5 -41t13 -34.5l4 -14h-41q-22 45 -42 60q-22 17 -52 17q-21 0 -37 -7t-27.5 -20.5t-16.5 -21.5t-12 -24q-1 -3 -2 -4z" />
<glyph unicode="&#x312;" horiz-adv-x="0" d="M-258 613q0 -22 -15.5 -37.5t-38.5 -15.5t-38.5 15.5t-15.5 37.5q0 34 9.5 64t23 48t26.5 31.5t23 19.5l9 5l16 -10q-38 -38 -53 -103q22 0 38 -16t16 -39z" />
<glyph unicode="&#x313;" horiz-adv-x="0" d="M-366 728q0 22 15.5 37.5t38.5 15.5t38.5 -15.5t15.5 -37.5q0 -34 -9.5 -64t-23 -48t-26.5 -31.5t-23 -18.5l-9 -6l-16 10q38 38 53 103q-22 0 -38 16t-16 39z" />
<glyph unicode="&#x314;" horiz-adv-x="0" d="M-258 728q0 -23 -16 -39t-38 -16q7 -29 20 -54.5t23 -36.5l10 -12l-16 -10q-4 2 -10 6t-21.5 18.5t-27.5 32t-22 47.5t-10 64q0 22 15.5 37.5t38.5 15.5t38.5 -15.5t15.5 -37.5z" />
<glyph unicode="&#x323;" horiz-adv-x="216" d="M-365 -129q0 23 15.5 38.5t37.5 15.5q23 0 39 -16t16 -38t-16 -38t-39 -16q-22 0 -37.5 15.5t-15.5 38.5z" />
<glyph unicode="&#x324;" horiz-adv-x="0" d="M-268 -129q0 23 16 38.5t38 15.5q23 0 39 -16t16 -38t-16 -38t-39 -16q-22 0 -38 15.5t-16 38.5zM-463 -129q0 23 15.5 38.5t38.5 15.5t39 -16t16 -38t-16 -38t-39 -16t-38.5 15.5t-15.5 38.5z" />
<glyph unicode="&#x325;" horiz-adv-x="0" d="M-361 -143q0 -20 14.5 -35t34.5 -15t35 15t15 35t-15 35t-35 15t-34.5 -15t-14.5 -35zM-411 -143q0 41 29 70.5t70 29.5t70.5 -29.5t29.5 -70.5t-29.5 -70t-70.5 -29t-70 29t-29 70z" />
<glyph unicode="&#x326;" horiz-adv-x="0" d="M-366 -92q0 22 15.5 37.5t38.5 15.5t38.5 -15.5t15.5 -37.5q0 -34 -9.5 -64t-23 -48t-26.5 -31.5t-23 -18.5l-9 -6l-16 10q38 38 53 103q-22 0 -38 16t-16 39z" />
<glyph unicode="&#x327;" horiz-adv-x="0" d="M-344 0h51l-33 -68q54 0 80.5 -18t26.5 -39q0 -75 -205 -75v27q50 0 95 11.5t45 30.5q0 10 -7 15.5t-31 9t-70 3.5z" />
<glyph unicode="&#x328;" horiz-adv-x="0" d="M-359 -82q0 -68 103 -68q30 0 54 6l7 -26q-58 -16 -104 -16q-57 0 -91.5 23t-34.5 72q0 96 132 115v-24q-41 -13 -53.5 -29.5t-12.5 -52.5z" />
<glyph unicode="&#x329;" horiz-adv-x="0" d="M-292 -68v-197h-40v197h40z" />
<glyph unicode="&#x32d;" horiz-adv-x="0" d="M-428 -215l-19 34l135 124l136 -124l-19 -34l-117 77z" />
<glyph unicode="&#x330;" horiz-adv-x="0" d="M-252 -132q27 0 45 20t22 43h46q-6 -47 -38.5 -88.5t-74.5 -41.5q-26 0 -47 16t-38 32t-32 16q-27 0 -45.5 -20.5t-22.5 -43.5h-45q6 47 38.5 88.5t74.5 41.5q26 0 47 -15.5t38 -31.5t32 -16z" />
<glyph unicode="&#x331;" horiz-adv-x="0" d="M-453 -69h267v-45h-267v45z" />
<glyph unicode="&#x332;" horiz-adv-x="0" d="M-503 -94h367v-45h-367v45z" />
<glyph unicode="&#x335;" horiz-adv-x="0" d="M-367 293h262v-48h-262v48z" />
<glyph unicode="&#x336;" horiz-adv-x="0" d="M-497 293h497v-48h-497v48z" />
<glyph unicode="&#x337;" horiz-adv-x="0" d="M-340 332l238 167l23 -32l-238 -167z" />
<glyph unicode="&#x338;" horiz-adv-x="0" d="M13 682l-561 -682h-62l560 682h63z" />
<glyph unicode="&#x342;" horiz-adv-x="0" d="M-406 567h-41q1 6 4 15t13.5 33t24.5 42t39 33t55 15t54.5 -14t39 -34.5t24.5 -41t13 -34.5l4 -14h-41q-22 45 -42 60q-22 17 -52 17q-21 0 -37 -7t-27.5 -20.5t-16.5 -21.5t-12 -24q-1 -3 -2 -4z" />
<glyph unicode="&#x345;" horiz-adv-x="0" d="M-205 -202q-50 0 -84 28.5t-34 82.5v49h51v-49q0 -60 67 -60v-51z" />
<glyph unicode="&#x35e;" horiz-adv-x="0" d="M-503 631h775v-45h-775v45z" />
<glyph unicode="&#x35f;" horiz-adv-x="0" d="M-503 -94h775v-45h-775v45z" />
<glyph unicode="&#x37a;" horiz-adv-x="228" d="M173 -202q-50 0 -84 28.5t-34 82.5v49h51v-49q0 -60 67 -60v-51z" />
<glyph unicode="&#x37e;" horiz-adv-x="220" d="M56 418q0 22 16 38t38 16t38 -16t16 -38q0 -23 -16 -39t-38 -16t-38 16t-16 39zM56 47q0 23 16 38.5t38 15.5t38 -15.5t16 -38.5q0 -34 -9.5 -64t-22.5 -48t-26 -31.5t-22 -19.5l-10 -5l-17 10q38 38 53 103q-22 0 -38 16t-16 39z" />
<glyph unicode="&#x384;" horiz-adv-x="285" d="M70 619l89 189l61 -29l-115 -176z" />
<glyph unicode="&#x385;" horiz-adv-x="401" d="M175 686l89 189l61 -29l-115 -176zM248 613q0 23 16 38.5t38 15.5q23 0 39 -16t16 -38t-16 -38t-39 -16q-22 0 -38 15.5t-16 38.5zM53 613q0 23 15.5 38.5t38.5 15.5t39 -16t16 -38t-16 -38t-39 -16t-38.5 15.5t-15.5 38.5z" />
<glyph unicode="&#x386;" horiz-adv-x="595" d="M55 616l89 189l61 -29l-115 -176zM347 680l248 -680h-80l-70 191h-276l-69 -191h-80l247 680v2h81zM307 570l-115 -317h231z" />
<glyph unicode="&#x387;" horiz-adv-x="220" d="M56 254q0 22 16 38t38 16t38 -16t16 -38q0 -23 -16 -39t-38 -16t-38 16t-16 39z" />
<glyph unicode="&#x388;" horiz-adv-x="597" d="M-11 616l89 189l61 -29l-115 -176zM173 0v682h382v-63h-307v-218h240v-61h-240v-278h310v-62h-385z" />
<glyph unicode="&#x389;" horiz-adv-x="690" d="M161 0v682h75v-295h300v295h75v-682h-75v325h-300v-325h-75zM-9 616l89 189l61 -29l-115 -176z" />
<glyph unicode="&#x38a;" horiz-adv-x="382" d="M293 616v-550h36v-66h-147v66h36v550h-36v66h147v-66h-36zM-10 616l89 189l61 -29l-115 -176z" />
<glyph unicode="&#x38c;" horiz-adv-x="704" d="M12 616l89 189l61 -29l-115 -176zM155 340q0 -114 62.5 -200.5t151.5 -86.5t151.5 86.5t62.5 200.5q0 115 -63 202t-151 87t-151 -87t-63 -202zM76 340q0 143 88.5 250t204.5 107t204.5 -107t88.5 -250t-88.5 -249.5t-204.5 -106.5t-204.5 106.5t-88.5 249.5z" />
<glyph unicode="&#x38e;" horiz-adv-x="659" d="M423 432l150 250h87l-201 -335v-347h-74v350l-199 332h87zM20 616l89 189l61 -29l-115 -176z" />
<glyph unicode="&#x38f;" horiz-adv-x="735" d="M8 616l89 189l61 -29l-115 -176zM583 55h70v-55h-158q0 52 11.5 90.5t28.5 64t34 52t28.5 68.5t11.5 99q0 111 -61.5 183t-152.5 72t-152.5 -72t-61.5 -183q0 -57 11.5 -99t28.5 -68.5t34 -52t28.5 -64t11.5 -90.5h-158v55h70q-5 34 -32 82t-50 107t-23 130 q0 140 87.5 232t205.5 92t205.5 -92t87.5 -232q0 -71 -23 -130t-50 -107t-32 -82z" />
<glyph unicode="&#x390;" horiz-adv-x="226" d="M62 686l89 189l61 -29l-115 -176zM135 613q0 23 15.5 38.5t38.5 15.5t39 -16t16 -38t-16 -38t-39 -16t-38.5 15.5t-15.5 38.5zM-60 613q0 23 16 38.5t38 15.5q23 0 39 -16t16 -38t-16 -38t-39 -16q-22 0 -38 15.5t-16 38.5zM217 0q-67 0 -112.5 38t-45.5 110v320h68v-320 q0 -80 90 -80v-68z" />
<glyph unicode="&#x391;" horiz-adv-x="576" d="M328 680l248 -680h-80l-70 191h-276l-69 -191h-80l247 680v2h81zM288 570l-115 -317h231z" />
<glyph unicode="&#x392;" horiz-adv-x="575" d="M79 0v682h202q88 0 148.5 -48t60.5 -123q0 -85 -75 -134q121 -52 121 -177q0 -66 -36 -112.5t-88 -67t-113 -20.5h-220zM154 338v-276h143q68 0 112.5 36t44.5 102t-44.5 102t-112.5 36h-143zM154 619v-218h127q60 0 93.5 33t33.5 77t-33 76t-94 32h-127z" />
<glyph unicode="&#x393;" horiz-adv-x="466" d="M154 619v-619h-75v682h382v-63h-307z" />
<glyph unicode="&#x394;" horiz-adv-x="576" d="M328 680l248 -680h-575l247 680v2h81zM288 570l-185 -508h370z" />
<glyph unicode="&#x395;" horiz-adv-x="503" d="M79 0v682h382v-63h-307v-218h240v-61h-240v-278h310v-62h-385z" />
<glyph unicode="&#x396;" horiz-adv-x="503" d="M38 620v62h426v-75l-341 -545h341v-62h-426v63l347 557h-347z" />
<glyph unicode="&#x397;" horiz-adv-x="608" d="M79 0v682h75v-295h300v295h75v-682h-75v325h-300v-325h-75z" />
<glyph unicode="&#x398;" horiz-adv-x="670" d="M121 340q0 -114 62.5 -200.5t151.5 -86.5t151.5 86.5t62.5 200.5q0 115 -63 202t-151 87t-151 -87t-63 -202zM42 340q0 143 88.5 250t204.5 107t204.5 -107t88.5 -250t-88.5 -249.5t-204.5 -106.5t-204.5 106.5t-88.5 249.5zM186 368h296v-55h-296v55z" />
<glyph unicode="&#x399;" horiz-adv-x="253" d="M164 616v-550h36v-66h-147v66h36v550h-36v66h147v-66h-36z" />
<glyph unicode="&#x39a;" horiz-adv-x="533" d="M79 0v682h75v-321l269 321h97l-254 -303l265 -379h-91l-224 320l-62 -74v-246h-75z" />
<glyph unicode="&#x39b;" horiz-adv-x="576" d="M288 570l-207 -570h-80l247 680v2h81l-1 -2l248 -680h-80z" />
<glyph unicode="&#x39c;" horiz-adv-x="793" d="M79 0v682h81l237 -583l236 583h81v-682h-74v503l-203 -503h-80l-203 502v-502h-75z" />
<glyph unicode="&#x39d;" horiz-adv-x="629" d="M79 0v682h75l322 -559v559h74v-682h-74l-322 557v-557h-75z" />
<glyph unicode="&#x39e;" horiz-adv-x="532" d="M110 396h313v-62h-313v62zM40 682h453v-62h-453v62zM40 62h453v-62h-453v62z" />
<glyph unicode="&#x39f;" horiz-adv-x="670" d="M121 340q0 -114 62.5 -200.5t151.5 -86.5t151.5 86.5t62.5 200.5q0 115 -63 202t-151 87t-151 -87t-63 -202zM42 340q0 143 88.5 250t204.5 107t204.5 -107t88.5 -250t-88.5 -249.5t-204.5 -106.5t-204.5 106.5t-88.5 249.5z" />
<glyph unicode="&#x3a0;" horiz-adv-x="608" d="M79 0v682h75h300h75v-682h-75v620h-300v-620h-75z" />
<glyph unicode="&#x3a1;" horiz-adv-x="557" d="M79 0v682h218q61 0 113.5 -20.5t89 -67.5t36.5 -113t-36 -112.5t-88 -67t-113 -20.5h-145v-281h-75zM154 619v-275h143q68 0 112.5 35.5t44.5 101.5t-44.5 102t-112.5 36h-143z" />
<glyph unicode="&#x3a3;" horiz-adv-x="499" d="M299 336l-171 -274h341v-62h-426v63l170 273l-170 271v75h426v-62h-347z" />
<glyph unicode="&#x3a4;" horiz-adv-x="502" d="M19 620v62h464v-62h-195v-620h-74v620h-195z" />
<glyph unicode="&#x3a5;" horiz-adv-x="473" d="M237 432l150 250h87l-201 -335v-347h-74v350l-199 332h87z" />
<glyph unicode="&#x3a6;" horiz-adv-x="638" d="M358 76v-76h-75v75q-105 13 -181 90t-76 175q0 99 76 176t181 90v76h75v-77q104 -14 179 -90.5t75 -174.5t-75 -174t-179 -90zM358 536v-390q73 14 124 69t51 125t-51 126t-124 70zM283 537q-73 -13 -125.5 -69.5t-52.5 -127.5t52 -126.5t126 -68.5v392z" />
<glyph unicode="&#x3a7;" horiz-adv-x="496" d="M290 349l186 -349h-84l-144 270l-143 -270h-84l185 349l-177 333h84l135 -255l136 255h84z" />
<glyph unicode="&#x3a8;" horiz-adv-x="603" d="M32 539v143h80v-143q0 -86 41 -149t112 -77v369h75v-369q71 15 111.5 77.5t40.5 148.5v143h79v-143q0 -129 -63.5 -207t-167.5 -90v-242h-75v242q-104 12 -168.5 90.5t-64.5 206.5z" />
<glyph unicode="&#x3a9;" horiz-adv-x="680" d="M528 55h70v-55h-158q0 52 11.5 90.5t28.5 64t34 52t28.5 68.5t11.5 99q0 111 -61.5 183t-152.5 72t-152.5 -72t-61.5 -183q0 -57 11.5 -99t28.5 -68.5t34 -52t28.5 -64t11.5 -90.5h-158v55h70q-5 34 -32 82t-50 107t-23 130q0 140 87.5 232t205.5 92t205.5 -92t87.5 -232 q0 -71 -23 -130t-50 -107t-32 -82z" />
<glyph unicode="&#x3aa;" horiz-adv-x="253" d="M171 771q0 23 15.5 38.5t38.5 15.5t39 -16t16 -38t-16 -38t-39 -16t-38.5 15.5t-15.5 38.5zM-24 771q0 23 16 38.5t38 15.5q23 0 39 -16t16 -38t-16 -38t-39 -16q-22 0 -38 15.5t-16 38.5zM164 616v-550h36v-66h-147v66h36v550h-36v66h147v-66h-36z" />
<glyph unicode="&#x3ab;" horiz-adv-x="473" d="M280 771q0 23 16 38.5t38 15.5q23 0 39 -16t16 -38t-16 -38t-39 -16q-22 0 -38 15.5t-16 38.5zM85 771q0 23 15.5 38.5t38.5 15.5t39 -16t16 -38t-16 -38t-39 -16t-38.5 15.5t-15.5 38.5zM237 432l150 250h87l-201 -335v-347h-74v350l-199 332h87z" />
<glyph unicode="&#x3ac;" horiz-adv-x="597" d="M246 570l89 189l61 -29l-115 -176zM474 468h71l-62 -216v-18q0 -114 8 -150.5t33 -36.5q12 0 30 15l40 -48q-14 -12 -20.5 -16.5t-21 -9t-33.5 -4.5q-44 0 -65.5 20t-30.5 79q-62 -99 -165 -99q-104 0 -163.5 67.5t-59.5 182.5q0 103 65 176.5t152 73.5q60 0 112.5 -27 t83.5 -80zM414 258q-7 76 -53.5 120t-108.5 44q-64 0 -106.5 -54.5t-42.5 -133.5q0 -87 39.5 -137.5t113.5 -50.5q51 0 86.5 43t47.5 85z" />
<glyph unicode="&#x3ad;" horiz-adv-x="424" d="M207 570l89 189l61 -29l-115 -176zM249 222q-140 0 -140 -88q0 -35 31.5 -58.5t74.5 -23.5q80 0 146 66l44 -44q-27 -27 -43.5 -40.5t-57 -28.5t-91.5 -15q-70 0 -125 39t-55 105q0 86 92 126q-54 33 -54 85q0 62 42.5 97.5t111.5 35.5q20 0 38.5 -5t29 -8.5t27 -18.5 t20 -18t20.5 -24l18 -22l-47 -40q-61 74 -106 74q-40 0 -59 -16.5t-19 -54.5q0 -53 102 -61v-62z" />
<glyph unicode="&#x3ae;" horiz-adv-x="535" d="M258 570l89 189l61 -29l-115 -176zM409 -200v496q0 53 -38 89.5t-101 36.5t-101 -54t-38 -134v-234h-68v468h68v-43q57 59 139 59q89 0 148 -50.5t59 -137.5v-496h-68z" />
<glyph unicode="&#x3af;" horiz-adv-x="226" d="M79 570l89 189l61 -29l-115 -176zM217 0q-67 0 -112.5 38t-45.5 110v320h68v-320q0 -80 90 -80v-68z" />
<glyph unicode="&#x3b0;" horiz-adv-x="530" d="M235 686l89 189l61 -29l-115 -176zM308 613q0 23 16 38.5t38 15.5q23 0 39 -16t16 -38t-16 -38t-39 -16q-22 0 -38 15.5t-16 38.5zM113 613q0 23 15.5 38.5t38.5 15.5t39 -16t16 -38t-16 -38t-39 -16t-38.5 15.5t-15.5 38.5zM265 46q63 0 101.5 36.5t38.5 89.5v296h67 v-296q0 -87 -59 -138t-148 -51t-148 51t-59 138v296h67v-296q0 -53 38.5 -89.5t101.5 -36.5z" />
<glyph unicode="&#x3b1;" horiz-adv-x="597" d="M474 468h71l-62 -216v-18q0 -114 8 -150.5t33 -36.5q12 0 30 15l40 -48q-14 -12 -20.5 -16.5t-21 -9t-33.5 -4.5q-44 0 -65.5 20t-30.5 79q-62 -99 -165 -99q-104 0 -163.5 67.5t-59.5 182.5q0 103 65 176.5t152 73.5q60 0 112.5 -27t83.5 -80zM414 258q-7 76 -53.5 120 t-108.5 44q-64 0 -106.5 -54.5t-42.5 -133.5q0 -87 39.5 -137.5t113.5 -50.5q51 0 86.5 43t47.5 85z" />
<glyph unicode="&#x3b2;" horiz-adv-x="541" d="M131 69v-270h-68v639q0 120 22 187.5t63 93t111 25.5q168 0 168 -158q0 -42 -25.5 -80.5t-69.5 -64.5q77 -33 125 -97t48 -142q0 -95 -49.5 -156t-153.5 -61q-103 0 -171 84zM202 468q73 0 114.5 37t41.5 87q0 46 -24 68t-75 22q-32 0 -53.5 -9t-39.5 -32.5t-26.5 -69.5 t-8.5 -115v-254q23 -60 65 -107.5t106 -47.5q63 0 98.5 43t35.5 113q0 75 -69.5 139t-164.5 64v62z" />
<glyph unicode="&#x3b3;" horiz-adv-x="398" d="M76 468l123 -297l123 297h75l-160 -390l5 -11q43 -104 43 -163q0 -48 -21.5 -76t-64.5 -28t-64.5 28t-21.5 76q0 24 12.5 72.5t30.5 90.5l5 11l-160 390h75zM199 -21q-20 -60 -20 -85q0 -32 20 -32t20 32q0 25 -20 85z" />
<glyph unicode="&#x3b4;" horiz-adv-x="534" d="M103 234q0 -77 49.5 -132.5t114.5 -55.5t114.5 55.5t49.5 132.5t-49.5 132.5t-114.5 55.5t-114.5 -55.5t-49.5 -132.5zM271 726h135v-62h-131q-75 0 -75 -38q0 -24 25 -44l187 -158q87 -73 87 -190q0 -101 -71 -175.5t-159 -74.5q-89 0 -161.5 74.5t-72.5 175.5 q0 92 61 163.5t142 84.5l-75 64q-42 36 -42 78q0 45 35.5 73.5t114.5 28.5z" />
<glyph unicode="&#x3b5;" horiz-adv-x="424" d="M249 222q-140 0 -140 -88q0 -35 31.5 -58.5t74.5 -23.5q80 0 146 66l44 -44q-27 -27 -43.5 -40.5t-57 -28.5t-91.5 -15q-70 0 -125 39t-55 105q0 86 92 126q-54 33 -54 85q0 62 42.5 97.5t111.5 35.5q20 0 38.5 -5t29 -8.5t27 -18.5t20 -18t20.5 -24l18 -22l-47 -40 q-61 74 -106 74q-40 0 -59 -16.5t-19 -54.5q0 -53 102 -61v-62z" />
<glyph unicode="&#x3b6;" horiz-adv-x="421" d="M103 726h321v-62l-112 -79q-61 -43 -106 -105t-66 -123t-30 -106t-9 -75q0 -122 108 -122q33 0 54 5t46 5q55 0 86.5 -35t31.5 -87q0 -47 -36.5 -81.5t-91.5 -34.5v62q25 0 45.5 15t20.5 39q0 60 -56 60q-23 0 -43.5 -5t-56.5 -5q-91 0 -130.5 46t-39.5 138q0 38 9 86.5 t32 115.5t74 136.5t123 120.5l40 29h-214v62z" />
<glyph unicode="&#x3b7;" horiz-adv-x="535" d="M409 -200v496q0 53 -38 89.5t-101 36.5t-101 -54t-38 -134v-234h-68v468h68v-43q57 59 139 59q89 0 148 -50.5t59 -137.5v-496h-68z" />
<glyph unicode="&#x3b8;" horiz-adv-x="545" d="M273 -16q-74 0 -126.5 55.5t-76 139t-23.5 183.5t23.5 183.5t76 139.5t126.5 56q73 0 125.5 -55.5t76.5 -139.5t24 -184t-24 -183.5t-76.5 -139t-125.5 -55.5zM419 330h-292q3 -73 19.5 -134t49.5 -102t77 -41q65 0 103 81t43 196zM419 390q-5 116 -43 199.5t-103 83.5 q-66 0 -104 -83.5t-42 -199.5h292z" />
<glyph unicode="&#x3b9;" horiz-adv-x="226" d="M217 0q-67 0 -112.5 38t-45.5 110v320h68v-320q0 -80 90 -80v-68z" />
<glyph unicode="&#x3ba;" horiz-adv-x="436" d="M63 0v468h68v-186l185 186h98l-180 -180l194 -288h-83l-160 239l-54 -53v-186h-68z" />
<glyph unicode="&#x3bb;" horiz-adv-x="458" d="M229 380l-153 -380h-74l190 469l-85 213h72l277 -682h-74z" />
<glyph unicode="&#x3bc;" horiz-adv-x="579" d="M447 75q-65 -92 -172 -92q-90 0 -145 84v-267h-67v668h67v-97q0 -158 39 -241.5t106 -83.5q75 0 123.5 71t48.5 238v113h69v-468h-69v75z" />
<glyph unicode="&#x3bd;" horiz-adv-x="456" d="M190 0l-189 468h74l153 -380l153 380h74l-190 -468h-75z" />
<glyph unicode="&#x3be;" horiz-adv-x="437" d="M206 -8q-72 0 -121 59t-49 154q0 74 39 133t105 95q-106 36 -106 125q0 67 41 106h-79v62h307v-62q-40 0 -70.5 -3.5t-62.5 -14t-49.5 -33t-17.5 -55.5q0 -84 200 -84v-62q-120 0 -179 -58t-59 -149q0 -69 29 -110t72 -41q34 0 63 5t54 5q55 0 86.5 -35t31.5 -87 q0 -47 -36.5 -81.5t-91.5 -34.5v62q25 0 45.5 15t20.5 39q0 60 -56 60q-23 0 -52 -5t-65 -5z" />
<glyph unicode="&#x3bf;" horiz-adv-x="532" d="M102 234q0 -77 49.5 -132.5t114.5 -55.5t114.5 55.5t49.5 132.5t-49.5 132.5t-114.5 55.5t-114.5 -55.5t-49.5 -132.5zM34 234q0 101 71.5 175.5t160.5 74.5t160.5 -74.5t71.5 -175.5t-71 -175.5t-159 -74.5q-89 0 -161.5 74.5t-72.5 175.5z" />
<glyph unicode="&#x3c0;" horiz-adv-x="578" d="M25 468h528v-62h-68v-406h-68v406h-256v-406h-68v406h-68v62z" />
<glyph unicode="&#x3c1;" horiz-adv-x="553" d="M123 63v-262h-68v433q0 101 71.5 175.5t160.5 74.5t160.5 -74.5t71.5 -175.5t-71 -175.5t-159 -74.5q-93 0 -166 79zM123 234q0 -77 49.5 -132.5t114.5 -55.5t114.5 55.5t49.5 132.5t-49.5 132.5t-114.5 55.5t-114.5 -55.5t-49.5 -132.5z" />
<glyph unicode="&#x3c2;" horiz-adv-x="466" d="M450 484v-62q-73 0 -123.5 -4.5t-96.5 -18t-72.5 -37.5t-42 -63t-15.5 -95q0 -34 7.5 -63.5t33.5 -56.5t69 -30q113 -7 164.5 -30t51.5 -82q0 -50 -31 -83t-97 -33v62q66 0 66 54q0 14 -12.5 24t-38 14.5t-43.5 6.5t-48 4q-11 1 -16 1q-168 12 -168 212q0 158 100 219 t312 61z" />
<glyph unicode="&#x3c3;" d="M102 234q0 -77 49.5 -132.5t114.5 -55.5t114.5 55.5t49.5 132.5t-49.5 132.5t-114.5 55.5t-114.5 -55.5t-49.5 -132.5zM414 422q84 -77 84 -188q0 -101 -71 -175.5t-159 -74.5q-89 0 -161.5 74.5t-72.5 175.5t71.5 175.5t160.5 74.5h275v-62h-127z" />
<glyph unicode="&#x3c4;" horiz-adv-x="456" d="M262 406v-406h-68v406h-181v62h430v-62h-181z" />
<glyph unicode="&#x3c5;" horiz-adv-x="530" d="M265 46q63 0 101.5 36.5t38.5 89.5v296h67v-296q0 -87 -59 -138t-148 -51t-148 51t-59 138v296h67v-296q0 -53 38.5 -89.5t101.5 -36.5z" />
<glyph unicode="&#x3c6;" horiz-adv-x="634" d="M318 484q121 0 200.5 -63t79.5 -187q0 -115 -67.5 -177.5t-176.5 -71.5v-184h-68v184q-108 9 -178 72t-70 177q0 86 36 138.5t107 94.5l36 -52q-55 -32 -83 -71t-28 -110q0 -92 50 -136t130 -51v407q0 14 9.5 22t22.5 8zM354 420v-372q80 7 128 51.5t48 134.5t-48 134.5 t-128 51.5z" />
<glyph unicode="&#x3c7;" horiz-adv-x="419" d="M172 138l-154 330h76l116 -250l116 250h76l-154 -330l157 -338h-75l-120 257l-120 -257h-75z" />
<glyph unicode="&#x3c8;" horiz-adv-x="608" d="M338 -15v-184h-68v184q-99 9 -156 71t-57 166v246h67v-246q0 -159 146 -174v420h68v-420q146 15 146 174v246h67v-246q0 -104 -57 -166t-156 -71z" />
<glyph unicode="&#x3c9;" horiz-adv-x="703" d="M382 361q2 -152 25.5 -232.5t83.5 -80.5q44 0 74.5 46.5t30.5 153.5q0 17 -2 33.5t-6 32t-8 28.5t-11 27.5t-11.5 24t-13 23t-12 19t-12.5 18t-10 14.5h77q76 -103 76 -222q0 -135 -52 -197.5t-120 -62.5q-100 0 -139 114q-39 -114 -140 -114q-68 0 -120 62.5t-52 197.5 q0 119 76 222h77q-1 -2 -10 -14.5t-12.5 -18t-12 -19t-13 -23t-11.5 -24t-11 -27.5t-8 -28.5t-6 -32t-2 -33.5q0 -107 30.5 -153.5t74.5 -46.5q60 0 83.5 80.5t25.5 232.5h61z" />
<glyph unicode="&#x3ca;" horiz-adv-x="226" d="M135 613q0 23 15.5 38.5t38.5 15.5t39 -16t16 -38t-16 -38t-39 -16t-38.5 15.5t-15.5 38.5zM-60 613q0 23 16 38.5t38 15.5q23 0 39 -16t16 -38t-16 -38t-39 -16q-22 0 -38 15.5t-16 38.5zM217 0q-67 0 -112.5 38t-45.5 110v320h68v-320q0 -80 90 -80v-68z" />
<glyph unicode="&#x3cb;" horiz-adv-x="530" d="M308 613q0 23 15.5 38.5t38.5 15.5t39 -16t16 -38t-16 -38t-39 -16t-38.5 15.5t-15.5 38.5zM113 613q0 23 16 38.5t38 15.5q23 0 39 -16t16 -38t-16 -38t-39 -16q-22 0 -38 15.5t-16 38.5zM265 46q63 0 101.5 36.5t38.5 89.5v296h67v-296q0 -87 -59 -138t-148 -51 t-148 51t-59 138v296h67v-296q0 -53 38.5 -89.5t101.5 -36.5z" />
<glyph unicode="&#x3cc;" horiz-adv-x="532" d="M257 570l89 189l61 -29l-115 -176zM102 234q0 -77 49.5 -132.5t114.5 -55.5t114.5 55.5t49.5 132.5t-49.5 132.5t-114.5 55.5t-114.5 -55.5t-49.5 -132.5zM34 234q0 101 71.5 175.5t160.5 74.5t160.5 -74.5t71.5 -175.5t-71 -175.5t-159 -74.5q-89 0 -161.5 74.5 t-72.5 175.5z" />
<glyph unicode="&#x3cd;" horiz-adv-x="530" d="M253 570l89 189l61 -29l-115 -176zM265 46q63 0 101.5 36.5t38.5 89.5v296h67v-296q0 -87 -59 -138t-148 -51t-148 51t-59 138v296h67v-296q0 -53 38.5 -89.5t101.5 -36.5z" />
<glyph unicode="&#x3ce;" horiz-adv-x="703" d="M343 570l89 189l61 -29l-115 -176zM382 361q2 -152 25.5 -232.5t83.5 -80.5q44 0 74.5 46.5t30.5 153.5q0 17 -2 33.5t-6 32t-8 28.5t-11 27.5t-11.5 24t-13 23t-12 19t-12.5 18t-10 14.5h77q76 -103 76 -222q0 -135 -52 -197.5t-120 -62.5q-100 0 -139 114 q-39 -114 -140 -114q-68 0 -120 62.5t-52 197.5q0 119 76 222h77q-1 -2 -10 -14.5t-12.5 -18t-12 -19t-13 -23t-11.5 -24t-11 -27.5t-8 -28.5t-6 -32t-2 -33.5q0 -107 30.5 -153.5t74.5 -46.5q60 0 83.5 80.5t25.5 232.5h61z" />
<glyph unicode="&#x400;" horiz-adv-x="503" d="M344 725l-230 117l34 58l216 -141zM79 0v682h382v-63h-307v-218h240v-61h-240v-278h310v-62h-385z" />
<glyph unicode="&#x401;" horiz-adv-x="503" d="M329 771q0 23 15.5 38.5t38.5 15.5t39 -16t16 -38t-16 -38t-39 -16t-38.5 15.5t-15.5 38.5zM134 771q0 23 16 38.5t38 15.5q23 0 39 -16t16 -38t-16 -38t-39 -16q-22 0 -38 15.5t-16 38.5zM79 0v682h382v-63h-307v-218h240v-61h-240v-278h310v-62h-385z" />
<glyph unicode="&#x402;" horiz-adv-x="708" d="M19 620v62h464v-62h-195v-200q56 58 155 58q116 0 172.5 -66t56.5 -208q0 -156 -56.5 -227.5t-189.5 -71.5v62q91 0 129 53t38 184q0 102 -32.5 154t-117.5 52q-155 0 -155 -231v-179h-74v620h-195z" />
<glyph unicode="&#x403;" horiz-adv-x="466" d="M207 759l216 141l34 -58l-230 -117zM154 619v-619h-75v682h382v-63h-307z" />
<glyph unicode="&#x404;" horiz-adv-x="573" d="M546 144q-93 -160 -227 -160q-114 0 -194.5 105.5t-80.5 250.5t80.5 251t194.5 106q124 0 215 -140l-59 -42q-69 114 -156 114q-81 0 -135.5 -75t-62.5 -182h264v-62h-264q8 -108 62.5 -182.5t135.5 -74.5q94 0 162 126z" />
<glyph unicode="&#x405;" horiz-adv-x="552" d="M278 307q-108 29 -164.5 76t-56.5 129q0 90 57 137.5t162 47.5q127 0 218 -117l-56 -47q-71 96 -162 96q-77 0 -110 -28t-33 -89q0 -23 7.5 -41.5t16 -29.5t28.5 -21t31.5 -14.5t39.5 -13t38 -11.5q102 -35 133 -53q87 -51 87 -158q0 -89 -67 -137.5t-184 -48.5 q-66 0 -128 38t-104 103l59 42q30 -50 77 -82t96 -32q90 0 132.5 28.5t42.5 88.5q0 59 -36.5 86.5t-123.5 50.5z" />
<glyph unicode="&#x406;" horiz-adv-x="253" d="M164 616v-550h36v-66h-147v66h36v550h-36v66h147v-66h-36z" />
<glyph unicode="&#x407;" horiz-adv-x="253" d="M171 771q0 23 15.5 38.5t38.5 15.5t39 -16t16 -38t-16 -38t-39 -16t-38.5 15.5t-15.5 38.5zM-24 771q0 23 16 38.5t38 15.5q23 0 39 -16t16 -38t-16 -38t-39 -16q-22 0 -38 15.5t-16 38.5zM164 616v-550h36v-66h-147v66h36v550h-36v66h147v-66h-36z" />
<glyph unicode="&#x408;" horiz-adv-x="490" d="M75 157q15 -48 48.5 -75.5t79.5 -27.5q138 0 138 151v477h75v-477q0 -100 -61 -160.5t-150 -60.5q-61 0 -113.5 39.5t-79.5 103.5z" />
<glyph unicode="&#x409;" horiz-adv-x="884" d="M216 148q0 -62 -43 -105t-105 -43h-68v62h61q34 0 57 25.5t23 60.5v534h340v-282h143q61 0 113.5 -20.5t89 -67t36.5 -112.5t-36 -112.5t-88 -67t-113 -20.5h-220v620h-190v-472zM481 62h143q68 0 112.5 36t44.5 102t-44.5 102t-112.5 36h-143v-276z" />
<glyph unicode="&#x40a;" horiz-adv-x="899" d="M79 0v682h75v-282h267v282h76v-282h142q61 0 113.5 -20.5t89 -67t36.5 -112.5t-36 -112.5t-88 -67t-113 -20.5h-220v338h-267v-338h-75zM497 338v-276h142q68 0 112.5 36t44.5 102t-44.5 102t-112.5 36h-142z" />
<glyph unicode="&#x40b;" horiz-adv-x="707" d="M593 0v179q0 231 -150 231q-155 0 -155 -231v-179h-74v620h-195v62h464v-62h-195v-200q56 58 155 58q224 0 224 -299v-179h-74z" />
<glyph unicode="&#x40c;" horiz-adv-x="552" d="M234 761l216 141l34 -58l-230 -117zM79 0v682h75v-304q45 10 80 45t59 77.5t50 84t67.5 69.5t98.5 28q0 -15 1 -36.5t1 -37.5q-38 0 -69.5 -25t-50.5 -58t-48.5 -79t-56.5 -74q100 -83 172.5 -191t72.5 -181h-91q0 65 -54.5 154.5t-161.5 171.5q-33 -17 -70 -22v-304h-75 z" />
<glyph unicode="&#x40d;" horiz-adv-x="629" d="M379 726l-230 117l34 58l216 -141zM550 0h-75v557l-322 -557h-74v682h74v-559l322 559h75v-682z" />
<glyph unicode="&#x40e;" horiz-adv-x="447" d="M246 719h-26q-60 0 -98 18t-38 47q0 20 21 44h39q-6 -16 -6 -27q0 -37 82 -37h26q82 0 82 37q0 11 -6 27h39q21 -24 21 -44q0 -29 -38 -47t-98 -18zM446 682l-182 -530q-52 -152 -212 -152v62q100 0 134 97l20 57l-188 466h81l144 -359l124 359h79z" />
<glyph unicode="&#x40f;" horiz-adv-x="628" d="M355 0v-82h-75v82h-201v682h75v-620h320v620h75v-682h-194z" />
<glyph unicode="&#x410;" horiz-adv-x="576" d="M328 680l248 -680h-80l-70 191h-276l-69 -191h-80l247 680v2h81zM288 570l-115 -317h231z" />
<glyph unicode="&#x411;" horiz-adv-x="568" d="M79 0v682h402v-63h-327v-219h143q61 0 113.5 -20.5t89 -67t36.5 -112.5t-36 -112.5t-88 -67t-113 -20.5h-220zM154 338v-276h143q68 0 112.5 36t44.5 102t-44.5 102t-112.5 36h-143z" />
<glyph unicode="&#x412;" horiz-adv-x="575" d="M79 0v682h202q88 0 148.5 -48t60.5 -123q0 -85 -75 -134q121 -52 121 -177q0 -66 -36 -112.5t-88 -67t-113 -20.5h-220zM154 338v-276h143q68 0 112.5 36t44.5 102t-44.5 102t-112.5 36h-143zM154 619v-218h127q60 0 93.5 33t33.5 77t-33 76t-94 32h-127z" />
<glyph unicode="&#x413;" horiz-adv-x="466" d="M154 619v-619h-75v682h382v-63h-307z" />
<glyph unicode="&#x414;" horiz-adv-x="637" d="M83 0v-82h-75v144h65q45 108 77 274t32 346h365v-620h38v-144h-75v82h-38h-389zM156 62h316v558h-215q0 -302 -101 -558z" />
<glyph unicode="&#x415;" horiz-adv-x="503" d="M79 0v682h382v-63h-307v-218h240v-61h-240v-278h310v-62h-385z" />
<glyph unicode="&#x416;" horiz-adv-x="872" d="M42 608q0 16 1 37.5t1 36.5q57 0 98.5 -28t67.5 -69.5t50 -84t59 -77.5t80 -45v304h75v-304q45 10 80 45t59 77.5t50 84t67.5 69.5t98.5 28q0 -15 1 -36.5t1 -37.5q-38 0 -69.5 -25t-50.5 -58t-48.5 -79t-56.5 -74q100 -83 172.5 -191t72.5 -181h-91q0 65 -54.5 154.5 t-161.5 171.5q-33 -17 -70 -22v-304h-75v304q-37 5 -70 22q-107 -82 -161.5 -171.5t-54.5 -154.5h-91q0 73 72.5 181t172.5 191q-27 28 -56.5 74t-48.5 79t-50.5 58t-69.5 25z" />
<glyph unicode="&#x417;" horiz-adv-x="513" d="M369 365q101 -46 101 -163q0 -104 -65.5 -161t-170.5 -57q-85 0 -136 24t-88 71l53 42q49 -69 171 -69q68 0 114.5 39.5t46.5 94.5q0 62 -48.5 101.5t-134.5 39.5v67q84 0 122 33t38 84q0 48 -34.5 83.5t-88.5 35.5q-40 0 -82.5 -12t-66.5 -40l-50 47q34 37 90.5 54.5 t108.5 17.5q86 0 142 -46.5t56 -139.5q0 -97 -78 -146z" />
<glyph unicode="&#x418;" horiz-adv-x="629" d="M550 0h-75v557l-322 -557h-74v682h74v-559l322 559h75v-682z" />
<glyph unicode="&#x419;" horiz-adv-x="629" d="M333 719h-26q-60 0 -98 18t-38 47q0 20 21 44h39q-6 -16 -6 -27q0 -37 82 -37h26q82 0 82 37q0 11 -6 27h39q21 -24 21 -44q0 -29 -38 -47t-98 -18zM550 0h-75v557l-322 -557h-74v682h74v-559l322 559h75v-682z" />
<glyph unicode="&#x41a;" horiz-adv-x="552" d="M79 0v682h75v-304q45 10 80 45t59 77.5t50 84t67.5 69.5t98.5 28q0 -15 1 -36.5t1 -37.5q-38 0 -69.5 -25t-50.5 -58t-48.5 -79t-56.5 -74q100 -83 172.5 -191t72.5 -181h-91q0 65 -54.5 154.5t-161.5 171.5q-33 -17 -70 -22v-304h-75z" />
<glyph unicode="&#x41b;" horiz-adv-x="639" d="M216 148q0 -62 -43 -105t-105 -43h-68v62h61q34 0 57 25.5t23 60.5v534h419v-682h-75v620h-269v-472z" />
<glyph unicode="&#x41c;" horiz-adv-x="793" d="M79 0v682h81l237 -583l236 583h81v-682h-74v503l-203 -503h-80l-203 502v-502h-75z" />
<glyph unicode="&#x41d;" horiz-adv-x="608" d="M79 0v682h75v-295h300v295h75v-682h-75v325h-300v-325h-75z" />
<glyph unicode="&#x41e;" horiz-adv-x="670" d="M121 340q0 -114 62.5 -200.5t151.5 -86.5t151.5 86.5t62.5 200.5q0 115 -63 202t-151 87t-151 -87t-63 -202zM42 340q0 143 88.5 250t204.5 107t204.5 -107t88.5 -250t-88.5 -249.5t-204.5 -106.5t-204.5 106.5t-88.5 249.5z" />
<glyph unicode="&#x41f;" horiz-adv-x="608" d="M79 0v682h75h300h75v-682h-75v620h-300v-620h-75z" />
<glyph unicode="&#x420;" horiz-adv-x="557" d="M79 0v682h218q61 0 113.5 -20.5t89 -67.5t36.5 -113t-36 -112.5t-88 -67t-113 -20.5h-145v-281h-75zM154 619v-275h143q68 0 112.5 35.5t44.5 101.5t-44.5 102t-112.5 36h-143z" />
<glyph unicode="&#x421;" horiz-adv-x="573" d="M546 144q-93 -160 -227 -160q-114 0 -194.5 105.5t-80.5 250.5t80.5 251t194.5 106q124 0 215 -140l-59 -42q-69 114 -156 114t-143 -86t-56 -203t56 -202t143 -85q94 0 162 126z" />
<glyph unicode="&#x422;" horiz-adv-x="502" d="M19 620v62h464v-62h-195v-620h-74v620h-195z" />
<glyph unicode="&#x423;" horiz-adv-x="447" d="M446 682l-182 -530q-52 -152 -212 -152v62q100 0 134 97l20 57l-188 466h81l144 -359l124 359h79z" />
<glyph unicode="&#x424;" horiz-adv-x="638" d="M358 76v-76h-75v75q-105 13 -181 90t-76 175q0 99 76 176t181 90v76h75v-77q104 -14 179 -90.5t75 -174.5t-75 -174t-179 -90zM358 536v-390q73 14 124 69t51 125t-51 126t-124 70zM283 537q-73 -13 -125.5 -69.5t-52.5 -127.5t52 -126.5t126 -68.5v392z" />
<glyph unicode="&#x425;" horiz-adv-x="496" d="M290 349l186 -349h-84l-144 270l-143 -270h-84l185 349l-177 333h84l135 -255l136 255h84z" />
<glyph unicode="&#x426;" horiz-adv-x="679" d="M640 62v-144h-75v82h-486v682h75v-620h340v620h75v-620h71z" />
<glyph unicode="&#x427;" horiz-adv-x="585" d="M430 524v158h76v-682h-76v326q-64 -64 -161 -64q-106 0 -171.5 75t-65.5 187v158h75v-158q0 -82 43.5 -140.5t118.5 -58.5t118 58t43 141z" />
<glyph unicode="&#x428;" horiz-adv-x="883" d="M804 682v-682h-725v682h75v-620h250v620h75v-620h250v620h75z" />
<glyph unicode="&#x429;" horiz-adv-x="915" d="M876 62v-144h-75v82h-722v682h75v-620h250v620h75v-620h250v620h75v-620h72z" />
<glyph unicode="&#x42a;" horiz-adv-x="628" d="M225 338v-276h143q68 0 112.5 36t44.5 102t-44.5 102t-112.5 36h-143zM370 0h-220v619h-141v63h216v-282h143q61 0 113.5 -20.5t89 -67t36.5 -112.5t-36 -112.5t-88 -67t-113 -20.5z" />
<glyph unicode="&#x42b;" horiz-adv-x="783" d="M694 616v-550h36v-66h-147v66h36v550h-36v66h147v-66h-36zM79 0v682h75v-282h143q61 0 113.5 -20.5t89 -67t36.5 -112.5t-36 -112.5t-88 -67t-113 -20.5h-220zM154 338v-276h143q68 0 112.5 36t44.5 102t-44.5 102t-112.5 36h-143z" />
<glyph unicode="&#x42c;" horiz-adv-x="557" d="M79 0v682h75v-282h143q61 0 113.5 -20.5t89 -67t36.5 -112.5t-36 -112.5t-88 -67t-113 -20.5h-220zM154 338v-276h143q68 0 112.5 36t44.5 102t-44.5 102t-112.5 36h-143z" />
<glyph unicode="&#x42d;" horiz-adv-x="573" d="M27 144l65 35q68 -126 162 -126q81 0 135.5 74.5t62.5 182.5h-265v62h265q-8 107 -62.5 182t-135.5 75q-87 0 -156 -114l-59 42q91 140 215 140q114 0 194.5 -106t80.5 -251t-80.5 -250.5t-194.5 -105.5q-134 0 -227 160z" />
<glyph unicode="&#x42e;" horiz-adv-x="891" d="M79 0v682h75v-310h110q10 133 97 229t195 96q116 0 204.5 -107t88.5 -250t-88.5 -249.5t-204.5 -106.5q-109 0 -195.5 96t-96.5 230h-110v-310h-75zM342 340q0 -114 62.5 -200.5t151.5 -86.5t151.5 86.5t62.5 200.5q0 115 -63 202t-151 87t-151 -87t-63 -202z" />
<glyph unicode="&#x42f;" horiz-adv-x="562" d="M408 619h-102q-68 0 -112.5 -36t-44.5 -102t44.5 -101.5t112.5 -35.5h102v275zM483 0h-75v281h-26q-56 0 -107.5 -23.5t-68.5 -72.5q-33 -97 -69.5 -141t-110.5 -44v62q21 0 36 8t26 26t18 35t17 46q3 10 5 15q23 65 81 104q-64 21 -103 67.5t-39 117.5q0 66 36.5 113 t89 67.5t113.5 20.5h177v-682z" />
<glyph unicode="&#x430;" d="M34 234q0 101 71.5 175.5t160.5 74.5q92 0 164 -78v62h68v-468h-68v61q-71 -77 -162 -77q-89 0 -161.5 74.5t-72.5 175.5zM102 234q0 -77 49.5 -132.5t114.5 -55.5t114.5 55.5t49.5 132.5t-49.5 132.5t-114.5 55.5t-114.5 -55.5t-49.5 -132.5z" />
<glyph unicode="&#x431;" horiz-adv-x="521" d="M439 726q0 -45 -34.5 -72.5t-103.5 -27.5q-131 0 -167 -198q61 56 135 56q87 0 152 -73.5t65 -176.5t-64 -176.5t-151 -73.5t-153 74t-66 176q0 81 6 144.5t23 122t44 97t71.5 61.5t104.5 23q70 0 70 44h68zM120 234q0 -79 42.5 -133.5t106.5 -54.5t106.5 54.5 t42.5 133.5t-42.5 133.5t-106.5 54.5t-106.5 -54.5t-42.5 -133.5z" />
<glyph unicode="&#x432;" horiz-adv-x="467" d="M63 0v468h134q108 0 153 -29t45 -94q0 -54 -38 -84q76 -34 76 -115q0 -74 -57.5 -110t-156.5 -36h-156zM131 62h86q140 0 140 84q0 44 -34.5 60t-105.5 16h-86v-160zM131 406v-122h63q73 0 99 12t26 49q0 38 -24.5 49.5t-97.5 11.5h-66z" />
<glyph unicode="&#x433;" horiz-adv-x="366" d="M63 0v468h302v-62h-234v-406h-68z" />
<glyph unicode="&#x434;" horiz-adv-x="565" d="M79 0v-82h-75v144h71q48 83 75.5 175.5t27.5 230.5h292v-406h77v-144h-75v82h-2h-68h-323zM156 62h246v344h-156q0 -195 -90 -344z" />
<glyph unicode="&#x435;" horiz-adv-x="526" d="M102 234q0 -77 49.5 -132.5t114.5 -55.5q72 0 104.5 20t58.5 65l54 -36q-37 -56 -84 -83.5t-131 -27.5q-89 0 -161.5 74.5t-72.5 175.5t71.5 175.5t160.5 74.5t160.5 -74.5t71.5 -175.5h-396zM112 296h308q-17 55 -60 90.5t-94 35.5t-94 -35.5t-60 -90.5z" />
<glyph unicode="&#x436;" horiz-adv-x="726" d="M47 394q0 16 0.5 37.5t0.5 36.5q53 0 87 -20t51.5 -49t33 -59.5t42 -55t66.5 -30.5v214h70v-214q40 6 66.5 30.5t42 55t33 59.5t51.5 49t87 20q0 -15 0.5 -36.5t0.5 -37.5q-32 0 -55 -16t-35 -36t-30.5 -51t-35.5 -50q85 -47 131.5 -119t46.5 -122h-81q0 14 -6.5 34.5 t-22 50t-49.5 59.5t-81 52q-32 -13 -63 -15v-181h-70v181q-31 2 -63 15q-47 -22 -81 -52t-49.5 -59.5t-22 -50t-6.5 -34.5h-81q0 50 46.5 122t131.5 119q-17 19 -35.5 50t-30.5 51t-35 36t-55 16z" />
<glyph unicode="&#x437;" horiz-adv-x="423" d="M175 222v62q102 8 102 61q0 38 -19 54.5t-59 16.5q-45 0 -106 -74l-47 40q3 4 15.5 19t17.5 20t16.5 17t20.5 17t22 11.5t28.5 9t32.5 2.5q69 0 111.5 -35.5t42.5 -97.5q0 -52 -54 -85q92 -40 92 -126q0 -66 -55 -105t-125 -39q-51 0 -91.5 15t-57 28.5t-43.5 40.5l44 44 q66 -66 146 -66q43 0 74.5 23.5t31.5 58.5q0 88 -140 88z" />
<glyph unicode="&#x438;" horiz-adv-x="530" d="M63 0v468h68v-391l252 391h84v-468h-68v386l-249 -386h-87z" />
<glyph unicode="&#x439;" horiz-adv-x="530" d="M277 567h-26q-60 0 -98 18t-38 47q0 20 21 44h39q-6 -16 -6 -27q0 -37 82 -37h26q82 0 82 37q0 11 -6 27h39q21 -24 21 -44q0 -29 -38 -47t-98 -18zM63 0v468h68v-391l252 391h84v-468h-68v386l-249 -386h-87z" />
<glyph unicode="&#x43a;" horiz-adv-x="460" d="M63 0v468h68v-214q35 5 59.5 23.5t37 42t28 50t31.5 48t48 36t77 14.5q0 -15 0.5 -36.5t0.5 -37.5q-32 0 -55 -16t-35 -36t-30.5 -51t-35.5 -50q85 -47 131.5 -119t46.5 -122h-81q0 14 -6.5 34.5t-22 50t-49.5 59.5t-81 52q-32 -12 -64 -15v-181h-68z" />
<glyph unicode="&#x43b;" horiz-adv-x="514" d="M214 148q0 -62 -40 -105t-101 -43h-68v62h61q34 0 57 25.5t23 60.5v320h305v-468h-68v406h-169v-258z" />
<glyph unicode="&#x43c;" horiz-adv-x="613" d="M519 468l49 -468h-68l-35 336l-123 -336h-72l-122 336l-35 -336h-68l49 468h78l134 -369l134 369h79z" />
<glyph unicode="&#x43d;" horiz-adv-x="530" d="M63 0v468h68v-194h268v194h68v-468h-68v212h-268v-212h-68z" />
<glyph unicode="&#x43e;" horiz-adv-x="532" d="M102 234q0 -77 49.5 -132.5t114.5 -55.5t114.5 55.5t49.5 132.5t-49.5 132.5t-114.5 55.5t-114.5 -55.5t-49.5 -132.5zM34 234q0 101 71.5 175.5t160.5 74.5t160.5 -74.5t71.5 -175.5t-71 -175.5t-159 -74.5q-89 0 -161.5 74.5t-72.5 175.5z" />
<glyph unicode="&#x43f;" horiz-adv-x="530" d="M63 0v468h404v-468h-68v406h-268v-406h-68z" />
<glyph unicode="&#x440;" d="M131 63v-262h-68v667h68v-62q71 78 164 78q89 0 160.5 -74.5t71.5 -175.5t-71 -175.5t-159 -74.5q-93 0 -166 79zM131 234q0 -77 49.5 -132.5t114.5 -55.5t114.5 55.5t49.5 132.5t-49.5 132.5t-114.5 55.5t-114.5 -55.5t-49.5 -132.5z" />
<glyph unicode="&#x441;" horiz-adv-x="477" d="M454 74q-36 -45 -78.5 -67.5t-107.5 -22.5q-89 0 -161.5 74.5t-72.5 175.5t71.5 175.5t160.5 74.5q49 0 96 -25.5t81 -68.5l-50 -39q-50 71 -127 71q-65 0 -114.5 -55.5t-49.5 -132.5t49.5 -132.5t114.5 -55.5q52 0 80.5 15.5t54.5 49.5z" />
<glyph unicode="&#x442;" horiz-adv-x="456" d="M262 406v-406h-68v406h-181v62h430v-62h-181z" />
<glyph unicode="&#x443;" horiz-adv-x="456" d="M228 88l153 380h74l-271 -668h-73l80 199l-190 469h74z" />
<glyph unicode="&#x444;" horiz-adv-x="816" d="M374 95v266q-45 61 -118 61q-64 0 -109 -55t-45 -133q0 -77 49.5 -132.5t114.5 -55.5q59 0 108 49zM374 447v120h68v-120q49 37 118 37q88 0 155 -74t67 -176q0 -101 -72.5 -175.5t-161.5 -74.5q-55 0 -106 31v-215h-68v215q-51 -31 -106 -31q-89 0 -161.5 74.5 t-72.5 175.5q0 102 67 176t155 74q69 0 118 -37zM442 361v-266q49 -49 108 -49q65 0 114.5 55.5t49.5 132.5q0 78 -45 133t-109 55q-73 0 -118 -61z" />
<glyph unicode="&#x445;" horiz-adv-x="415" d="M167 244l-140 224h80l100 -160l100 160h81l-140 -224l152 -244h-81l-112 179l-112 -179h-80z" />
<glyph unicode="&#x446;" horiz-adv-x="552" d="M524 62v-144h-68v82h-393v468h68v-406h268v406h68v-406h57z" />
<glyph unicode="&#x447;" horiz-adv-x="474" d="M27 347v121h67v-121q0 -55 32 -90.5t93 -35.5t92 52t31 135v60h69v-468h-69v207q-49 -49 -123 -49q-88 0 -140 50t-52 139z" />
<glyph unicode="&#x448;" horiz-adv-x="690" d="M627 468v-468h-564v468h68v-406h180v406h68v-406h180v406h68z" />
<glyph unicode="&#x449;" horiz-adv-x="712" d="M684 62v-144h-68v82h-237h-316v468h68v-406h180v406h68v-406h180v406h68v-406h57z" />
<glyph unicode="&#x44a;" horiz-adv-x="523" d="M200 248v-186h86q66 0 103 23.5t37 69.5t-37 69.5t-103 23.5h-86zM132 406h-123v62h191v-158h86q98 0 157 -40t59 -115t-58 -115t-156 -40h-156v406z" />
<glyph unicode="&#x44b;" horiz-adv-x="628" d="M497 0v468h68v-468h-68zM63 0v468h68v-158h86q98 0 157 -40t59 -115t-58 -115t-156 -40h-156zM131 248v-186h86q66 0 103 23.5t37 69.5t-37 69.5t-103 23.5h-86z" />
<glyph unicode="&#x44c;" horiz-adv-x="454" d="M63 0v468h68v-158h86q98 0 157 -40t59 -115t-58 -115t-156 -40h-156zM131 248v-186h86q66 0 103 23.5t37 69.5t-37 69.5t-103 23.5h-86z" />
<glyph unicode="&#x44d;" horiz-adv-x="473" d="M19 74l53 37q26 -34 54.5 -49.5t80.5 -15.5q60 0 108 48t55 118h-240v62h237q-13 64 -58.5 106t-101.5 42q-77 0 -127 -71l-50 39q34 43 81 68.5t96 25.5q89 0 160.5 -74.5t71.5 -175.5t-72.5 -175.5t-161.5 -74.5q-65 0 -107.5 22.5t-78.5 67.5z" />
<glyph unicode="&#x44e;" horiz-adv-x="721" d="M291 234q0 -77 49.5 -132.5t114.5 -55.5t114.5 55.5t49.5 132.5t-49.5 132.5t-114.5 55.5t-114.5 -55.5t-49.5 -132.5zM63 0v468h68v-194h95q15 88 82.5 149t146.5 61q89 0 160.5 -74.5t71.5 -175.5t-71 -175.5t-159 -74.5q-83 0 -153.5 67t-79.5 161h-93v-212h-68z" />
<glyph unicode="&#x44f;" horiz-adv-x="471" d="M340 220v186h-86q-66 0 -103 -23.5t-37 -69.5t37 -69.5t103 -23.5h86zM408 468v-468h-68v158h-86h-20l-111 -158h-83l119 170q-121 34 -121 143q0 75 58 115t156 40h156z" />
<glyph unicode="&#x450;" horiz-adv-x="526" d="M324 567l-230 117l34 58l216 -141zM102 234q0 -77 49.5 -132.5t114.5 -55.5q72 0 104.5 20t58.5 65l54 -36q-37 -56 -84 -83.5t-131 -27.5q-89 0 -161.5 74.5t-72.5 175.5t71.5 175.5t160.5 74.5t160.5 -74.5t71.5 -175.5h-396zM112 296h308q-17 55 -60 90.5t-94 35.5 t-94 -35.5t-60 -90.5z" />
<glyph unicode="&#x451;" horiz-adv-x="526" d="M309 613q0 23 16 38.5t38 15.5q23 0 39 -16t16 -38t-16 -38t-39 -16q-22 0 -38 15.5t-16 38.5zM114 613q0 23 15.5 38.5t38.5 15.5t39 -16t16 -38t-16 -38t-39 -16t-38.5 15.5t-15.5 38.5zM102 234q0 -77 49.5 -132.5t114.5 -55.5q72 0 104.5 20t58.5 65l54 -36 q-37 -56 -84 -83.5t-131 -27.5q-89 0 -161.5 74.5t-72.5 175.5t71.5 175.5t160.5 74.5t160.5 -74.5t71.5 -175.5h-396zM112 296h308q-17 55 -60 90.5t-94 35.5t-94 -35.5t-60 -90.5z" />
<glyph unicode="&#x452;" horiz-adv-x="535" d="M477 -21q0 -62 -43.5 -105.5t-104.5 -43.5h-80v63h80q34 0 57 25.5t23 60.5v317q0 53 -38 89.5t-101 36.5t-101 -54t-38 -134v-234h-68v619h-46v63h46v44h68v-44h168v-63h-168v-194q57 59 139 59q89 0 148 -50.5t59 -137.5v-317z" />
<glyph unicode="&#x453;" horiz-adv-x="366" d="M156 604l216 141l34 -58l-230 -117zM63 0v468h302v-62h-234v-406h-68z" />
<glyph unicode="&#x454;" horiz-adv-x="473" d="M454 74q-36 -45 -78.5 -67.5t-107.5 -22.5q-89 0 -161.5 74.5t-72.5 175.5t71.5 175.5t160.5 74.5q49 0 96 -25.5t81 -68.5l-50 -39q-50 71 -127 71q-56 0 -101.5 -42t-58.5 -106h233v-62h-236q7 -70 55 -118t108 -48q52 0 80.5 15.5t54.5 49.5z" />
<glyph unicode="&#x455;" horiz-adv-x="464" d="M240 201q-3 1 -21.5 4.5t-25.5 5t-25.5 6t-27 8t-24 10t-23.5 13t-19 16t-16.5 20t-9.5 24t-4 29.5q0 68 55 107.5t143 39.5q130 0 176 -110l-61 -30q-32 78 -115 78q-63 0 -96 -23t-33 -62q0 -11 4 -19.5t13 -15t16.5 -10.5t23.5 -8t24 -5.5t27 -4.5t25 -4 q38 -7 64.5 -14.5t58 -22.5t48 -40.5t16.5 -60.5q0 -68 -61 -108t-151 -40q-66 0 -117.5 29t-73.5 82l61 30q15 -35 49 -56.5t81 -21.5q64 0 104 24.5t40 60.5q0 11 -4 20t-12.5 15.5t-16 11t-22 8t-22.5 5.5t-25 5t-23 4z" />
<glyph unicode="&#x456;" horiz-adv-x="194" d="M43 613q0 23 15.5 38.5t38.5 15.5t38.5 -15.5t15.5 -38.5t-15.5 -38.5t-38.5 -15.5t-38.5 15.5t-15.5 38.5zM63 0v468h68v-468h-68z" />
<glyph unicode="&#x457;" horiz-adv-x="194" d="M140 613q0 23 16 38.5t38 15.5q23 0 39 -16t16 -38t-16 -38t-39 -16q-22 0 -38 15.5t-16 38.5zM-55 613q0 23 15.5 38.5t38.5 15.5t39 -16t16 -38t-16 -38t-39 -16t-38.5 15.5t-15.5 38.5zM63 0v468h68v-468h-68z" />
<glyph unicode="&#x458;" horiz-adv-x="194" d="M43 613q0 23 15.5 38.5t38.5 15.5t38.5 -15.5t15.5 -38.5t-15.5 -38.5t-38.5 -15.5t-38.5 15.5t-15.5 38.5zM-45 -138h28q34 0 57 25.5t23 60.5v520h68v-520q0 -62 -43.5 -105t-104.5 -43h-28v62z" />
<glyph unicode="&#x459;" horiz-adv-x="773" d="M214 148q0 -62 -40 -105t-101 -43h-68v62h61q34 0 57 25.5t23 60.5v320h305v-158h85q98 0 157 -40t59 -115t-58 -115t-156 -40h-156v406h-168v-258zM451 248v-186h85q66 0 103 23.5t37 69.5t-37 69.5t-103 23.5h-85z" />
<glyph unicode="&#x45a;" horiz-adv-x="789" d="M63 0v468h68v-194h267v194h69v-158h85q98 0 157 -40t59 -115t-58 -115t-156 -40h-156v212h-267v-212h-68zM467 248v-186h85q66 0 103 23.5t37 69.5t-37 69.5t-103 23.5h-85z" />
<glyph unicode="&#x45b;" horiz-adv-x="535" d="M409 0v296q0 53 -38 89.5t-101 36.5t-101 -54t-38 -134v-234h-68v619h-46v63h46v44h68v-44h168v-63h-168v-194q57 59 139 59q89 0 148 -50.5t59 -137.5v-296h-68z" />
<glyph unicode="&#x45c;" horiz-adv-x="460" d="M174 602l216 141l34 -58l-230 -117zM63 0v468h68v-214q35 5 59.5 23.5t37 42t28 50t31.5 48t48 36t77 14.5q0 -15 0.5 -36.5t0.5 -37.5q-32 0 -55 -16t-35 -36t-30.5 -51t-35.5 -50q85 -47 131.5 -119t46.5 -122h-81q0 14 -6.5 34.5t-22 50t-49.5 59.5t-81 52 q-32 -12 -64 -15v-181h-68z" />
<glyph unicode="&#x45d;" horiz-adv-x="530" d="M317 567l-230 117l34 58l216 -141zM63 0v468h68v-391l252 391h84v-468h-68v386l-249 -386h-87z" />
<glyph unicode="&#x45e;" horiz-adv-x="456" d="M248 567h-26q-60 0 -98 18t-38 47q0 20 21 44h39q-6 -16 -6 -27q0 -37 82 -37h26q82 0 82 37q0 11 -6 27h39q21 -24 21 -44q0 -29 -38 -47t-98 -18zM228 88l153 380h74l-271 -668h-73l80 199l-190 469h74z" />
<glyph unicode="&#x45f;" horiz-adv-x="530" d="M467 468v-468h-167v-82h-68v82h-169v468h68v-406h268v406h68z" />
<glyph unicode="&#x48a;" horiz-adv-x="669" d="M307 719q-77 0 -106 25.5t-29 83.5h59q0 -36 15.5 -50t60.5 -14h26q45 0 61 14t16 50h59q0 -58 -29.5 -83.5t-106.5 -25.5h-26zM580 0h-105v557l-322 -557h-74v682h74v-559l322 559h75v-650h124l-108 -196h-46z" />
<glyph unicode="&#x48b;" horiz-adv-x="586" d="M63 0v468h68v-391l252 391h84v-436h124l-108 -196h-46l60 164h-98v386l-249 -386h-87zM251 567q-77 0 -106 25.5t-29 83.5h59q0 -36 15.5 -50t60.5 -14h26q45 0 61 14t16 50h59q0 -58 -29.5 -83.5t-106.5 -25.5h-26z" />
<glyph unicode="&#x48c;" horiz-adv-x="600" d="M197 338v-276h143q68 0 112.5 36t44.5 102t-44.5 102t-112.5 36h-143zM197 512v-112h143q61 0 113.5 -20.5t89 -67t36.5 -112.5t-36 -112.5t-88 -67t-113 -20.5h-220v512h-98v55h98v115h75v-115h105v-55h-105z" />
<glyph unicode="&#x48d;" horiz-adv-x="484" d="M161 248v-186h86q66 0 103 23.5t37 69.5t-37 69.5t-103 23.5h-86zM161 406v-96h86q98 0 157 -40t59 -115t-58 -115t-156 -40h-156v406h-66v62h66v99h68v-99h74v-62h-74z" />
<glyph unicode="&#x48e;" horiz-adv-x="573" d="M154 619v-275h143q29 0 58 8l-66 70l52 42l65 -87q48 38 48 104t-44.5 102t-112.5 36h-143zM79 0v682h218q61 0 113.5 -20.5t89 -67.5t36.5 -113q0 -106 -88 -160l47 -63l-30 -25l-62 66q-49 -18 -104 -18h-145v-281h-75z" />
<glyph unicode="&#x48f;" horiz-adv-x="562" d="M131 234q0 -77 49.5 -132.5t114.5 -55.5q38 0 76 23l-76 81l52 42l65 -87q47 57 47 129q0 77 -49.5 132.5t-114.5 55.5t-114.5 -55.5t-49.5 -132.5zM131 63v-262h-68v667h68v-62q71 78 164 78q89 0 160.5 -74.5t71.5 -175.5q0 -103 -76 -181l50 -67l-30 -25l-57 61 q-57 -38 -117 -38q-93 0 -166 79z" />
<glyph unicode="&#x490;" horiz-adv-x="465" d="M154 619v-619h-75v682h307v81h75v-144h-307z" />
<glyph unicode="&#x491;" horiz-adv-x="366" d="M63 0v468h227v82h75v-144h-234v-406h-68z" />
<glyph unicode="&#x492;" horiz-adv-x="469" d="M16 413v55h66v214h382v-63h-307v-151h137v-55h-137v-413h-75v413h-66z" />
<glyph unicode="&#x493;" horiz-adv-x="375" d="M11 249v55h60v164h302v-62h-234v-102h103v-55h-103v-249h-68v249h-60z" />
<glyph unicode="&#x494;" horiz-adv-x="552" d="M79 0v682h382v-63h-307v-248q58 55 143 55q100 0 159 -63.5t59 -179.5q0 -133 -48 -193.5t-161 -60.5v61q76 0 103.5 40t27.5 153q0 81 -37 128.5t-103 47.5q-57 0 -95.5 -46t-47.5 -117v-196h-75z" />
<glyph unicode="&#x495;" horiz-adv-x="454" d="M63 0v468h302v-62h-234v-112q45 42 113 42q83 0 129.5 -53t46.5 -153q0 -113 -41 -164.5t-137 -51.5v52q55 0 83 36.5t28 127.5q0 149 -109 149q-54 0 -83.5 -47.5t-29.5 -119.5v-112h-68z" />
<glyph unicode="&#x496;" horiz-adv-x="914" d="M42 608q0 16 1 37.5t1 36.5q57 0 98.5 -28t67.5 -69.5t50 -84t59 -77.5t80 -45v304h75v-304q45 10 80 45t59 77.5t50 84t67.5 69.5t98.5 28q0 -15 1 -36.5t1 -37.5q-38 0 -69.5 -25t-50.5 -58t-48.5 -79t-56.5 -74q80 -66 145 -153t89 -159h68v-240h-40l-23 180h-85 q0 65 -54.5 154.5t-161.5 171.5q-33 -17 -70 -22v-304h-75v304q-37 5 -70 22q-107 -82 -161.5 -171.5t-54.5 -154.5h-91q0 73 72.5 181t172.5 191q-27 28 -56.5 74t-48.5 79t-50.5 58t-69.5 25z" />
<glyph unicode="&#x497;" horiz-adv-x="771" d="M47 394q0 16 0.5 37.5t0.5 36.5q53 0 87 -20t51.5 -49t33 -59.5t42 -55t66.5 -30.5v214h70v-214q40 6 66.5 30.5t42 55t33 59.5t51.5 49t87 20q0 -15 0.5 -36.5t0.5 -37.5q-32 0 -55 -16t-35 -36t-30.5 -51t-35.5 -50q118 -66 164 -181h69v-240h-40l-22 180h-74 q0 14 -6.5 34.5t-22 50t-49.5 59.5t-81 52q-32 -13 -63 -15v-181h-70v181q-31 2 -63 15q-47 -22 -81 -52t-49.5 -59.5t-22 -50t-6.5 -34.5h-81q0 50 46.5 122t131.5 119q-17 19 -35.5 50t-30.5 51t-35 36t-55 16z" />
<glyph unicode="&#x498;" horiz-adv-x="516" d="M370 365q101 -46 101 -163q0 -93 -52.5 -148.5t-140.5 -66.5l-27 -55q54 0 80.5 -18t26.5 -39q0 -75 -205 -75v27q50 0 95 11.5t45 30.5q0 10 -7 15.5t-31 9t-70 3.5l41 87q-80 1 -129.5 25.5t-85.5 69.5l53 42q49 -69 171 -69q68 0 114.5 39.5t46.5 94.5 q0 62 -48.5 101.5t-134.5 39.5v67q84 0 122 33t38 84q0 48 -34.5 83.5t-88.5 35.5q-40 0 -82.5 -12t-66.5 -40l-50 47q34 37 90.5 54.5t108.5 17.5q86 0 142 -46.5t56 -139.5q0 -97 -78 -146z" />
<glyph unicode="&#x499;" horiz-adv-x="424" d="M175 222v62q102 8 102 61q0 38 -19 54.5t-59 16.5q-45 0 -106 -74l-47 40q3 4 15.5 19t17.5 20t16.5 17t20.5 17t22 11.5t28.5 9t32.5 2.5q69 0 111.5 -35.5t42.5 -97.5q0 -52 -54 -85q92 -40 92 -126q0 -63 -50 -101.5t-117 -42.5l-28 -58q54 0 80.5 -18t26.5 -39 q0 -75 -205 -75v27q50 0 95 11.5t45 30.5q0 10 -7 15.5t-31 9t-70 3.5l44 95q-39 4 -71.5 19.5t-46 27t-37.5 35.5l44 44q66 -66 146 -66q43 0 74.5 23.5t31.5 58.5q0 88 -140 88z" />
<glyph unicode="&#x49a;" horiz-adv-x="591" d="M79 0v682h75v-304q45 10 80 45t59 77.5t50 84t67.5 69.5t98.5 28q0 -15 1 -36.5t1 -37.5q-38 0 -69.5 -25t-50.5 -58t-48.5 -79t-56.5 -74q80 -66 145 -153t89 -159h65v-240h-40l-22 180h-83q0 65 -54.5 154.5t-161.5 171.5q-33 -17 -70 -22v-304h-75z" />
<glyph unicode="&#x49b;" horiz-adv-x="504" d="M63 0v468h68v-214q35 5 59.5 23.5t37 42t28 50t31.5 48t48 36t77 14.5q0 -15 0.5 -36.5t0.5 -37.5q-32 0 -55 -16t-35 -36t-30.5 -51t-35.5 -50q118 -66 164 -181h68v-240h-40l-22 180h-73q0 14 -6.5 34.5t-22 50t-49.5 59.5t-81 52q-32 -12 -64 -15v-181h-68z" />
<glyph unicode="&#x49c;" horiz-adv-x="552" d="M197 567h50v-131q22 25 51.5 75t51 83.5t63.5 60.5t96 27q0 -15 1 -36.5t1 -37.5q-38 0 -69.5 -25t-50.5 -58t-48.5 -79t-56.5 -74q100 -83 172.5 -191t72.5 -181h-91q0 61 -49 145.5t-144 162.5v-133h-50v140q-22 -8 -43 -11v-304h-75v682h75v-304q20 4 43 16v173z" />
<glyph unicode="&#x49d;" horiz-adv-x="460" d="M164 414h45v-119q14 16 28.5 42t26.5 46.5t30 41t47.5 32t70.5 11.5q0 -15 0.5 -36.5t0.5 -37.5q-32 0 -55 -16t-35 -36t-30.5 -51t-35.5 -50q85 -47 131.5 -119t46.5 -122h-81q0 13 -6 33t-20 47.5t-45 57t-74 51.5v-133h-45v130q-19 -4 -33 -5v-181h-68v468h68v-214 q18 3 33 9v151z" />
<glyph unicode="&#x49e;" horiz-adv-x="555" d="M16 512v55h66v115h75v-115h73v-55h-73v-134q45 10 80 45t59 77.5t50 84t67.5 69.5t98.5 28q0 -15 1 -36.5t1 -37.5q-38 0 -69.5 -25t-50.5 -58t-48.5 -79t-56.5 -74q100 -83 172.5 -191t72.5 -181h-91q0 65 -54.5 154.5t-161.5 171.5q-33 -17 -70 -22v-304h-75v512h-66z " />
<glyph unicode="&#x49f;" horiz-adv-x="460" d="M-3 512v55h66v159h68v-159h68v-55h-68v-258q35 5 59.5 23.5t37 42t28 50t31.5 48t48 36t77 14.5q0 -15 0.5 -36.5t0.5 -37.5q-32 0 -55 -16t-35 -36t-30.5 -51t-35.5 -50q85 -47 131.5 -119t46.5 -122h-81q0 14 -6.5 34.5t-22 50t-49.5 59.5t-81 52q-32 -12 -64 -15v-181 h-68v512h-66z" />
<glyph unicode="&#x4a0;" horiz-adv-x="666" d="M19 682h249v-304q45 10 80 45t59 77.5t50 84t67.5 69.5t98.5 28q0 -15 1 -36.5t1 -37.5q-38 0 -69.5 -25t-50.5 -58t-48.5 -79t-56.5 -74q100 -83 172.5 -191t72.5 -181h-91q0 65 -54.5 154.5t-161.5 171.5q-33 -17 -70 -22v-304h-75v624h-174v58z" />
<glyph unicode="&#x4a1;" horiz-adv-x="518" d="M5 468h184v-214q35 5 59.5 23.5t37 42t28 50t31.5 48t48 36t77 14.5q0 -15 0.5 -36.5t0.5 -37.5q-32 0 -55 -16t-35 -36t-30.5 -51t-35.5 -50q85 -47 131.5 -119t46.5 -122h-81q0 14 -6.5 34.5t-22 50t-49.5 59.5t-81 52q-32 -12 -64 -15v-181h-68v410h-116v58z" />
<glyph unicode="&#x4a2;" horiz-adv-x="623" d="M79 0v682h75v-295h300v295h75v-622h58v-240h-40l-22 180h-71v325h-300v-325h-75z" />
<glyph unicode="&#x4a3;" horiz-adv-x="553" d="M63 0v468h68v-194h268v194h68v-408h58v-240h-40l-22 180h-64v212h-268v-212h-68z" />
<glyph unicode="&#x4a4;" horiz-adv-x="840" d="M79 0v682h75v-295h299v295h382v-63h-306v-619h-76v325h-299v-325h-75z" />
<glyph unicode="&#x4a5;" horiz-adv-x="702" d="M63 0v468h68v-194h268v194h302v-62h-234v-406h-68v212h-268v-212h-68z" />
<glyph unicode="&#x4a6;" horiz-adv-x="920" d="M79 0v682h450v-313q57 57 145 57q100 0 159 -63.5t59 -179.5q0 -133 -48 -193.5t-161 -60.5v61q76 0 103.5 40t27.5 153q0 81 -37 128.5t-103 47.5q-65 0 -105 -57.5t-40 -139.5v-162h-75v620h-300v-620h-75z" />
<glyph unicode="&#x4a7;" horiz-adv-x="785" d="M63 0v468h404v-174q45 42 113 42q83 0 129.5 -53t46.5 -153q0 -113 -41 -164.5t-137 -51.5v52q55 0 83 36.5t28 127.5q0 149 -109 149q-54 0 -83.5 -47.5t-29.5 -119.5v-112h-68v406h-268v-406h-68z" />
<glyph unicode="&#x4a8;" horiz-adv-x="775" d="M705 117l68 -39q-20 -42 -65.5 -68t-100.5 -26q-73 0 -135 43q-67 -43 -146 -43q-123 0 -202 104t-79 252q0 110 55 202t139 132l33 -60q-65 -30 -106.5 -106.5t-41.5 -167.5q0 -116 57 -201.5t145 -85.5q49 0 92 25q-90 112 -90 327q0 135 38.5 213.5t109.5 78.5 q69 0 112 -71t43 -221q0 -212 -99 -326q38 -26 75 -26q27 0 56.5 18t41.5 46zM479 133q73 96 73 272q0 110 -23 166.5t-53 56.5q-27 0 -48 -66t-21 -157q0 -171 72 -272z" />
<glyph unicode="&#x4a9;" horiz-adv-x="626" d="M624 32q-61 -48 -159 -48q-53 0 -97 23q-50 -23 -117 -23q-87 0 -151.5 73.5t-64.5 176.5q0 77 43.5 140.5t109.5 92.5l27 -55q-48 -19 -80 -68.5t-32 -109.5q0 -79 41 -133.5t105 -54.5q31 0 58 9q-69 78 -69 203q0 53 13 102.5t43.5 86t73.5 36.5q62 0 96.5 -60.5 t34.5 -164.5q0 -136 -70 -208q22 -4 34 -4q68 0 116 42zM363 86q68 57 68 172q0 163 -61 163q-22 0 -43 -46.5t-21 -116.5q0 -115 57 -172z" />
<glyph unicode="&#x4aa;" horiz-adv-x="575" d="M295 -15q-106 13 -178 115.5t-72 239.5q0 145 80.5 251t194.5 106q124 0 215 -140l-59 -42q-69 114 -156 114t-143 -86t-56 -203t56 -202t143 -85q94 0 162 126l65 -35q-83 -143 -201 -158l-27 -54q54 0 81 -18t27 -39q0 -75 -205 -75v27q49 0 94 11.5t45 30.5 q0 10 -7 15.5t-30.5 9t-69.5 3.5z" />
<glyph unicode="&#x4ab;" horiz-adv-x="479" d="M246 -15q-83 10 -147 82.5t-64 166.5q0 101 71.5 175.5t160.5 74.5q49 0 96 -25.5t81 -68.5l-50 -39q-50 71 -127 71q-65 0 -114.5 -55.5t-49.5 -132.5t49.5 -132.5t114.5 -55.5q52 0 80.5 15.5t54.5 49.5l53 -37q-65 -82 -158 -89l-26 -53q54 0 80.5 -18t26.5 -39 q0 -75 -205 -75v27q50 0 95 11.5t45 30.5q0 10 -7 15.5t-31 9t-70 3.5z" />
<glyph unicode="&#x4ac;" horiz-adv-x="504" d="M19 620v62h464v-62h-195v-560h57v-240h-40l-22 180h-69v620h-195z" />
<glyph unicode="&#x4ad;" horiz-adv-x="437" d="M246 0h-63v406h-181v62h430v-62h-181v-346h57v-240h-40z" />
<glyph unicode="&#x4ae;" horiz-adv-x="473" d="M237 432l150 250h87l-201 -335v-347h-74v350l-199 332h87z" />
<glyph unicode="&#x4af;" horiz-adv-x="456" d="M228 88l153 380h74l-193 -475v-193h-68v192l-193 476h74z" />
<glyph unicode="&#x4b0;" horiz-adv-x="473" d="M104 235v55h95v60l-199 332h87l150 -250l150 250h87l-201 -335v-57h99v-55h-99v-235h-74v235h-95z" />
<glyph unicode="&#x4b1;" horiz-adv-x="461" d="M97 -55v55h97l-190 468h74l153 -380l153 380h74l-190 -468h97v-55h-100v-145h-68v145h-100z" />
<glyph unicode="&#x4b2;" horiz-adv-x="496" d="M414 0h-22l-144 270l-143 -270h-84l185 349l-177 333h84l135 -255l136 255h84l-178 -333l186 -349v-180h-40z" />
<glyph unicode="&#x4b3;" horiz-adv-x="415" d="M167 244l-140 224h80l100 -160l100 160h81l-140 -224l152 -244v-180h-40l-22 180h-19l-112 179l-112 -179h-80z" />
<glyph unicode="&#x4b4;" horiz-adv-x="814" d="M19 620v62h464v-62h-194v-558h340v620h75v-620h71v-144h-75v82h-486v620h-195z" />
<glyph unicode="&#x4b5;" horiz-adv-x="672" d="M644 62v-144h-68v82h-393v406h-181v62h430v-62h-181v-344h268v406h68v-406h57z" />
<glyph unicode="&#x4b6;" horiz-adv-x="598" d="M430 524v158h76v-622h55v-240h-40l-22 180h-69v326q-64 -64 -161 -64q-106 0 -171.5 75t-65.5 187v158h75v-158q0 -82 43.5 -140.5t118.5 -58.5t118 58t43 141z" />
<glyph unicode="&#x4b7;" horiz-adv-x="494" d="M27 347v121h67v-121q0 -55 32 -90.5t93 -35.5t92 52t31 135v60h69v-408h54v-240h-40l-22 180h-61v207q-49 -49 -123 -49q-88 0 -140 50t-52 139z" />
<glyph unicode="&#x4b8;" horiz-adv-x="585" d="M241 454h60v-126q61 12 95 67.5t34 128.5v158h76v-682h-76v326q-53 -53 -129 -62v-98h-60v98q-95 10 -152 83.5t-57 176.5v158h75v-158q0 -74 36 -130t98 -67v127z" />
<glyph unicode="&#x4b9;" horiz-adv-x="474" d="M191 342h60v-117q45 13 68 62.5t23 120.5v60h69v-468h-69v207q-37 -37 -91 -46v-91h-60v89q-75 8 -119.5 57.5t-44.5 130.5v121h67v-121q0 -48 24.5 -82t72.5 -42v119z" />
<glyph unicode="&#x4ba;" horiz-adv-x="593" d="M155 221v-221h-76v682h76v-263q64 64 161 64q106 0 171.5 -75t65.5 -187v-221h-75v221q0 82 -43.5 140.5t-118.5 58.5t-118 -58t-43 -141z" />
<glyph unicode="&#x4bb;" horiz-adv-x="535" d="M477 296v-296h-68v296q0 53 -38 89.5t-101 36.5t-101 -54t-38 -134v-234h-68v726h68v-301q57 59 139 59q89 0 148 -50.5t59 -137.5z" />
<glyph unicode="&#x4bc;" horiz-adv-x="724" d="M674 144q-93 -160 -227 -160q-114 0 -194.5 105.5t-80.5 250.5q0 21 1 31q-56 3 -87 24t-46.5 75t-15.5 154h64q0 -111 16 -148.5t78 -41.5q24 114 97.5 188.5t167.5 74.5q64 0 110.5 -26t72.5 -73t38 -103t12 -125h-431q-1 -10 -1 -30q0 -117 56 -202t143 -85 q94 0 162 126zM259 434h345q-10 87 -48.5 141t-108.5 54q-68 0 -118 -55t-70 -140z" />
<glyph unicode="&#x4bd;" horiz-adv-x="654" d="M613 74q-36 -45 -78.5 -67.5t-107.5 -22.5q-89 0 -161.5 74.5t-72.5 175.5v12h-5q-51 0 -81 9.5t-52.5 36.5t-31.5 77t-9 131h64q0 -117 18.5 -153.5t91.5 -36.5h17q25 75 87.5 124.5t132.5 49.5q91 0 142 -63t51 -175h-357v-12q0 -77 49.5 -132.5t114.5 -55.5 q52 0 80.5 15.5t54.5 49.5zM276 310h273q-22 112 -124 112q-47 0 -87.5 -31t-61.5 -81z" />
<glyph unicode="&#x4be;" horiz-adv-x="726" d="M260 434h345q-10 87 -48.5 141t-108.5 54q-68 0 -118 -55t-70 -140zM416 -14q-103 16 -173 118t-70 236q0 21 1 31q-56 3 -87 24t-46.5 75t-15.5 154h64q0 -111 16 -148.5t78 -41.5q24 114 97.5 188.5t167.5 74.5q64 0 110.5 -26t72.5 -73t38 -103t12 -125h-431 q-1 -10 -1 -30q0 -117 56 -202t143 -85q94 0 162 126l65 -35q-83 -143 -199 -158v-186h-60v186z" />
<glyph unicode="&#x4bf;" horiz-adv-x="656" d="M277 310h273q-22 112 -124 112q-47 0 -87.5 -31t-61.5 -81zM401 -14q-82 12 -144.5 83.5t-62.5 164.5v12h-5q-51 0 -81 9.5t-52.5 36.5t-31.5 77t-9 131h64q0 -117 18.5 -153.5t91.5 -36.5h17q25 75 87.5 124.5t132.5 49.5q91 0 142 -63t51 -175h-357v-12 q0 -77 49.5 -132.5t114.5 -55.5q52 0 80.5 15.5t54.5 49.5l53 -37q-62 -78 -153 -88v-186h-60v186z" />
<glyph unicode="&#x4c0;" horiz-adv-x="233" d="M154 682v-682h-75v682h75z" />
<glyph unicode="&#x4c1;" horiz-adv-x="872" d="M42 608q0 16 1 37.5t1 36.5q57 0 98.5 -28t67.5 -69.5t50 -84t59 -77.5t80 -45v304h75v-304q45 10 80 45t59 77.5t50 84t67.5 69.5t98.5 28q0 -15 1 -36.5t1 -37.5q-38 0 -69.5 -25t-50.5 -58t-48.5 -79t-56.5 -74q100 -83 172.5 -191t72.5 -181h-91q0 65 -54.5 154.5 t-161.5 171.5q-33 -17 -70 -22v-304h-75v304q-37 5 -70 22q-107 -82 -161.5 -171.5t-54.5 -154.5h-91q0 73 72.5 181t172.5 191q-27 28 -56.5 74t-48.5 79t-50.5 58t-69.5 25zM423 719q-77 0 -106 25.5t-29 83.5h59q0 -36 15.5 -50t60.5 -14h26q45 0 61 14t16 50h59 q0 -58 -29.5 -83.5t-106.5 -25.5h-26z" />
<glyph unicode="&#x4c2;" horiz-adv-x="726" d="M47 394q0 16 0.5 37.5t0.5 36.5q53 0 87 -20t51.5 -49t33 -59.5t42 -55t66.5 -30.5v214h70v-214q40 6 66.5 30.5t42 55t33 59.5t51.5 49t87 20q0 -15 0.5 -36.5t0.5 -37.5q-32 0 -55 -16t-35 -36t-30.5 -51t-35.5 -50q85 -47 131.5 -119t46.5 -122h-81q0 14 -6.5 34.5 t-22 50t-49.5 59.5t-81 52q-32 -13 -63 -15v-181h-70v181q-31 2 -63 15q-47 -22 -81 -52t-49.5 -59.5t-22 -50t-6.5 -34.5h-81q0 50 46.5 122t131.5 119q-17 19 -35.5 50t-30.5 51t-35 36t-55 16zM350 567q-77 0 -106 25.5t-29 83.5h59q0 -36 15.5 -50t60.5 -14h26 q45 0 61 14t16 50h59q0 -58 -29.5 -83.5t-106.5 -25.5h-26z" />
<glyph unicode="&#x4c3;" horiz-adv-x="554" d="M331 -200v52q55 0 82 36t27 128q0 63 -54 145t-162 165q-33 -17 -70 -22v-304h-75v682h75v-304q45 10 80 45t59 77.5t50 84t67.5 69.5t98.5 28q0 -15 1 -36.5t1 -37.5q-38 0 -69.5 -25t-50.5 -58t-48.5 -79t-56.5 -74q101 -84 170.5 -184t69.5 -172q0 -111 -48.5 -163.5 t-146.5 -52.5z" />
<glyph unicode="&#x4c4;" horiz-adv-x="462" d="M435 16q0 -112 -46 -164t-144 -52v52q55 0 82 36t27 128q0 19 -10.5 45.5t-49 66.5t-99.5 68q-32 -12 -64 -15v-181h-68v468h68v-214q35 5 59.5 23.5t37 42t28 50t31.5 48t48 36t77 14.5q0 -15 0.5 -36.5t0.5 -37.5q-32 0 -55 -16t-35 -36t-30.5 -51t-35.5 -50 q87 -48 132.5 -113t45.5 -112z" />
<glyph unicode="&#x4c5;" horiz-adv-x="690" d="M224 148q0 -62 -43 -105t-105 -43h-68v62h61q34 0 57 25.5t23 60.5v534h419v-650h124l-108 -196h-46l60 164h-105v620h-269v-472z" />
<glyph unicode="&#x4c6;" horiz-adv-x="569" d="M210 148q0 -62 -40 -105t-101 -43h-68v62h61q34 0 57 25.5t23 60.5v320h305v-436h124l-108 -196h-46l60 164h-98v406h-169v-258z" />
<glyph unicode="&#x4c7;" horiz-adv-x="607" d="M528 16q0 -111 -48.5 -163.5t-146.5 -52.5v52q57 0 89 37t32 127v309h-300v-325h-75v682h75v-295h300v295h75z" />
<glyph unicode="&#x4c8;" horiz-adv-x="530" d="M467 16q0 -111 -48.5 -163.5t-146.5 -52.5v52q127 0 127 164v196h-268v-212h-68v468h68v-194h268v194h68v-452z" />
<glyph unicode="&#x4c9;" horiz-adv-x="651" d="M79 0v682h75v-295h300v295h75v-650h124l-108 -196h-46l60 164h-105v325h-300v-325h-75z" />
<glyph unicode="&#x4ca;" horiz-adv-x="589" d="M63 0v468h68v-194h268v194h68v-436h124l-108 -196h-46l60 164h-98v212h-268v-212h-68z" />
<glyph unicode="&#x4cb;" horiz-adv-x="585" d="M430 524v158h76v-682h-75l-22 -180h-40v240h61v266q-64 -64 -161 -64q-106 0 -171.5 75t-65.5 187v158h75v-158q0 -82 43.5 -140.5t118.5 -58.5t118 58t43 141z" />
<glyph unicode="&#x4cc;" horiz-adv-x="474" d="M27 347v121h67v-121q0 -55 32 -90.5t93 -35.5t92 52t31 135v60h69v-468h-68l-22 -180h-40v240h61v147q-49 -49 -123 -49q-88 0 -140 50t-52 139z" />
<glyph unicode="&#x4cd;" horiz-adv-x="836" d="M79 0v682h81l237 -583l236 583h81v-650h124l-108 -196h-46l60 164h-104v503l-203 -503h-80l-203 502v-502h-75z" />
<glyph unicode="&#x4ce;" horiz-adv-x="676" d="M589 0h-89l-35 336l-123 -336h-72l-122 336l-35 -336h-68l49 468h78l134 -369l134 369h79l46 -436h118l-108 -196h-46z" />
<glyph unicode="&#x4cf;" horiz-adv-x="201" d="M138 682v-682h-75v682h75z" />
<glyph unicode="&#x4d0;" horiz-adv-x="576" d="M301 719h-26q-60 0 -98 18t-38 47q0 20 21 44h39q-6 -16 -6 -27q0 -37 82 -37h26q82 0 82 37q0 11 -6 27h39q21 -24 21 -44q0 -29 -38 -47t-98 -18zM328 680l248 -680h-80l-70 191h-276l-69 -191h-80l247 680v2h81zM288 570l-115 -317h231z" />
<glyph unicode="&#x4d1;" d="M294 567h-26q-60 0 -98 18t-38 47q0 20 21 44h39q-6 -16 -6 -27q0 -37 82 -37h26q82 0 82 37q0 11 -6 27h39q21 -24 21 -44q0 -29 -38 -47t-98 -18zM34 234q0 101 71.5 175.5t160.5 74.5q92 0 164 -78v62h68v-468h-68v61q-71 -77 -162 -77q-89 0 -161.5 74.5t-72.5 175.5 zM102 234q0 -77 49.5 -132.5t114.5 -55.5t114.5 55.5t49.5 132.5t-49.5 132.5t-114.5 55.5t-114.5 -55.5t-49.5 -132.5z" />
<glyph unicode="&#x4d2;" horiz-adv-x="576" d="M331 771q0 23 15.5 38.5t38.5 15.5t39 -16t16 -38t-16 -38t-39 -16t-38.5 15.5t-15.5 38.5zM136 771q0 23 16 38.5t38 15.5q23 0 39 -16t16 -38t-16 -38t-39 -16q-22 0 -38 15.5t-16 38.5zM328 680l248 -680h-80l-70 191h-276l-69 -191h-80l247 680v2h81zM288 570 l-115 -317h231z" />
<glyph unicode="&#x4d3;" d="M319 613q0 23 15.5 38.5t38.5 15.5t39 -16t16 -38t-16 -38t-39 -16t-38.5 15.5t-15.5 38.5zM124 613q0 23 16 38.5t38 15.5q23 0 39 -16t16 -38t-16 -38t-39 -16q-22 0 -38 15.5t-16 38.5zM34 234q0 101 71.5 175.5t160.5 74.5q92 0 164 -78v62h68v-468h-68v61 q-71 -77 -162 -77q-89 0 -161.5 74.5t-72.5 175.5zM102 234q0 -77 49.5 -132.5t114.5 -55.5t114.5 55.5t49.5 132.5t-49.5 132.5t-114.5 55.5t-114.5 -55.5t-49.5 -132.5z" />
<glyph unicode="&#x4d4;" horiz-adv-x="772" d="M163 191l-103 -191h-80l368 680v2h382v-63h-308v-218h240v-61h-240v-278h311v-62h-385v191h-185zM197 253h151v279z" />
<glyph unicode="&#x4d5;" horiz-adv-x="867" d="M111 356l-53 33q25 32 43 49t53.5 31t82.5 14q125 0 176 -117q33 53 85.5 85t108.5 32q89 0 160.5 -74t71.5 -175h-396q0 -77 49.5 -132.5t114.5 -55.5q72 0 104.5 20t58.5 64l54 -35q-37 -56 -84 -83.5t-131 -27.5q-90 0 -160 72q-87 -72 -241 -72q-79 0 -130 39 t-51 105q0 70 64.5 116t202.5 46q40 0 79 -12q-6 55 -41.5 99t-94.5 44q-50 0 -74.5 -15t-51.5 -50zM453 296h308q-17 55 -60 90t-94 35t-94 -35t-60 -90zM408 110q-31 54 -34 109q-50 12 -79 12q-94 0 -143.5 -27t-49.5 -77q0 -31 20 -50.5t42.5 -25t46.5 -5.5 q118 0 197 64z" />
<glyph unicode="&#x4d6;" horiz-adv-x="503" d="M290 719h-26q-60 0 -98 18t-38 47q0 20 21 44h39q-6 -16 -6 -27q0 -37 82 -37h26q82 0 82 37q0 11 -6 27h39q21 -24 21 -44q0 -29 -38 -47t-98 -18zM79 0v682h382v-63h-307v-218h240v-61h-240v-278h310v-62h-385z" />
<glyph unicode="&#x4d7;" horiz-adv-x="526" d="M281 567h-26q-60 0 -98 18t-38 47q0 20 21 44h39q-6 -16 -6 -27q0 -37 82 -37h26q82 0 82 37q0 11 -6 27h39q21 -24 21 -44q0 -29 -38 -47t-98 -18zM102 234q0 -77 49.5 -132.5t114.5 -55.5q72 0 104.5 20t58.5 65l54 -36q-37 -56 -84 -83.5t-131 -27.5 q-89 0 -161.5 74.5t-72.5 175.5t71.5 175.5t160.5 74.5t160.5 -74.5t71.5 -175.5h-396zM112 296h308q-17 55 -60 90.5t-94 35.5t-94 -35.5t-60 -90.5z" />
<glyph unicode="&#x4d8;" horiz-adv-x="629" d="M64 537q43 74 104 117t131 43q115 0 201 -106t86 -250q0 -145 -80.5 -251t-194.5 -106q-128 0 -203 95t-75 232h476q1 10 1 30q0 115 -61.5 201t-149.5 86q-52 0 -95.5 -34.5t-74.5 -91.5zM499 247h-387q18 -83 72.5 -139t126.5 -56q68 0 118 55t70 140z" />
<glyph unicode="&#x4d9;" horiz-adv-x="527" d="M426 234q0 77 -49.5 133t-114.5 56q-72 0 -104.5 -20t-58.5 -65l-55 36q36 56 84 83t132 27q89 0 161 -74.5t72 -175.5t-71.5 -175.5t-159.5 -74.5q-89 0 -161 74.5t-72 175.5h397zM417 173h-310q17 -55 60.5 -90.5t94.5 -35.5t94.5 35.5t60.5 90.5z" />
<glyph unicode="&#x4da;" horiz-adv-x="629" d="M343 771q0 23 15.5 38.5t38.5 15.5t39 -16t16 -38t-16 -38t-39 -16t-38.5 15.5t-15.5 38.5zM148 771q0 23 16 38.5t38 15.5q23 0 39 -16t16 -38t-16 -38t-39 -16q-22 0 -38 15.5t-16 38.5zM64 537q43 74 104 117t131 43q115 0 201 -106t86 -250q0 -145 -80.5 -251 t-194.5 -106q-128 0 -203 95t-75 232h476q1 10 1 30q0 115 -61.5 201t-149.5 86q-52 0 -95.5 -34.5t-74.5 -91.5zM499 247h-387q18 -83 72.5 -139t126.5 -56q68 0 118 55t70 140z" />
<glyph unicode="&#x4db;" horiz-adv-x="527" d="M305 613q0 23 15.5 38.5t38.5 15.5t39 -16t16 -38t-16 -38t-39 -16t-38.5 15.5t-15.5 38.5zM110 613q0 23 16 38.5t38 15.5q23 0 39 -16t16 -38t-16 -38t-39 -16q-22 0 -38 15.5t-16 38.5zM426 234q0 77 -49.5 133t-114.5 56q-72 0 -104.5 -20t-58.5 -65l-55 36 q36 56 84 83t132 27q89 0 161 -74.5t72 -175.5t-71.5 -175.5t-159.5 -74.5q-89 0 -161 74.5t-72 175.5h397zM417 173h-310q17 -55 60.5 -90.5t94.5 -35.5t94.5 35.5t60.5 90.5z" />
<glyph unicode="&#x4dc;" horiz-adv-x="872" d="M479 771q0 23 16 38.5t38 15.5q23 0 39 -16t16 -38t-16 -38t-39 -16q-22 0 -38 15.5t-16 38.5zM284 771q0 23 15.5 38.5t38.5 15.5t39 -16t16 -38t-16 -38t-39 -16t-38.5 15.5t-15.5 38.5zM42 608q0 16 1 37.5t1 36.5q57 0 98.5 -28t67.5 -69.5t50 -84t59 -77.5t80 -45 v304h75v-304q45 10 80 45t59 77.5t50 84t67.5 69.5t98.5 28q0 -15 1 -36.5t1 -37.5q-38 0 -69.5 -25t-50.5 -58t-48.5 -79t-56.5 -74q100 -83 172.5 -191t72.5 -181h-91q0 65 -54.5 154.5t-161.5 171.5q-33 -17 -70 -22v-304h-75v304q-37 5 -70 22q-107 -82 -161.5 -171.5 t-54.5 -154.5h-91q0 73 72.5 181t172.5 191q-27 28 -56.5 74t-48.5 79t-50.5 58t-69.5 25z" />
<glyph unicode="&#x4dd;" horiz-adv-x="726" d="M405 613q0 23 16 38.5t38 15.5q23 0 39 -16t16 -38t-16 -38t-39 -16q-22 0 -38 15.5t-16 38.5zM210 613q0 23 15.5 38.5t38.5 15.5t39 -16t16 -38t-16 -38t-39 -16t-38.5 15.5t-15.5 38.5zM47 394q0 16 0.5 37.5t0.5 36.5q53 0 87 -20t51.5 -49t33 -59.5t42 -55 t66.5 -30.5v214h70v-214q40 6 66.5 30.5t42 55t33 59.5t51.5 49t87 20q0 -15 0.5 -36.5t0.5 -37.5q-32 0 -55 -16t-35 -36t-30.5 -51t-35.5 -50q85 -47 131.5 -119t46.5 -122h-81q0 14 -6.5 34.5t-22 50t-49.5 59.5t-81 52q-32 -13 -63 -15v-181h-70v181q-31 2 -63 15 q-47 -22 -81 -52t-49.5 -59.5t-22 -50t-6.5 -34.5h-81q0 50 46.5 122t131.5 119q-17 19 -35.5 50t-30.5 51t-35 36t-55 16z" />
<glyph unicode="&#x4de;" horiz-adv-x="513" d="M294 771q0 23 16 38.5t38 15.5q23 0 39 -16t16 -38t-16 -38t-39 -16q-22 0 -38 15.5t-16 38.5zM99 771q0 23 15.5 38.5t38.5 15.5t39 -16t16 -38t-16 -38t-39 -16t-38.5 15.5t-15.5 38.5zM369 365q101 -46 101 -163q0 -104 -65.5 -161t-170.5 -57q-85 0 -136 24t-88 71 l53 42q49 -69 171 -69q68 0 114.5 39.5t46.5 94.5q0 62 -48.5 101.5t-134.5 39.5v67q84 0 122 33t38 84q0 48 -34.5 83.5t-88.5 35.5q-40 0 -82.5 -12t-66.5 -40l-50 47q34 37 90.5 54.5t108.5 17.5q86 0 142 -46.5t56 -139.5q0 -97 -78 -146z" />
<glyph unicode="&#x4df;" horiz-adv-x="423" d="M243 613q0 23 16 38.5t38 15.5q23 0 39 -16t16 -38t-16 -38t-39 -16q-22 0 -38 15.5t-16 38.5zM48 613q0 23 15.5 38.5t38.5 15.5t39 -16t16 -38t-16 -38t-39 -16t-38.5 15.5t-15.5 38.5zM175 222v62q102 8 102 61q0 38 -19 54.5t-59 16.5q-45 0 -106 -74l-47 40 q3 4 15.5 19t17.5 20t16.5 17t20.5 17t22 11.5t28.5 9t32.5 2.5q69 0 111.5 -35.5t42.5 -97.5q0 -52 -54 -85q92 -40 92 -126q0 -66 -55 -105t-125 -39q-51 0 -91.5 15t-57 28.5t-43.5 40.5l44 44q66 -66 146 -66q43 0 74.5 23.5t31.5 58.5q0 88 -140 88z" />
<glyph unicode="&#x4e0;" horiz-adv-x="531" d="M35 620v62h426v-75l-202 -192q105 -20 167 -78t62 -131q0 -222 -236 -222q-85 0 -136 24t-88 71l53 42q49 -69 171 -69q78 0 119.5 40t41.5 98q0 66 -66.5 116.5t-182.5 50.5v67l195 196h-324z" />
<glyph unicode="&#x4e1;" horiz-adv-x="399" d="M13 406v62h328v-62l-188 -208q119 -15 172.5 -71.5t53.5 -126.5q0 -98 -58.5 -149t-151.5 -51q-95 0 -172 77l44 43q60 -60 131 -60q65 0 102 36t37 104q0 51 -59 95.5t-175 44.5v62l184 204h-248z" />
<glyph unicode="&#x4e2;" horiz-adv-x="629" d="M179 771h267v-45h-267v45zM550 0h-75v557l-322 -557h-74v682h74v-559l322 559h75v-682z" />
<glyph unicode="&#x4e3;" horiz-adv-x="530" d="M133 612h267v-45h-267v45zM63 0v468h68v-391l252 391h84v-468h-68v386l-249 -386h-87z" />
<glyph unicode="&#x4e4;" horiz-adv-x="629" d="M357 771q0 23 16 38.5t38 15.5q23 0 39 -16t16 -38t-16 -38t-39 -16q-22 0 -38 15.5t-16 38.5zM162 771q0 23 15.5 38.5t38.5 15.5t39 -16t16 -38t-16 -38t-39 -16t-38.5 15.5t-15.5 38.5zM550 0h-75v557l-322 -557h-74v682h74v-559l322 559h75v-682z" />
<glyph unicode="&#x4e5;" horiz-adv-x="530" d="M311 613q0 23 16 38.5t38 15.5q23 0 39 -16t16 -38t-16 -38t-39 -16q-22 0 -38 15.5t-16 38.5zM116 613q0 23 15.5 38.5t38.5 15.5t39 -16t16 -38t-16 -38t-39 -16t-38.5 15.5t-15.5 38.5zM63 0v468h68v-391l252 391h84v-468h-68v386l-249 -386h-87z" />
<glyph unicode="&#x4e6;" horiz-adv-x="673" d="M379 771q0 23 15.5 38.5t38.5 15.5t39 -16t16 -38t-16 -38t-39 -16t-38.5 15.5t-15.5 38.5zM184 771q0 23 16 38.5t38 15.5q23 0 39 -16t16 -38t-16 -38t-39 -16q-22 0 -38 15.5t-16 38.5zM121 340q0 -114 62.5 -200.5t151.5 -86.5t151.5 86.5t62.5 200.5q0 115 -63 202 t-151 87t-151 -87t-63 -202zM42 340q0 143 88.5 250t204.5 107t204.5 -107t88.5 -250t-88.5 -249.5t-204.5 -106.5t-204.5 106.5t-88.5 249.5z" />
<glyph unicode="&#x4e7;" horiz-adv-x="549" d="M309 613q0 23 16 38.5t38 15.5q23 0 39 -16t16 -38t-16 -38t-39 -16q-22 0 -38 15.5t-16 38.5zM114 613q0 23 15.5 38.5t38.5 15.5t39 -16t16 -38t-16 -38t-39 -16t-38.5 15.5t-15.5 38.5zM102 234q0 -77 49.5 -132.5t114.5 -55.5t114.5 55.5t49.5 132.5t-49.5 132.5 t-114.5 55.5t-114.5 -55.5t-49.5 -132.5zM34 234q0 101 71.5 175.5t160.5 74.5t160.5 -74.5t71.5 -175.5t-71 -175.5t-159 -74.5q-89 0 -161.5 74.5t-72.5 175.5z" />
<glyph unicode="&#x4e8;" horiz-adv-x="670" d="M42 340q0 143 88.5 250t204.5 107t204.5 -107t88.5 -250t-88.5 -249.5t-204.5 -106.5t-204.5 106.5t-88.5 249.5zM122 372h426q-9 105 -70 181t-143 76t-143 -76t-70 -181zM548 310h-426q8 -106 69 -181.5t144 -75.5q82 0 143 75.5t70 181.5z" />
<glyph unicode="&#x4e9;" horiz-adv-x="532" d="M34 234q0 101 71.5 175.5t160.5 74.5t160.5 -74.5t71.5 -175.5t-71 -175.5t-159 -74.5q-89 0 -161.5 74.5t-72.5 175.5zM105 267h322q-10 66 -56.5 110.5t-104.5 44.5t-104.5 -44.5t-56.5 -110.5zM428 205h-324q10 -67 56.5 -113t105.5 -46t105.5 46t56.5 113z" />
<glyph unicode="&#x4ea;" horiz-adv-x="670" d="M377 771q0 23 16 38.5t38 15.5q23 0 39 -16t16 -38t-16 -38t-39 -16q-22 0 -38 15.5t-16 38.5zM182 771q0 23 15.5 38.5t38.5 15.5t39 -16t16 -38t-16 -38t-39 -16t-38.5 15.5t-15.5 38.5zM42 340q0 143 88.5 250t204.5 107t204.5 -107t88.5 -250t-88.5 -249.5 t-204.5 -106.5t-204.5 106.5t-88.5 249.5zM122 372h426q-9 105 -70 181t-143 76t-143 -76t-70 -181zM548 310h-426q8 -106 69 -181.5t144 -75.5q82 0 143 75.5t70 181.5z" />
<glyph unicode="&#x4eb;" horiz-adv-x="532" d="M310 613q0 23 16 38.5t38 15.5q23 0 39 -16t16 -38t-16 -38t-39 -16q-22 0 -38 15.5t-16 38.5zM115 613q0 23 15.5 38.5t38.5 15.5t39 -16t16 -38t-16 -38t-39 -16t-38.5 15.5t-15.5 38.5zM34 234q0 101 71.5 175.5t160.5 74.5t160.5 -74.5t71.5 -175.5t-71 -175.5 t-159 -74.5q-89 0 -161.5 74.5t-72.5 175.5zM105 267h322q-10 66 -56.5 110.5t-104.5 44.5t-104.5 -44.5t-56.5 -110.5zM428 205h-324q10 -67 56.5 -113t105.5 -46t105.5 46t56.5 113z" />
<glyph unicode="&#x4ec;" horiz-adv-x="573" d="M300 771q0 23 16 38.5t38 15.5q23 0 39 -16t16 -38t-16 -38t-39 -16q-22 0 -38 15.5t-16 38.5zM105 771q0 23 15.5 38.5t38.5 15.5t39 -16t16 -38t-16 -38t-39 -16t-38.5 15.5t-15.5 38.5zM27 144l65 35q68 -126 162 -126q81 0 135.5 74.5t62.5 182.5h-265v62h265 q-8 107 -62.5 182t-135.5 75q-87 0 -156 -114l-59 42q91 140 215 140q114 0 194.5 -106t80.5 -251t-80.5 -250.5t-194.5 -105.5q-134 0 -227 160z" />
<glyph unicode="&#x4ed;" horiz-adv-x="473" d="M250 613q0 23 16 38.5t38 15.5q23 0 39 -16t16 -38t-16 -38t-39 -16q-22 0 -38 15.5t-16 38.5zM55 613q0 23 15.5 38.5t38.5 15.5t39 -16t16 -38t-16 -38t-39 -16t-38.5 15.5t-15.5 38.5zM19 74l53 37q26 -34 54.5 -49.5t80.5 -15.5q60 0 108 48t55 118h-240v62h237 q-13 64 -58.5 106t-101.5 42q-77 0 -127 -71l-50 39q34 43 81 68.5t96 25.5q89 0 160.5 -74.5t71.5 -175.5t-72.5 -175.5t-161.5 -74.5q-65 0 -107.5 22.5t-78.5 67.5z" />
<glyph unicode="&#x4ee;" horiz-adv-x="447" d="M99 771h267v-45h-267v45zM446 682l-182 -530q-52 -152 -212 -152v62q100 0 134 97l20 57l-188 466h81l144 -359l124 359h79z" />
<glyph unicode="&#x4ef;" horiz-adv-x="456" d="M97 612h267v-45h-267v45zM228 88l153 380h74l-271 -668h-73l80 199l-190 469h74z" />
<glyph unicode="&#x4f0;" horiz-adv-x="447" d="M275 771q0 23 16 38.5t38 15.5q23 0 39 -16t16 -38t-16 -38t-39 -16q-22 0 -38 15.5t-16 38.5zM80 771q0 23 15.5 38.5t38.5 15.5t39 -16t16 -38t-16 -38t-39 -16t-38.5 15.5t-15.5 38.5zM446 682l-182 -530q-52 -152 -212 -152v62q100 0 134 97l20 57l-188 466h81 l144 -359l124 359h79z" />
<glyph unicode="&#x4f1;" horiz-adv-x="456" d="M270 613q0 23 16 38.5t38 15.5q23 0 39 -16t16 -38t-16 -38t-39 -16q-22 0 -38 15.5t-16 38.5zM75 613q0 23 15.5 38.5t38.5 15.5t39 -16t16 -38t-16 -38t-39 -16t-38.5 15.5t-15.5 38.5zM228 88l153 380h74l-271 -668h-73l80 199l-190 469h74z" />
<glyph unicode="&#x4f2;" horiz-adv-x="447" d="M290 754l172 192l48 -48l-192 -171zM118 754l172 192l48 -48l-192 -171zM446 682l-182 -530q-52 -152 -212 -152v62q100 0 134 97l20 57l-188 466h81l144 -359l124 359h79z" />
<glyph unicode="&#x4f3;" horiz-adv-x="456" d="M291 594l172 192l48 -48l-192 -171zM119 594l172 192l48 -48l-192 -171zM228 88l153 380h74l-271 -668h-73l80 199l-190 469h74z" />
<glyph unicode="&#x4f4;" horiz-adv-x="585" d="M308 771q0 23 16 38.5t38 15.5q23 0 39 -16t16 -38t-16 -38t-39 -16q-22 0 -38 15.5t-16 38.5zM113 771q0 23 15.5 38.5t38.5 15.5t39 -16t16 -38t-16 -38t-39 -16t-38.5 15.5t-15.5 38.5zM430 524v158h76v-682h-76v326q-64 -64 -161 -64q-106 0 -171.5 75t-65.5 187v158 h75v-158q0 -82 43.5 -140.5t118.5 -58.5t118 58t43 141z" />
<glyph unicode="&#x4f5;" horiz-adv-x="474" d="M260 613q0 23 16 38.5t38 15.5q23 0 39 -16t16 -38t-16 -38t-39 -16q-22 0 -38 15.5t-16 38.5zM65 613q0 23 15.5 38.5t38.5 15.5t39 -16t16 -38t-16 -38t-39 -16t-38.5 15.5t-15.5 38.5zM27 347v121h67v-121q0 -55 32 -90.5t93 -35.5t92 52t31 135v60h69v-468h-69v207 q-49 -49 -123 -49q-88 0 -140 50t-52 139z" />
<glyph unicode="&#x4f6;" horiz-adv-x="467" d="M147 0h-68v682h382v-63h-307v-559h55v-240h-40z" />
<glyph unicode="&#x4f7;" horiz-adv-x="367" d="M63 0v468h302v-62h-234v-346h56v-240h-40l-22 180h-62z" />
<glyph unicode="&#x4f8;" horiz-adv-x="783" d="M421 771q0 23 16 38.5t38 15.5q23 0 39 -16t16 -38t-16 -38t-39 -16q-22 0 -38 15.5t-16 38.5zM226 771q0 23 15.5 38.5t38.5 15.5t39 -16t16 -38t-16 -38t-39 -16t-38.5 15.5t-15.5 38.5zM694 616v-550h36v-66h-147v66h36v550h-36v66h147v-66h-36zM79 0v682h75v-282h143 q61 0 113.5 -20.5t89 -67t36.5 -112.5t-36 -112.5t-88 -67t-113 -20.5h-220zM154 338v-276h143q68 0 112.5 36t44.5 102t-44.5 102t-112.5 36h-143z" />
<glyph unicode="&#x4f9;" horiz-adv-x="628" d="M353 613q0 23 16 38.5t38 15.5q23 0 39 -16t16 -38t-16 -38t-39 -16q-22 0 -38 15.5t-16 38.5zM158 613q0 23 15.5 38.5t38.5 15.5t39 -16t16 -38t-16 -38t-39 -16t-38.5 15.5t-15.5 38.5zM497 0v468h68v-468h-68zM63 0v468h68v-158h86q98 0 157 -40t59 -115t-58 -115 t-156 -40h-156zM131 248v-186h86q66 0 103 23.5t37 69.5t-37 69.5t-103 23.5h-86z" />
<glyph unicode="&#x4fa;" horiz-adv-x="469" d="M16 413v55h66v214h382v-63h-307v-151h137v-55h-137v-373h132v-129q0 -46 -26.5 -71t-67.5 -25q-48 0 -77 49l28 21q24 -33 45 -33q54 0 54 71v77h-163v413h-66z" />
<glyph unicode="&#x4fb;" horiz-adv-x="374" d="M11 249v55h60v164h302v-62h-234v-102h103v-55h-103v-209h132v-129q0 -46 -26.5 -71t-67.5 -25q-48 0 -77 49l28 21q24 -33 45 -33q54 0 54 71v77h-156v249h-60z" />
<glyph unicode="&#x4fc;" horiz-adv-x="548" d="M508 0h-116l-144 270l-143 -270h-84l185 349l-177 333h84l135 -255l136 255h84l-178 -333l165 -309h97v-129q0 -46 -26.5 -71t-67.5 -25q-48 0 -77 49l29 21q24 -33 44 -33q54 0 54 71v77z" />
<glyph unicode="&#x4fd;" horiz-adv-x="495" d="M167 244l-140 224h80l100 -160l100 160h81l-140 -224l127 -204h111v-129q0 -46 -26.5 -71t-67.5 -25q-48 0 -77 49l29 21q24 -33 44 -33q54 0 54 71v77h-123l-112 179l-112 -179h-80z" />
<glyph unicode="&#x4fe;" horiz-adv-x="495" d="M63 320v62h125l-160 300h84l135 -255l136 255h84l-160 -300h128v-62h-130l170 -320h-84l-144 270l-143 -270h-84l170 320h-127z" />
<glyph unicode="&#x4ff;" horiz-adv-x="419" d="M35 220v62h111l-116 186h80l100 -160l100 160h81l-116 -186h102v-62h-111l137 -220h-81l-112 179l-112 -179h-80l137 220h-120z" />
<glyph unicode="&#x1d52;" horiz-adv-x="350" d="M167 524q-40 0 -65 -26t-25 -61q0 -37 24.5 -62t65.5 -25q40 0 65 26t25 61q0 37 -24.5 62t-65.5 25zM168 299q-63 0 -105.5 41t-42.5 97q0 58 42 98t105 40t105 -41t42 -97q0 -58 -41.5 -98t-104.5 -40z" />
<glyph unicode="&#x1dbf;" horiz-adv-x="380" d="M322 516q0 -87 -38 -151t-106 -64q-70 0 -107 64.5t-37 150.5q0 87 37.5 152t106.5 65q70 0 107 -65.5t37 -151.5zM178 356q33 0 54 41t25 98h-158q5 -60 26 -99.5t53 -39.5zM99 545h158q-5 57 -26 95.5t-53 38.5q-34 0 -54.5 -39.5t-24.5 -94.5z" />
<glyph unicode="&#x1e00;" horiz-adv-x="576" d="M239 -150q0 -20 14.5 -35t34.5 -15t35 15t15 35t-15 35t-35 15t-34.5 -15t-14.5 -35zM189 -150q0 41 29 70.5t70 29.5t70.5 -29.5t29.5 -70.5t-29.5 -70t-70.5 -29t-70 29t-29 70zM328 680l248 -680h-80l-70 191h-276l-69 -191h-80l247 680v2h81zM288 570l-115 -317h231z " />
<glyph unicode="&#x1e01;" d="M219 -166q0 -20 14.5 -35t34.5 -15t35 15t15 35t-15 35t-35 15t-34.5 -15t-14.5 -35zM169 -166q0 41 29 70.5t70 29.5t70.5 -29.5t29.5 -70.5t-29.5 -70t-70.5 -29t-70 29t-29 70zM34 234q0 101 71.5 175.5t160.5 74.5q92 0 164 -78v62h68v-468h-68v61q-71 -77 -162 -77 q-89 0 -161.5 74.5t-72.5 175.5zM102 234q0 -77 49.5 -132.5t114.5 -55.5t114.5 55.5t49.5 132.5t-49.5 132.5t-114.5 55.5t-114.5 -55.5t-49.5 -132.5z" />
<glyph unicode="&#x1e02;" horiz-adv-x="575" d="M194 771q0 23 15.5 38.5t37.5 15.5q23 0 39 -16t16 -38t-16 -38t-39 -16q-22 0 -37.5 15.5t-15.5 38.5zM79 0v682h202q88 0 148.5 -48t60.5 -123q0 -85 -75 -134q121 -52 121 -177q0 -66 -36 -112.5t-88 -67t-113 -20.5h-220zM154 338v-276h143q68 0 112.5 36t44.5 102 t-44.5 102t-112.5 36h-143zM154 619v-218h127q60 0 93.5 33t33.5 77t-33 76t-94 32h-127z" />
<glyph unicode="&#x1e03;" d="M238 613q0 23 15.5 38.5t37.5 15.5q23 0 39 -16t16 -38t-16 -38t-39 -16q-22 0 -37.5 15.5t-15.5 38.5zM131 63v-63h-68v726h68v-320q71 78 164 78q89 0 160.5 -74.5t71.5 -175.5t-71 -175.5t-159 -74.5q-93 0 -166 79zM131 234q0 -77 49.5 -132.5t114.5 -55.5 t114.5 55.5t49.5 132.5t-49.5 132.5t-114.5 55.5t-114.5 -55.5t-49.5 -132.5z" />
<glyph unicode="&#x1e04;" horiz-adv-x="575" d="M219 -114q0 23 15.5 38.5t37.5 15.5q23 0 39 -16t16 -38t-16 -38t-39 -16q-22 0 -37.5 15.5t-15.5 38.5zM79 0v682h202q88 0 148.5 -48t60.5 -123q0 -85 -75 -134q121 -52 121 -177q0 -66 -36 -112.5t-88 -67t-113 -20.5h-220zM154 338v-276h143q68 0 112.5 36t44.5 102 t-44.5 102t-112.5 36h-143zM154 619v-218h127q60 0 93.5 33t33.5 77t-33 76t-94 32h-127z" />
<glyph unicode="&#x1e05;" d="M243 -130q0 23 15.5 38.5t37.5 15.5q23 0 39 -16t16 -38t-16 -38t-39 -16q-22 0 -37.5 15.5t-15.5 38.5zM131 63v-63h-68v726h68v-320q71 78 164 78q89 0 160.5 -74.5t71.5 -175.5t-71 -175.5t-159 -74.5q-93 0 -166 79zM131 234q0 -77 49.5 -132.5t114.5 -55.5 t114.5 55.5t49.5 132.5t-49.5 132.5t-114.5 55.5t-114.5 -55.5t-49.5 -132.5z" />
<glyph unicode="&#x1e06;" horiz-adv-x="591" d="M103 -94h367v-45h-367v45zM79 0v682h202q88 0 148.5 -48t60.5 -123q0 -85 -75 -134q121 -52 121 -177q0 -66 -36 -112.5t-88 -67t-113 -20.5h-220zM154 338v-276h143q68 0 112.5 36t44.5 102t-44.5 102t-112.5 36h-143zM154 619v-218h127q60 0 93.5 33t33.5 77t-33 76 t-94 32h-127z" />
<glyph unicode="&#x1e07;" horiz-adv-x="575" d="M85 -94h367v-45h-367v45zM131 63v-63h-68v726h68v-320q71 78 164 78q89 0 160.5 -74.5t71.5 -175.5t-71 -175.5t-159 -74.5q-93 0 -166 79zM131 234q0 -77 49.5 -132.5t114.5 -55.5t114.5 55.5t49.5 132.5t-49.5 132.5t-114.5 55.5t-114.5 -55.5t-49.5 -132.5z" />
<glyph unicode="&#x1e08;" horiz-adv-x="575" d="M295 -15q-106 13 -178 115.5t-72 239.5q0 145 80.5 251t194.5 106q124 0 215 -140l-59 -42q-69 114 -156 114t-143 -86t-56 -203t56 -202t143 -85q94 0 162 126l65 -35q-83 -143 -201 -158l-27 -54q54 0 81 -18t27 -39q0 -75 -205 -75v27q49 0 94 11.5t45 30.5 q0 10 -7 15.5t-30.5 9t-69.5 3.5zM240 759l216 141l34 -58l-230 -117z" />
<glyph unicode="&#x1e09;" horiz-adv-x="479" d="M246 -15q-83 10 -147 82.5t-64 166.5q0 101 71.5 175.5t160.5 74.5q49 0 96 -25.5t81 -68.5l-50 -39q-50 71 -127 71q-65 0 -114.5 -55.5t-49.5 -132.5t49.5 -132.5t114.5 -55.5q52 0 80.5 15.5t54.5 49.5l53 -37q-65 -82 -158 -89l-26 -53q54 0 80.5 -18t26.5 -39 q0 -75 -205 -75v27q50 0 95 11.5t45 30.5q0 10 -7 15.5t-31 9t-70 3.5zM187 601l216 141l34 -58l-230 -117z" />
<glyph unicode="&#x1e0a;" horiz-adv-x="610" d="M244 771q0 23 15.5 38.5t37.5 15.5q23 0 39 -16t16 -38t-16 -38t-39 -16q-22 0 -37.5 15.5t-15.5 38.5zM79 0v682h149q66 0 125.5 -20.5t107.5 -60.5t76 -107.5t28 -153.5t-28 -153t-76 -107t-107 -60t-126 -20h-149zM154 613v-545h52q134 0 207 67t73 205t-73 205.5 t-207 67.5h-52z" />
<glyph unicode="&#x1e0b;" d="M34 234q0 101 71.5 175.5t160.5 74.5q92 0 164 -78v320h68v-726h-68v61q-71 -77 -162 -77q-89 0 -161.5 74.5t-72.5 175.5zM102 234q0 -77 49.5 -132.5t114.5 -55.5t114.5 55.5t49.5 132.5t-49.5 132.5t-114.5 55.5t-114.5 -55.5t-49.5 -132.5zM195 613q0 23 15.5 38.5 t37.5 15.5q23 0 39 -16t16 -38t-16 -38t-39 -16q-22 0 -37.5 15.5t-15.5 38.5z" />
<glyph unicode="&#x1e0c;" horiz-adv-x="610" d="M225 -114q0 23 15.5 38.5t37.5 15.5q23 0 39 -16t16 -38t-16 -38t-39 -16q-22 0 -37.5 15.5t-15.5 38.5zM79 0v682h149q66 0 125.5 -20.5t107.5 -60.5t76 -107.5t28 -153.5t-28 -153t-76 -107t-107 -60t-126 -20h-149zM154 613v-545h52q134 0 207 67t73 205t-73 205.5 t-207 67.5h-52z" />
<glyph unicode="&#x1e0d;" d="M215 -130q0 23 15.5 38.5t37.5 15.5q23 0 39 -16t16 -38t-16 -38t-39 -16q-22 0 -37.5 15.5t-15.5 38.5zM34 234q0 101 71.5 175.5t160.5 74.5q92 0 164 -78v320h68v-726h-68v61q-71 -77 -162 -77q-89 0 -161.5 74.5t-72.5 175.5zM102 234q0 -77 49.5 -132.5t114.5 -55.5 t114.5 55.5t49.5 132.5t-49.5 132.5t-114.5 55.5t-114.5 -55.5t-49.5 -132.5z" />
<glyph unicode="&#x1e0e;" horiz-adv-x="610" d="M116 -94h367v-45h-367v45zM79 0v682h149q66 0 125.5 -20.5t107.5 -60.5t76 -107.5t28 -153.5t-28 -153t-76 -107t-107 -60t-126 -20h-149zM154 613v-545h52q134 0 207 67t73 205t-73 205.5t-207 67.5h-52z" />
<glyph unicode="&#x1e0f;" d="M88 -94h367v-45h-367v45zM34 234q0 101 71.5 175.5t160.5 74.5q92 0 164 -78v320h68v-726h-68v61q-71 -77 -162 -77q-89 0 -161.5 74.5t-72.5 175.5zM102 234q0 -77 49.5 -132.5t114.5 -55.5t114.5 55.5t49.5 132.5t-49.5 132.5t-114.5 55.5t-114.5 -55.5t-49.5 -132.5z " />
<glyph unicode="&#x1e10;" horiz-adv-x="610" d="M154 613v-545h52q134 0 207 67t73 205t-73 205.5t-207 67.5h-52zM79 0v682h149q66 0 125.5 -20.5t107.5 -60.5t76 -107.5t28 -153.5t-28 -153t-76 -107t-107 -60t-126 -20h-1l-33 -68q54 0 80.5 -18t26.5 -39q0 -75 -205 -75v27q50 0 95 11.5t45 30.5q0 10 -7 15.5t-31 9 t-70 3.5l48 103h-97z" />
<glyph unicode="&#x1e11;" d="M102 234q0 -77 49.5 -132.5t114.5 -55.5t114.5 55.5t49.5 132.5t-49.5 132.5t-114.5 55.5t-114.5 -55.5t-49.5 -132.5zM34 234q0 101 71.5 175.5t160.5 74.5q92 0 164 -78v320h68v-726h-68v61q-60 -64 -136 -75l-26 -54q54 0 80 -18t26 -39q0 -75 -204 -75v27 q50 0 95 11.5t45 30.5q0 10 -7 15.5t-31 9t-70 3.5l41 89q-83 12 -146 83.5t-63 164.5z" />
<glyph unicode="&#x1e12;" horiz-adv-x="610" d="M161 -218l-19 34l135 124l136 -124l-19 -34l-117 77zM79 0v682h149q66 0 125.5 -20.5t107.5 -60.5t76 -107.5t28 -153.5t-28 -153t-76 -107t-107 -60t-126 -20h-149zM154 613v-545h52q134 0 207 67t73 205t-73 205.5t-207 67.5h-52z" />
<glyph unicode="&#x1e13;" d="M166 -234l-19 34l135 124l136 -124l-19 -34l-117 77zM34 234q0 101 71.5 175.5t160.5 74.5q92 0 164 -78v320h68v-726h-68v61q-71 -77 -162 -77q-89 0 -161.5 74.5t-72.5 175.5zM102 234q0 -77 49.5 -132.5t114.5 -55.5t114.5 55.5t49.5 132.5t-49.5 132.5t-114.5 55.5 t-114.5 -55.5t-49.5 -132.5z" />
<glyph unicode="&#x1e14;" horiz-adv-x="503" d="M144 789h267v-45h-267v45zM79 0v682h382v-63h-307v-218h240v-61h-240v-278h310v-62h-385zM277 819l-230 117l34 58l216 -141z" />
<glyph unicode="&#x1e15;" horiz-adv-x="526" d="M131 631h267v-45h-267v45zM102 234q0 -77 49.5 -132.5t114.5 -55.5q72 0 104.5 20t58.5 65l54 -36q-37 -56 -84 -83.5t-131 -27.5q-89 0 -161.5 74.5t-72.5 175.5t71.5 175.5t160.5 74.5t160.5 -74.5t71.5 -175.5h-396zM112 296h308q-17 55 -60 90.5t-94 35.5t-94 -35.5 t-60 -90.5zM259 657l-230 117l34 58l216 -141z" />
<glyph unicode="&#x1e16;" horiz-adv-x="503" d="M207 853l216 141l34 -58l-230 -117zM144 789h267v-45h-267v45zM79 0v682h382v-63h-307v-218h240v-61h-240v-278h310v-62h-385z" />
<glyph unicode="&#x1e17;" horiz-adv-x="526" d="M187 719l216 141l34 -58l-230 -117zM131 631h267v-45h-267v45zM102 234q0 -77 49.5 -132.5t114.5 -55.5q72 0 104.5 20t58.5 65l54 -36q-37 -56 -84 -83.5t-131 -27.5q-89 0 -161.5 74.5t-72.5 175.5t71.5 175.5t160.5 74.5t160.5 -74.5t71.5 -175.5h-396zM112 296h308 q-17 55 -60 90.5t-94 35.5t-94 -35.5t-60 -90.5z" />
<glyph unicode="&#x1e1a;" horiz-adv-x="503" d="M324 -132q27 0 45 20t22 43h46q-6 -47 -38.5 -88.5t-74.5 -41.5q-26 0 -47 16t-38 32t-32 16q-27 0 -45.5 -20.5t-22.5 -43.5h-45q6 47 38.5 88.5t74.5 41.5q26 0 47 -15.5t38 -31.5t32 -16zM79 0v682h382v-63h-307v-218h240v-61h-240v-278h310v-62h-385z" />
<glyph unicode="&#x1e1b;" horiz-adv-x="526" d="M323 -132q27 0 45 20t22 43h46q-6 -47 -38.5 -88.5t-74.5 -41.5q-26 0 -47 16t-38 32t-32 16q-27 0 -45.5 -20.5t-22.5 -43.5h-45q6 47 38.5 88.5t74.5 41.5q26 0 47 -15.5t38 -31.5t32 -16zM102 234q0 -77 49.5 -132.5t114.5 -55.5q72 0 104.5 20t58.5 65l54 -36 q-37 -56 -84 -83.5t-131 -27.5q-89 0 -161.5 74.5t-72.5 175.5t71.5 175.5t160.5 74.5t160.5 -74.5t71.5 -175.5h-396zM112 296h308q-17 55 -60 90.5t-94 35.5t-94 -35.5t-60 -90.5z" />
<glyph unicode="&#x1e22;" horiz-adv-x="608" d="M254 771q0 23 15.5 38.5t37.5 15.5q23 0 39 -16t16 -38t-16 -38t-39 -16q-22 0 -37.5 15.5t-15.5 38.5zM79 0v682h75v-295h300v295h75v-682h-75v325h-300v-325h-75z" />
<glyph unicode="&#x1e23;" horiz-adv-x="535" d="M238 613q0 23 15.5 38.5t37.5 15.5q23 0 39 -16t16 -38t-16 -38t-39 -16q-22 0 -37.5 15.5t-15.5 38.5zM477 296v-296h-68v296q0 53 -38 89.5t-101 36.5t-101 -54t-38 -134v-234h-68v726h68v-301q57 59 139 59q89 0 148 -50.5t59 -137.5z" />
<glyph unicode="&#x1e24;" horiz-adv-x="608" d="M250 -114q0 23 15.5 38.5t37.5 15.5q23 0 39 -16t16 -38t-16 -38t-39 -16q-22 0 -37.5 15.5t-15.5 38.5zM79 0v682h75v-295h300v295h75v-682h-75v325h-300v-325h-75z" />
<glyph unicode="&#x1e25;" horiz-adv-x="535" d="M216 -114q0 23 15.5 38.5t37.5 15.5q23 0 39 -16t16 -38t-16 -38t-39 -16q-22 0 -37.5 15.5t-15.5 38.5zM477 296v-296h-68v296q0 53 -38 89.5t-101 36.5t-101 -54t-38 -134v-234h-68v726h68v-301q57 59 139 59q89 0 148 -50.5t59 -137.5z" />
<glyph unicode="&#x1e26;" horiz-adv-x="608" d="M347 765q0 23 16 38.5t38 15.5q23 0 39 -16t16 -38t-16 -38t-39 -16q-22 0 -38 15.5t-16 38.5zM152 765q0 23 15.5 38.5t38.5 15.5t39 -16t16 -38t-16 -38t-39 -16t-38.5 15.5t-15.5 38.5zM79 0v682h75v-295h300v295h75v-682h-75v325h-300v-325h-75z" />
<glyph unicode="&#x1e27;" horiz-adv-x="535" d="M319 797q0 23 16 38.5t38 15.5q23 0 39 -16t16 -38t-16 -38t-39 -16q-22 0 -38 15.5t-16 38.5zM124 797q0 23 15.5 38.5t38.5 15.5t39 -16t16 -38t-16 -38t-39 -16t-38.5 15.5t-15.5 38.5zM477 296v-296h-68v296q0 53 -38 89.5t-101 36.5t-101 -54t-38 -134v-234h-68v726 h68v-301q57 59 139 59q89 0 148 -50.5t59 -137.5z" />
<glyph unicode="&#x1e2c;" horiz-adv-x="248" d="M175 -132q27 0 45 20t22 43h46q-6 -47 -38.5 -88.5t-74.5 -41.5q-26 0 -47 16t-38 32t-32 16q-27 0 -45.5 -20.5t-22.5 -43.5h-45q6 47 38.5 88.5t74.5 41.5q26 0 47 -15.5t38 -31.5t32 -16zM164 616v-550h36v-66h-147v66h36v550h-36v66h147v-66h-36z" />
<glyph unicode="&#x1e2d;" horiz-adv-x="216" d="M154 -132q27 0 45 20t22 43h46q-6 -47 -38.5 -88.5t-74.5 -41.5q-26 0 -47 16t-38 32t-32 16q-27 0 -45.5 -20.5t-22.5 -43.5h-45q6 47 38.5 88.5t74.5 41.5q26 0 47 -15.5t38 -31.5t32 -16zM43 613q0 23 15.5 38.5t38.5 15.5t38.5 -15.5t15.5 -38.5t-15.5 -38.5 t-38.5 -15.5t-38.5 15.5t-15.5 38.5zM63 0v468h68v-468h-68z" />
<glyph unicode="&#x1e2e;" horiz-adv-x="253" d="M97 868l216 141l34 -58l-230 -117zM171 771q0 23 15.5 38.5t38.5 15.5t39 -16t16 -38t-16 -38t-39 -16t-38.5 15.5t-15.5 38.5zM-24 771q0 23 16 38.5t38 15.5q23 0 39 -16t16 -38t-16 -38t-39 -16q-22 0 -38 15.5t-16 38.5zM164 616v-550h36v-66h-147v66h36v550h-36v66 h147v-66h-36z" />
</font>
</defs>
</svg>
